{"glyphs":{"0":{"ha":857,"x_min":0,"x_max":0,"o":"m 89 697 b 429 1006 89 888 214 1006 b 768 697 642 1006 768 888 l 768 289 b 429 -19 768 99 642 -19 b 89 289 214 -19 89 96 m 747 697 b 429 986 747 876 631 986 b 110 697 225 986 110 876 l 110 289 b 429 0 110 107 225 0 b 747 289 631 0 747 107 "},"1":{"ha":621,"x_min":0,"x_max":0,"o":"m 482 986 b 488 981 486 986 488 985 l 488 6 b 482 0 488 1 486 0 l 474 0 b 467 6 469 0 467 1 l 467 961 l 65 739 b 58 740 63 738 60 738 l 53 749 b 54 756 50 751 50 754 l 467 983 b 475 986 471 985 474 986 "},"2":{"ha":806,"x_min":0,"x_max":0,"o":"m 79 782 b 431 1006 147 933 254 1006 b 643 924 517 1006 588 978 b 726 722 699 869 726 801 b 585 472 726 614 679 531 b 389 386 551 451 486 424 b 300 351 351 372 321 361 b 224 311 278 342 253 328 b 157 260 194 294 172 278 b 99 106 126 225 99 171 l 99 19 l 721 19 b 726 14 725 19 726 18 l 726 6 b 721 0 726 1 725 0 l 85 0 b 78 7 81 0 78 3 l 78 106 b 210 328 85 217 122 278 b 289 368 240 346 267 358 b 383 406 311 378 343 390 b 588 499 485 443 553 475 b 706 722 667 551 706 626 b 629 910 706 796 681 858 b 431 986 578 961 511 986 b 99 774 264 986 164 918 b 92 771 97 769 94 769 l 82 775 b 79 782 79 776 78 779 "},"3":{"ha":811,"x_min":0,"x_max":0,"o":"m 708 735 b 567 508 708 629 663 538 b 738 263 678 479 738 390 b 421 -19 738 83 636 -19 b 189 43 317 -19 240 1 b 76 233 138 83 100 147 b 81 242 75 238 76 240 l 88 244 b 96 240 92 246 94 244 b 204 58 119 157 156 96 b 421 0 251 19 324 0 b 718 263 619 0 718 88 b 488 497 718 406 633 497 l 222 497 b 217 503 218 497 217 499 l 217 511 b 222 517 217 515 218 517 l 488 517 b 690 735 625 517 690 613 b 422 986 690 897 600 986 b 104 754 235 986 153 917 b 96 751 103 750 100 750 l 89 753 b 85 761 85 754 83 757 b 422 1006 131 929 222 1006 b 708 735 613 1006 708 908 "},"4":{"ha":815,"x_min":0,"x_max":0,"o":"m 767 331 b 772 325 771 331 772 329 l 772 317 b 767 311 772 313 771 311 l 601 311 l 601 6 b 596 0 601 1 600 0 l 586 0 b 581 6 582 0 581 1 l 581 311 l 44 311 b 39 317 40 311 39 313 l 39 322 b 40 331 39 326 39 329 l 576 1001 b 585 1006 579 1004 582 1006 l 594 1006 b 601 999 599 1006 601 1003 l 601 331 m 581 972 l 65 331 l 581 331 "},"5":{"ha":797,"x_min":0,"x_max":0,"o":"m 693 986 b 699 981 697 986 699 985 l 699 972 b 693 967 699 968 697 967 l 171 967 l 132 569 l 429 569 b 733 282 628 569 733 449 b 646 67 733 197 704 125 b 413 -21 588 8 510 -21 b 67 192 233 -21 118 50 b 68 199 65 196 67 197 l 79 203 b 86 199 83 204 85 203 b 413 -1 132 65 242 -1 b 632 81 504 -1 578 26 b 713 282 686 135 713 203 b 429 550 713 438 613 550 l 119 550 b 110 561 113 550 108 554 l 151 971 b 168 986 153 981 158 986 "},"6":{"ha":843,"x_min":0,"x_max":0,"o":"m 108 488 b 442 550 200 529 311 550 b 771 265 665 550 771 458 b 429 -19 771 86 644 -19 b 88 319 207 -19 88 107 l 88 667 b 429 1006 88 890 206 1006 b 757 800 594 1006 704 938 b 753 793 758 796 757 794 l 744 790 b 738 794 740 789 739 790 b 429 986 686 922 583 986 b 108 667 218 986 108 878 m 108 319 b 429 0 108 118 222 0 b 750 265 633 0 750 97 b 442 531 750 444 653 531 b 108 465 313 531 201 508 "},"7":{"ha":692,"x_min":0,"x_max":0,"o":"m 672 986 b 678 981 676 986 678 985 l 678 975 b 676 967 678 972 678 969 l 256 6 b 246 0 254 1 250 0 l 236 0 b 233 6 232 0 232 1 l 654 967 l 47 967 b 42 972 43 967 42 968 l 42 981 b 47 986 42 985 43 986 "},"8":{"ha":838,"x_min":0,"x_max":0,"o":"m 103 768 b 418 1006 103 922 219 1006 b 736 768 631 1006 736 926 b 640 567 736 678 699 606 b 483 497 582 526 535 508 b 676 414 571 474 618 453 b 763 229 735 374 763 313 b 418 -19 763 64 647 -19 b 75 221 189 -19 75 61 b 224 460 75 343 146 417 b 360 511 279 492 317 501 b 103 768 197 560 103 624 m 715 768 b 418 986 715 911 613 986 b 124 768 231 986 124 908 b 157 650 124 719 140 678 b 246 576 174 621 221 592 b 367 531 267 563 343 538 b 433 511 379 526 401 519 l 442 508 b 554 540 471 513 493 515 b 632 585 583 553 610 567 b 715 768 675 618 715 686 m 742 229 b 625 422 742 315 703 379 b 407 499 590 440 518 467 b 400 500 404 499 401 499 b 278 465 371 496 344 492 b 192 417 244 451 215 435 b 96 221 142 378 96 306 b 418 0 96 74 203 0 b 742 229 633 0 742 76 "},"9":{"ha":843,"x_min":0,"x_max":0,"o":"m 735 499 b 401 436 643 457 532 436 b 72 721 178 436 72 528 b 414 1006 72 900 199 1006 b 756 667 636 1006 756 879 l 756 319 b 414 -19 756 96 638 -19 b 86 186 249 -19 139 49 b 90 193 85 190 86 192 l 99 196 b 106 192 103 197 104 196 b 414 0 157 64 260 0 b 735 319 625 0 735 108 m 735 667 b 414 986 735 868 621 986 b 93 721 210 986 93 889 b 401 456 93 542 190 456 b 735 521 531 456 642 478 "}," ":{"ha":353,"x_min":0,"x_max":0,"o":""},"!":{"ha":235,"x_min":0,"x_max":0,"o":"m 124 1028 b 129 1022 128 1028 129 1026 l 125 186 b 119 181 125 182 124 181 l 115 181 b 110 186 111 181 110 182 l 106 1022 b 111 1028 106 1026 107 1028 m 121 36 b 139 18 133 36 139 31 l 139 13 b 121 -6 139 0 133 -6 l 115 -6 b 97 13 100 -6 97 -3 l 97 18 b 115 36 97 31 103 36 "},"\"":{"ha":329,"x_min":0,"x_max":0,"o":"m 115 694 b 110 689 115 690 114 689 l 106 689 b 100 694 101 689 100 690 l 100 981 b 106 986 100 985 101 986 l 118 986 b 124 981 122 986 124 985 m 226 694 b 221 689 226 690 225 689 l 217 689 b 211 694 213 689 211 690 l 211 981 b 217 986 211 985 213 986 l 229 986 b 235 981 233 986 235 985 "},"#":{"ha":899,"x_min":0,"x_max":0,"o":"m 840 633 b 844 626 844 633 846 631 l 842 618 b 835 614 840 615 839 614 l 651 614 l 564 318 l 746 318 b 750 311 750 318 751 315 l 747 303 b 740 299 746 300 744 299 l 558 299 l 471 6 b 463 0 468 1 465 0 l 451 0 b 447 6 447 0 446 1 l 535 299 l 261 299 l 174 6 b 167 0 174 1 171 0 l 156 0 b 151 6 151 0 150 1 l 239 299 l 60 299 b 56 304 56 299 54 300 l 58 313 b 67 318 60 317 63 318 l 244 318 l 333 614 l 154 614 b 150 619 150 614 149 615 l 153 628 b 161 633 154 632 157 633 l 339 633 l 414 882 b 421 888 414 886 417 888 l 432 888 b 436 882 436 888 438 886 l 361 633 l 635 633 l 710 882 b 715 888 711 886 713 888 l 726 888 b 732 882 731 888 733 886 l 658 633 m 356 614 l 267 318 l 540 318 l 629 614 "},"$":{"ha":817,"x_min":0,"x_max":0,"o":"m 407 1101 b 413 1096 411 1101 413 1100 l 413 986 b 611 926 497 982 563 963 b 740 754 658 889 701 832 b 738 746 743 750 742 747 l 731 743 b 722 744 726 742 724 743 b 592 915 682 824 639 881 b 389 967 544 950 476 967 b 111 718 204 967 111 883 b 144 597 111 667 126 625 b 231 536 161 569 204 547 b 351 511 253 526 328 514 b 417 504 364 510 386 507 b 572 481 485 497 514 494 b 642 454 601 474 624 464 b 743 263 696 422 749 364 b 413 0 743 88 633 0 l 413 -110 b 407 -115 413 -114 411 -115 l 399 -115 b 393 -110 394 -115 393 -114 l 393 0 b 67 251 221 7 133 90 b 69 261 65 256 65 260 l 76 264 b 85 261 81 265 83 264 b 210 78 121 178 163 117 b 413 19 257 39 325 19 b 722 261 619 19 722 100 b 600 450 722 357 682 421 b 415 483 567 463 506 474 b 318 496 374 488 342 492 b 233 517 294 499 267 506 b 157 554 200 526 175 539 b 90 717 122 583 90 640 b 393 986 90 890 192 986 l 393 1096 b 399 1101 393 1100 394 1101 "},"%":{"ha":1117,"x_min":0,"x_max":0,"o":"m 57 804 b 265 1007 57 932 131 1007 b 474 804 400 1007 474 932 l 474 700 b 265 499 474 574 400 499 b 57 700 131 499 57 574 m 454 804 b 265 988 454 919 386 988 b 76 804 144 988 76 919 l 76 700 b 265 518 76 585 144 518 b 454 700 386 518 454 585 m 926 986 b 929 979 932 986 933 983 l 213 6 b 200 0 210 1 206 0 l 192 0 b 188 7 186 0 185 3 l 904 981 b 915 986 907 985 911 986 m 643 285 b 851 488 643 413 717 488 b 1060 285 986 488 1060 413 l 1060 181 b 851 -21 1060 54 986 -21 b 643 181 717 -21 643 54 m 1040 285 b 851 468 1040 400 972 468 b 663 285 731 468 663 400 l 663 181 b 851 -1 663 65 731 -1 b 1040 181 972 -1 1040 65 "},"&":{"ha":894,"x_min":0,"x_max":0,"o":"m 150 783 b 215 940 150 843 172 896 b 382 1006 258 983 314 1006 b 549 939 449 1006 504 983 b 615 783 593 894 615 843 b 557 628 615 717 596 665 b 356 515 517 590 450 553 l 342 510 l 676 193 l 783 294 b 792 294 786 297 789 297 l 797 289 b 797 281 800 286 800 283 l 692 179 l 874 7 b 871 0 878 3 878 0 l 858 0 b 846 6 854 0 850 1 l 676 167 b 472 17 592 90 524 40 b 310 -19 421 -7 367 -19 b 138 53 243 -19 186 4 b 64 226 89 100 64 158 b 140 415 64 308 89 371 b 307 515 190 460 231 483 b 176 676 244 575 211 606 b 150 783 158 711 150 747 m 594 783 b 535 925 594 838 575 885 b 382 986 494 965 443 986 b 231 926 319 986 269 967 b 171 783 190 886 171 838 b 251 599 171 713 217 636 b 328 524 269 581 294 556 l 346 532 b 415 561 381 546 403 556 b 471 589 426 567 444 576 b 525 624 497 601 515 614 b 594 783 560 656 603 710 m 321 501 b 144 394 242 469 183 433 b 85 226 104 356 85 300 b 151 67 85 164 107 110 b 310 0 196 22 249 0 b 465 35 364 0 417 11 b 661 179 514 58 579 106 "},"'":{"ha":218,"x_min":0,"x_max":0,"o":"m 115 694 b 110 689 115 690 114 689 l 106 689 b 100 694 101 689 100 690 l 100 981 b 106 986 100 985 101 986 l 118 986 b 124 981 122 986 124 985 "},"(":{"ha":310,"x_min":0,"x_max":0,"o":"m 92 849 b 283 1147 92 1006 151 1088 b 290 1146 286 1149 289 1149 l 294 1138 b 292 1131 296 1135 294 1132 b 111 849 168 1074 111 997 l 111 138 b 292 -144 111 -11 168 -87 b 294 -151 294 -146 296 -149 l 290 -160 b 283 -161 289 -162 286 -162 b 92 138 151 -101 92 -19 "},")":{"ha":310,"x_min":0,"x_max":0,"o":"m 21 1146 b 28 1147 22 1149 25 1149 b 219 849 160 1088 219 1006 l 219 138 b 28 -161 219 -19 160 -101 b 21 -160 25 -162 22 -162 l 17 -151 b 19 -144 15 -149 17 -146 b 200 138 143 -87 200 -11 l 200 849 b 19 1131 200 997 143 1074 b 17 1138 17 1132 15 1135 "},"*":{"ha":551,"x_min":0,"x_max":0,"o":"m 283 935 b 289 929 288 935 289 933 l 285 756 l 449 813 b 458 810 454 814 457 813 l 461 799 b 457 790 463 794 461 792 l 289 743 l 396 603 b 394 594 399 600 399 597 l 385 588 b 376 589 381 586 378 586 l 278 735 l 178 590 b 169 588 175 586 172 586 l 160 596 b 158 604 156 599 156 601 l 267 743 l 101 792 b 96 800 96 793 94 796 l 100 811 b 108 814 101 815 104 815 l 271 756 l 267 929 b 272 935 267 933 268 935 "},"+":{"ha":822,"x_min":0,"x_max":0,"o":"m 733 464 b 739 458 738 464 739 463 l 739 450 b 733 444 739 446 738 444 l 421 444 l 421 132 b 415 126 421 128 419 126 l 407 126 b 401 132 403 126 401 128 l 401 444 l 89 444 b 83 450 85 444 83 446 l 83 458 b 89 464 83 463 85 464 l 401 464 l 401 776 b 407 782 401 781 403 782 l 415 782 b 421 776 419 782 421 781 l 421 464 "},",":{"ha":193,"x_min":0,"x_max":0,"o":"m 42 -162 b 35 -168 40 -167 39 -168 l 31 -168 b 26 -162 26 -168 25 -167 l 86 39 b 99 49 88 46 92 49 l 107 49 b 114 39 114 49 117 46 "},"-":{"ha":600,"x_min":0,"x_max":0,"o":"m 501 379 b 507 374 506 379 507 378 l 507 365 b 501 360 507 361 506 360 l 99 360 b 93 365 94 360 93 361 l 93 374 b 99 379 93 378 94 379 "},".":{"ha":196,"x_min":0,"x_max":0,"o":"m 100 36 b 118 18 113 36 118 31 l 118 13 b 100 -6 118 0 113 -6 l 94 -6 b 76 13 79 -6 76 -3 l 76 18 b 94 36 76 31 82 36 "},"/":{"ha":518,"x_min":0,"x_max":0,"o":"m 78 -78 b 69 -83 76 -82 74 -83 l 60 -83 b 56 -78 56 -83 54 -82 l 447 981 b 456 986 449 985 451 986 l 465 986 b 469 981 469 986 471 985 "},":":{"ha":228,"x_min":0,"x_max":0,"o":"m 117 661 b 135 643 129 661 135 656 l 135 638 b 117 619 135 625 129 619 l 111 619 b 93 638 96 619 93 622 l 93 643 b 111 661 93 656 99 661 m 117 36 b 135 18 129 36 135 31 l 135 13 b 117 -6 135 0 129 -6 l 111 -6 b 93 13 96 -6 93 -3 l 93 18 b 111 36 93 31 99 36 "},";":{"ha":293,"x_min":0,"x_max":0,"o":"m 167 661 b 185 643 179 661 185 656 l 185 638 b 167 619 185 625 179 619 l 161 619 b 143 638 146 619 143 622 l 143 643 b 161 661 143 656 149 661 m 103 -162 b 96 -168 101 -167 100 -168 l 92 -168 b 88 -162 88 -168 86 -167 l 147 39 b 160 49 149 46 153 49 l 168 49 b 175 39 175 49 178 46 "},"<":{"ha":711,"x_min":0,"x_max":0,"o":"m 607 757 b 615 753 613 760 615 758 l 615 743 b 607 732 615 739 613 736 l 90 454 l 90 453 l 607 174 b 615 163 613 169 615 167 l 615 153 b 607 149 615 147 613 146 l 67 440 b 60 450 63 443 60 446 l 60 456 b 67 465 60 460 63 463 "},"=":{"ha":844,"x_min":0,"x_max":0,"o":"m 744 601 b 750 596 749 601 750 600 l 750 588 b 744 582 750 583 749 582 l 100 582 b 94 588 96 582 94 583 l 94 596 b 100 601 94 600 96 601 m 744 326 b 750 321 749 326 750 325 l 750 313 b 744 307 750 308 749 307 l 100 307 b 94 313 96 307 94 308 l 94 321 b 100 326 94 325 96 326 "},">":{"ha":711,"x_min":0,"x_max":0,"o":"m 96 753 b 104 757 96 758 99 760 l 644 465 b 651 456 649 463 651 460 l 651 450 b 644 440 651 446 649 443 l 104 149 b 96 153 99 146 96 147 l 96 163 b 104 174 96 167 99 169 l 621 451 l 621 453 l 104 732 b 96 743 99 736 96 739 "},"?":{"ha":760,"x_min":0,"x_max":0,"o":"m 49 799 b 389 1028 107 951 221 1028 b 624 947 488 1028 565 1001 b 710 743 681 893 710 825 b 649 540 710 658 690 590 b 521 428 607 489 581 467 b 440 367 486 404 458 383 b 385 290 421 350 403 325 b 357 176 367 256 357 218 b 351 171 357 172 356 171 l 343 171 b 338 176 339 171 338 172 b 393 346 338 249 354 301 b 510 444 432 390 453 406 b 632 550 567 483 592 501 b 689 743 671 599 689 661 b 608 933 689 819 663 882 b 389 1008 554 983 482 1008 b 68 793 229 1008 122 936 b 61 789 67 789 65 788 l 51 792 b 49 799 49 793 47 794 m 350 36 b 368 18 363 36 368 31 l 368 13 b 350 -6 368 0 363 -6 l 344 -6 b 326 13 329 -6 326 -3 l 326 18 b 344 36 326 31 332 36 "},"@":{"ha":1250,"x_min":0,"x_max":0,"o":"m 74 451 b 219 857 74 622 122 758 b 621 1006 317 956 450 1006 b 1028 856 796 1006 932 956 b 1171 451 1124 754 1171 619 l 1171 358 b 1099 143 1171 264 1147 192 b 925 68 1050 93 993 68 b 851 131 879 68 856 89 b 586 68 782 89 693 68 b 353 290 431 68 353 147 l 353 517 b 586 742 353 660 431 742 b 824 700 678 742 757 728 b 872 633 861 683 872 671 l 872 142 b 925 88 872 106 890 88 b 1085 157 988 88 1040 111 b 1150 358 1128 203 1150 269 l 1150 451 b 1013 842 1150 614 1104 744 b 621 986 919 938 789 986 b 236 843 458 986 329 939 b 94 451 142 747 94 617 l 94 358 b 235 -28 94 192 142 63 b 621 -164 328 -118 456 -164 b 881 -133 719 -164 831 -149 l 917 -124 b 922 -125 921 -122 922 -124 l 922 -137 b 917 -144 922 -142 921 -143 b 621 -183 832 -171 733 -183 b 74 358 276 -183 74 10 m 815 683 b 586 722 758 710 682 722 b 374 517 443 722 374 649 l 374 290 b 586 88 374 156 444 88 b 811 131 685 88 778 114 b 851 154 828 139 842 147 l 851 633 b 815 683 851 663 844 671 "},"A":{"ha":864,"x_min":0,"x_max":0,"o":"m 849 6 b 843 0 850 1 849 0 l 836 0 b 826 6 831 0 828 1 l 681 363 l 189 363 l 43 6 b 33 0 42 1 39 0 l 26 0 b 21 6 21 0 19 1 l 421 988 b 431 994 422 992 426 994 l 439 994 b 449 988 443 994 447 992 m 440 953 b 435 969 440 957 435 963 l 433 969 l 429 953 l 196 382 l 674 382 "},"B":{"ha":883,"x_min":0,"x_max":0,"o":"m 525 986 b 776 742 686 986 776 901 b 618 507 776 615 724 538 l 618 506 b 810 258 742 483 810 397 b 547 0 810 93 714 0 l 126 0 b 121 6 122 0 121 1 l 121 981 b 126 986 121 985 122 986 m 696 572 b 756 742 736 611 756 668 b 696 910 756 815 736 872 b 524 967 656 947 599 967 l 142 967 l 142 514 l 524 514 b 696 572 599 514 656 533 m 726 82 b 789 258 768 122 789 182 b 726 435 789 335 768 394 b 546 494 683 475 624 494 l 142 494 l 142 19 l 546 19 b 726 82 624 19 683 40 "},"C":{"ha":878,"x_min":0,"x_max":0,"o":"m 90 671 b 456 1006 90 882 218 1006 b 815 760 668 1006 769 926 b 811 751 817 756 815 753 l 804 750 b 796 753 800 749 797 749 b 456 986 750 915 656 986 b 113 672 232 986 113 868 l 113 315 b 456 0 113 119 235 0 b 800 242 660 0 751 75 b 808 246 801 246 804 247 l 815 243 b 819 235 819 242 821 239 b 456 -19 774 64 674 -19 b 90 317 222 -19 90 106 "},"D":{"ha":886,"x_min":0,"x_max":0,"o":"m 400 986 b 803 619 656 986 803 847 l 803 367 b 400 0 803 139 656 0 l 126 0 b 121 6 122 0 121 1 l 121 981 b 126 986 121 985 122 986 m 782 619 b 400 967 782 838 644 967 l 142 967 l 142 19 l 400 19 b 782 367 644 19 782 149 "},"E":{"ha":786,"x_min":0,"x_max":0,"o":"m 700 986 b 706 981 704 986 706 985 l 706 972 b 700 967 706 968 704 967 l 142 967 l 142 510 l 642 510 b 647 504 646 510 647 508 l 647 496 b 642 490 647 492 646 490 l 142 490 l 142 19 l 721 19 b 726 14 725 19 726 18 l 726 6 b 721 0 726 1 725 0 l 126 0 b 121 6 122 0 121 1 l 121 981 b 126 986 121 985 122 986 "},"F":{"ha":758,"x_min":0,"x_max":0,"o":"m 700 986 b 706 981 704 986 706 985 l 706 972 b 700 967 706 968 704 967 l 142 967 l 142 494 l 632 494 b 638 489 636 494 638 493 l 638 481 b 632 475 638 476 636 475 l 142 475 l 142 6 b 136 0 142 1 140 0 l 126 0 b 121 6 122 0 121 1 l 121 981 b 126 986 121 985 122 986 "},"G":{"ha":899,"x_min":0,"x_max":0,"o":"m 814 479 b 821 472 818 479 821 476 l 821 318 b 457 -19 821 107 692 -19 b 90 318 219 -19 90 107 l 90 671 b 456 1006 90 882 218 1006 b 815 760 668 1006 769 926 b 811 751 817 756 815 753 l 804 750 b 796 753 800 749 797 749 b 456 986 750 915 656 986 b 111 672 228 986 111 871 l 111 319 b 457 0 111 119 233 0 b 800 319 678 0 800 119 l 800 460 l 468 460 b 463 465 464 460 463 461 l 463 474 b 468 479 463 478 464 479 "},"H":{"ha":939,"x_min":0,"x_max":0,"o":"m 813 986 b 818 981 817 986 818 985 l 818 6 b 813 0 818 1 817 0 l 803 0 b 797 6 799 0 797 1 l 797 490 l 142 490 l 142 6 b 136 0 142 1 140 0 l 126 0 b 121 6 122 0 121 1 l 121 981 b 126 986 121 985 122 986 l 136 986 b 142 981 140 986 142 985 l 142 510 l 797 510 l 797 981 b 803 986 797 985 799 986 "},"I":{"ha":263,"x_min":0,"x_max":0,"o":"m 121 981 b 126 986 121 985 122 986 l 136 986 b 142 981 140 986 142 985 l 142 6 b 136 0 142 1 140 0 l 126 0 b 121 6 122 0 121 1 "},"J":{"ha":782,"x_min":0,"x_max":0,"o":"m 665 986 b 671 981 669 986 671 985 l 671 292 b 354 -21 671 99 556 -21 b 38 269 172 -21 67 76 b 40 278 36 274 36 276 l 49 281 b 57 276 54 282 57 281 b 354 0 86 94 175 0 b 650 292 543 0 650 113 l 650 981 b 656 986 650 985 651 986 "},"K":{"ha":818,"x_min":0,"x_max":0,"o":"m 788 7 b 783 0 790 3 789 0 l 776 0 b 765 6 772 0 768 1 l 594 344 b 360 490 543 446 481 490 l 142 490 l 142 6 b 136 0 142 1 140 0 l 126 0 b 121 6 122 0 121 1 l 121 981 b 126 986 121 985 122 986 l 136 986 b 142 981 140 986 142 985 l 142 510 l 360 510 b 401 508 379 510 393 510 l 749 981 b 761 986 751 985 756 986 l 769 986 b 774 979 775 986 776 983 l 425 506 b 613 356 515 490 568 444 "},"L":{"ha":714,"x_min":0,"x_max":0,"o":"m 136 986 b 142 981 140 986 142 985 l 142 19 l 689 19 b 694 14 693 19 694 18 l 694 6 b 689 0 694 1 693 0 l 126 0 b 121 6 122 0 121 1 l 121 981 b 126 986 121 985 122 986 "},"M":{"ha":1096,"x_min":0,"x_max":0,"o":"m 969 986 b 975 981 974 986 975 985 l 975 6 b 969 0 975 1 974 0 l 960 0 b 954 6 956 0 954 1 l 956 728 l 956 942 l 954 942 l 856 767 l 564 249 b 554 242 563 244 558 242 l 546 242 b 535 249 542 242 538 244 l 239 774 l 143 943 l 142 943 l 142 728 l 142 6 b 136 0 142 1 140 0 l 126 0 b 121 6 122 0 121 1 l 121 981 b 126 986 121 985 122 986 l 135 986 b 144 979 139 986 142 983 l 550 267 l 950 978 b 961 986 953 983 957 986 "},"N":{"ha":951,"x_min":0,"x_max":0,"o":"m 825 986 b 831 981 829 986 831 985 l 831 6 b 825 0 831 1 829 0 l 817 0 b 807 6 813 0 810 1 l 254 788 l 143 947 l 142 947 l 142 738 l 142 6 b 136 0 142 1 140 0 l 126 0 b 121 6 122 0 121 1 l 121 981 b 126 986 121 985 122 986 l 135 986 l 143 982 l 679 224 l 810 40 l 811 40 l 811 160 b 810 278 810 213 810 251 l 810 982 b 815 986 810 985 811 986 "},"O":{"ha":911,"x_min":0,"x_max":0,"o":"m 90 669 b 457 1006 90 881 219 1006 b 821 669 692 1006 821 881 l 821 317 b 457 -19 821 106 692 -19 b 90 317 219 -19 90 106 m 800 668 b 457 986 800 868 678 986 b 111 668 233 986 111 868 l 111 318 b 457 0 111 118 233 0 b 800 318 678 0 800 118 "},"P":{"ha":850,"x_min":0,"x_max":0,"o":"m 503 986 b 801 692 688 986 801 875 b 503 400 801 510 688 400 l 142 400 l 142 6 b 136 0 142 1 140 0 l 126 0 b 121 6 122 0 121 1 l 121 981 b 126 986 121 985 122 986 m 501 419 b 781 692 675 419 781 521 b 501 967 781 864 675 967 l 142 967 l 142 419 "},"Q":{"ha":924,"x_min":0,"x_max":0,"o":"m 838 -60 b 838 -68 840 -62 840 -65 l 831 -74 b 822 -74 828 -76 825 -76 l 713 57 b 457 -19 650 6 565 -19 b 90 317 219 -19 90 106 l 90 669 b 457 1006 90 881 219 1006 b 821 669 692 1006 821 881 l 821 317 b 728 69 821 211 790 129 m 111 318 b 457 0 111 118 233 0 b 800 318 678 0 800 118 l 800 668 b 457 986 800 868 678 986 b 111 668 233 986 111 868 "},"R":{"ha":883,"x_min":0,"x_max":0,"o":"m 531 986 b 801 719 701 986 801 890 b 532 456 801 554 699 460 b 674 321 590 435 638 390 l 832 7 b 828 0 835 3 833 0 l 821 0 b 810 6 817 0 813 1 l 656 310 b 421 456 604 411 542 456 l 142 456 l 142 6 b 136 0 142 1 140 0 l 126 0 b 121 6 122 0 121 1 l 121 981 b 126 986 121 985 122 986 m 781 719 b 529 967 781 876 689 967 l 142 967 l 142 475 l 529 475 b 781 719 686 475 781 564 "},"S":{"ha":858,"x_min":0,"x_max":0,"o":"m 88 740 b 424 1006 88 906 214 1006 b 788 788 606 1006 711 939 b 785 779 790 783 789 781 l 778 776 b 769 778 774 775 771 776 b 424 985 697 922 596 985 b 108 742 228 985 108 893 b 257 542 115 626 161 572 b 447 504 324 519 364 514 b 550 492 490 500 525 496 b 640 468 575 488 606 479 b 721 425 675 456 701 442 b 790 253 758 392 790 332 b 435 -19 790 71 672 -19 b 64 229 250 -19 135 57 b 67 239 63 233 63 238 l 74 242 b 82 239 78 243 81 242 b 435 1 153 74 261 1 b 769 251 658 1 769 85 b 669 432 769 349 725 397 b 526 472 636 453 565 467 b 444 483 507 475 479 479 b 244 524 357 494 315 500 b 161 568 210 536 182 550 b 88 740 121 601 88 661 "},"T":{"ha":721,"x_min":0,"x_max":0,"o":"m 697 986 b 703 981 701 986 703 985 l 703 972 b 697 967 703 968 701 967 l 371 967 l 371 6 b 365 0 371 1 369 0 l 356 0 b 350 6 351 0 350 1 l 350 967 l 24 967 b 18 972 19 967 18 968 l 18 981 b 24 986 18 985 19 986 "},"U":{"ha":939,"x_min":0,"x_max":0,"o":"m 133 332 b 469 -1 133 125 247 -1 b 806 332 692 -1 806 125 l 806 981 b 811 986 806 985 807 986 l 821 986 b 826 981 825 986 826 985 l 826 332 b 469 -21 826 111 704 -21 b 113 332 235 -21 113 111 l 113 981 b 118 986 113 985 114 986 l 128 986 b 133 981 132 986 133 985 "},"V":{"ha":836,"x_min":0,"x_max":0,"o":"m 818 986 b 821 981 822 986 822 985 l 435 7 b 425 0 433 3 429 0 l 417 0 b 407 7 413 0 408 3 l 21 981 b 25 986 19 985 21 986 l 35 986 b 43 981 39 986 42 985 l 392 101 l 421 29 l 422 29 b 450 101 429 44 444 86 l 799 981 b 807 986 800 985 803 986 "},"W":{"ha":1192,"x_min":0,"x_max":0,"o":"m 1154 986 b 1158 981 1158 986 1160 985 l 889 7 b 879 0 888 3 885 0 l 871 0 b 861 7 865 0 863 3 l 631 810 b 599 924 625 831 604 904 l 597 924 l 564 810 l 333 7 b 324 0 332 3 329 0 l 315 0 b 306 7 310 0 307 3 l 36 981 b 40 986 35 985 36 986 l 50 986 b 58 981 54 986 57 985 l 290 143 l 319 33 l 321 33 l 351 142 l 585 953 b 593 958 586 957 589 958 l 603 958 b 611 953 607 958 610 957 l 844 139 l 875 33 l 876 33 b 903 138 882 57 897 115 l 1136 981 b 1144 986 1138 985 1140 986 "},"X":{"ha":825,"x_min":0,"x_max":0,"o":"m 808 10 b 807 0 813 3 813 0 l 794 0 b 785 6 790 0 788 1 l 419 485 l 54 6 b 44 0 51 1 49 0 l 32 0 b 31 10 26 0 26 3 l 406 500 l 39 981 b 43 986 38 985 39 986 l 56 986 b 65 981 60 986 63 985 l 419 517 l 774 981 b 783 986 776 985 779 986 l 796 986 b 800 981 800 986 801 985 l 433 500 "},"Y":{"ha":846,"x_min":0,"x_max":0,"o":"m 822 986 b 826 981 826 986 828 985 l 436 411 l 436 6 b 431 0 436 1 435 0 l 421 0 b 415 6 417 0 415 1 l 415 413 l 26 981 b 31 986 25 985 26 986 l 43 986 b 53 981 47 986 50 985 l 426 433 l 800 981 b 810 986 803 985 806 986 "},"Z":{"ha":753,"x_min":0,"x_max":0,"o":"m 692 986 b 697 981 696 986 697 985 l 697 975 b 694 964 697 971 696 967 l 68 21 l 711 21 b 717 15 715 21 717 19 l 717 6 b 711 0 717 1 715 0 l 49 0 b 43 6 44 0 43 1 l 43 13 b 47 26 43 18 44 22 l 671 967 l 54 967 b 49 972 50 967 49 968 l 49 981 b 54 986 49 985 50 986 "},"[":{"ha":332,"x_min":0,"x_max":0,"o":"m 313 1189 b 318 1183 317 1189 318 1188 l 318 1175 b 313 1169 318 1171 317 1169 l 122 1169 l 122 -183 l 313 -183 b 318 -189 317 -183 318 -185 l 318 -197 b 313 -203 318 -201 317 -203 l 107 -203 b 101 -197 103 -203 101 -201 l 101 1183 b 107 1189 101 1188 103 1189 "},"\\":{"ha":518,"x_min":0,"x_max":0,"o":"m 54 981 b 58 986 53 985 54 986 l 69 986 b 78 981 74 986 76 985 l 469 -78 b 465 -83 471 -82 469 -83 l 454 -83 b 446 -78 450 -83 447 -82 "},"]":{"ha":332,"x_min":0,"x_max":0,"o":"m 225 1189 b 231 1183 229 1189 231 1188 l 231 -197 b 225 -203 231 -201 229 -203 l 19 -203 b 14 -197 15 -203 14 -201 l 14 -189 b 19 -183 14 -185 15 -183 l 210 -183 l 210 1169 l 19 1169 b 14 1175 15 1169 14 1171 l 14 1183 b 19 1189 14 1188 15 1189 "},"^":{"ha":829,"x_min":0,"x_max":0,"o":"m 419 1125 b 428 1121 424 1125 426 1124 l 750 731 b 747 722 754 725 753 722 l 736 722 b 724 728 732 722 728 724 l 418 1100 l 415 1100 l 115 728 b 103 722 113 724 108 722 l 92 722 b 89 731 86 722 85 725 l 406 1121 b 414 1125 407 1124 410 1125 "},"_":{"ha":717,"x_min":0,"x_max":0,"o":"m 667 0 b 672 -6 671 0 672 -1 l 672 -14 b 667 -19 672 -18 671 -19 l 50 -19 b 44 -14 46 -19 44 -18 l 44 -6 b 50 0 44 -1 46 0 "},"`":{"ha":357,"x_min":0,"x_max":0,"o":"m 51 999 b 64 1000 56 1003 60 1003 l 311 842 b 313 833 315 839 315 836 l 307 828 b 297 826 304 825 301 825 l 49 985 b 47 994 44 988 43 990 "},"a":{"ha":701,"x_min":0,"x_max":0,"o":"m 83 581 b 351 728 135 679 224 728 b 561 647 453 728 526 700 b 610 464 596 594 610 540 l 610 96 b 560 17 610 47 599 33 b 351 -19 504 -7 435 -19 b 122 31 239 -19 163 -3 b 61 188 82 64 61 117 b 357 392 61 338 142 392 b 590 372 431 392 508 385 l 590 464 b 540 644 590 540 574 600 b 350 710 506 688 443 710 b 101 572 232 710 150 664 b 94 569 100 569 97 568 l 86 572 b 83 581 82 574 82 576 m 590 354 b 356 374 508 367 429 374 b 81 188 156 374 81 325 b 138 44 81 122 100 75 b 351 -1 175 14 246 -1 b 551 33 432 -1 499 10 b 590 96 585 49 590 56 "},"b":{"ha":738,"x_min":0,"x_max":0,"o":"m 115 1028 b 121 1022 119 1028 121 1026 l 121 664 b 399 728 206 707 299 728 b 657 464 571 728 657 640 l 657 256 b 374 -19 657 72 563 -19 b 157 19 292 -19 219 -7 b 101 96 113 38 101 51 l 101 1022 b 107 1028 101 1026 103 1028 m 638 464 b 399 710 638 628 558 710 b 121 643 303 710 210 688 l 121 96 b 164 38 121 61 125 54 b 374 -1 226 11 296 -1 b 638 256 550 -1 638 85 "},"c":{"ha":711,"x_min":0,"x_max":0,"o":"m 79 465 b 367 728 79 631 179 728 b 649 535 533 728 611 664 b 646 526 650 531 649 528 l 638 524 b 631 526 635 522 632 524 b 365 708 593 656 522 708 b 99 465 192 708 99 617 l 99 244 b 365 0 99 93 194 0 b 635 193 517 0 597 60 b 642 197 636 197 638 199 l 651 194 b 654 188 654 193 656 190 b 367 -19 615 49 528 -19 b 79 244 182 -19 79 79 "},"d":{"ha":738,"x_min":0,"x_max":0,"o":"m 81 464 b 339 728 81 640 167 728 b 617 665 440 728 533 707 l 617 1022 b 622 1028 617 1026 618 1028 l 631 1028 b 636 1022 635 1028 636 1026 l 636 96 b 581 19 636 51 625 38 b 364 -19 518 -7 446 -19 b 81 256 175 -19 81 72 m 617 643 b 339 710 538 688 446 710 b 100 464 179 710 100 628 l 100 256 b 364 -1 100 85 188 -1 b 574 38 442 -1 511 11 b 617 96 613 54 617 61 "},"e":{"ha":726,"x_min":0,"x_max":0,"o":"m 76 442 b 368 728 76 619 179 728 b 660 442 557 728 660 619 l 660 375 b 640 357 660 363 653 357 l 96 357 l 96 246 b 357 -1 96 92 185 -1 b 635 158 488 -1 581 51 b 643 161 638 163 640 163 l 650 157 b 651 150 653 156 653 154 b 357 -19 594 38 497 -19 b 76 246 174 -19 76 79 m 640 442 b 368 710 640 608 546 710 b 96 442 190 710 96 608 l 96 375 l 640 375 "},"f":{"ha":464,"x_min":0,"x_max":0,"o":"m 442 1028 b 447 1022 446 1028 447 1026 l 447 1014 b 442 1008 447 1010 446 1008 b 249 961 346 1008 282 993 b 199 767 215 929 199 864 l 199 708 l 446 708 b 451 703 450 708 451 707 l 451 696 b 446 690 451 692 450 690 l 199 690 l 199 6 b 193 0 199 1 197 0 l 185 0 b 179 6 181 0 179 1 l 179 690 l 11 690 b 6 696 7 690 6 692 l 6 703 b 11 708 6 707 7 708 l 179 708 l 179 767 b 235 972 179 868 197 936 b 433 1028 271 1008 338 1026 "},"g":{"ha":738,"x_min":0,"x_max":0,"o":"m 81 453 b 364 728 81 636 175 728 b 581 689 446 728 518 715 b 636 613 625 671 636 657 l 636 -62 b 356 -361 636 -261 543 -361 b 94 -194 233 -361 146 -306 b 97 -186 92 -190 93 -187 l 103 -183 b 111 -186 107 -182 110 -182 b 356 -342 160 -286 228 -342 b 617 -62 529 -342 617 -249 l 617 42 b 339 -19 535 1 443 -19 b 81 243 167 -19 81 68 m 574 671 b 364 710 511 697 442 710 b 100 453 188 710 100 624 l 100 243 b 339 -1 100 81 179 -1 b 617 64 447 -1 540 21 l 617 613 b 574 671 617 647 613 654 "},"h":{"ha":760,"x_min":0,"x_max":0,"o":"m 119 1028 b 125 1022 124 1028 125 1026 l 125 668 b 400 728 211 708 303 728 b 661 464 574 728 661 640 l 661 6 b 656 0 661 1 660 0 l 647 0 b 642 6 643 0 642 1 l 642 463 b 400 710 642 628 561 710 b 125 647 301 710 210 689 l 125 6 b 119 0 125 1 124 0 l 111 0 b 106 6 107 0 106 1 l 106 1022 b 111 1028 106 1026 107 1028 "},"i":{"ha":231,"x_min":0,"x_max":0,"o":"m 118 949 b 135 932 129 949 135 943 l 135 926 b 118 910 135 915 129 910 l 113 910 b 96 926 101 910 96 915 l 96 932 b 113 949 96 943 101 949 m 119 708 b 125 703 124 708 125 707 l 125 6 b 119 0 125 1 124 0 l 111 0 b 106 6 107 0 106 1 l 106 703 b 111 708 106 707 107 708 "},"j":{"ha":231,"x_min":0,"x_max":0,"o":"m 118 949 b 135 932 129 949 135 943 l 135 926 b 118 910 135 915 129 910 l 113 910 b 96 926 101 910 96 915 l 96 932 b 113 949 96 943 101 949 m 119 708 b 125 703 124 708 125 707 l 125 -14 b -132 -319 125 -221 61 -319 b -137 -314 -136 -319 -137 -318 l -137 -306 b -132 -300 -137 -301 -136 -300 b 106 -15 47 -300 106 -210 l 106 703 b 111 708 106 707 107 708 "},"k":{"ha":681,"x_min":0,"x_max":0,"o":"m 646 6 b 643 0 647 1 647 0 l 633 0 b 625 4 629 0 626 1 l 499 256 b 336 357 464 328 419 357 l 125 357 l 125 6 b 119 0 125 1 124 0 l 111 0 b 106 6 107 0 106 1 l 106 1022 b 111 1028 106 1026 107 1028 l 119 1028 b 125 1022 124 1028 125 1026 l 125 375 l 336 375 l 351 375 l 613 703 b 625 708 615 707 619 708 l 632 708 b 636 701 638 708 639 706 l 374 372 b 517 264 444 365 483 331 "},"l":{"ha":242,"x_min":0,"x_max":0,"o":"m 131 6 b 125 0 131 1 129 0 l 117 0 b 111 6 113 0 111 1 l 111 1022 b 117 1028 111 1026 113 1028 l 125 1028 b 131 1022 129 1028 131 1026 "},"m":{"ha":1121,"x_min":0,"x_max":0,"o":"m 529 654 b 656 710 550 669 569 685 b 788 728 699 722 742 728 b 1021 478 943 728 1021 644 l 1021 6 b 1015 0 1021 1 1019 0 l 1007 0 b 1001 6 1003 0 1001 1 l 1001 476 b 788 710 1001 638 936 710 b 540 639 692 710 608 686 b 581 478 567 600 581 546 l 581 6 b 575 0 581 1 579 0 l 567 0 b 561 6 563 0 561 1 l 561 476 b 340 710 561 636 490 710 b 157 669 269 710 208 696 b 121 608 133 657 121 638 l 121 6 b 115 0 121 1 119 0 l 107 0 b 101 6 103 0 101 1 l 101 608 b 153 688 101 649 114 667 b 340 728 208 714 271 728 b 529 654 428 728 490 703 "},"n":{"ha":756,"x_min":0,"x_max":0,"o":"m 153 683 b 396 728 226 713 307 728 b 657 464 569 728 657 640 l 657 6 b 651 0 657 1 656 0 l 643 0 b 638 6 639 0 638 1 l 638 463 b 396 710 638 628 557 710 b 157 665 306 710 226 694 b 121 608 125 650 121 638 l 121 6 b 115 0 121 1 119 0 l 107 0 b 101 6 103 0 101 1 l 101 608 b 153 683 101 649 113 665 "},"o":{"ha":743,"x_min":0,"x_max":0,"o":"m 82 497 b 371 728 82 638 199 728 b 661 497 547 728 661 640 l 661 211 b 371 -19 661 68 547 -19 b 82 211 199 -19 82 71 m 642 499 b 371 710 642 626 533 710 b 101 499 211 710 101 626 l 101 210 b 371 -1 101 82 211 -1 b 642 210 533 -1 642 82 "},"p":{"ha":738,"x_min":0,"x_max":0,"o":"m 157 689 b 374 728 219 715 292 728 b 657 453 563 728 657 636 l 657 243 b 399 -19 657 68 571 -19 b 121 54 297 -19 206 6 l 121 -300 b 115 -306 121 -304 119 -306 l 107 -306 b 101 -300 103 -306 101 -304 l 101 613 b 157 689 101 657 113 671 m 638 453 b 374 710 638 624 550 710 b 164 671 296 710 226 697 b 121 613 125 654 121 647 l 121 76 b 399 -1 204 25 297 -1 b 638 243 558 -1 638 81 "},"q":{"ha":738,"x_min":0,"x_max":0,"o":"m 364 728 b 581 689 446 728 518 715 b 636 613 625 671 636 657 l 636 -300 b 631 -306 636 -304 635 -306 l 622 -306 b 617 -300 618 -306 617 -304 l 617 54 b 339 -19 532 6 440 -19 b 81 243 167 -19 81 68 l 81 453 b 364 728 81 636 175 728 m 100 243 b 339 -1 100 81 179 -1 b 617 76 440 -1 533 25 l 617 613 b 574 671 617 647 613 654 b 364 710 511 697 442 710 b 100 453 188 710 100 624 "},"r":{"ha":460,"x_min":0,"x_max":0,"o":"m 396 728 l 438 728 b 443 722 442 728 443 726 l 443 715 b 438 710 443 711 442 710 l 396 710 b 157 665 306 710 226 694 b 121 608 125 650 121 638 l 121 6 b 115 0 121 1 119 0 l 107 0 b 101 6 103 0 101 1 l 101 608 b 153 683 101 649 113 665 b 396 728 226 713 307 728 "},"s":{"ha":678,"x_min":0,"x_max":0,"o":"m 81 538 b 338 728 81 660 169 728 b 607 575 479 728 569 676 b 606 567 608 571 608 568 l 600 564 b 592 567 596 563 593 563 b 338 710 554 661 483 710 b 100 538 179 710 100 653 b 126 436 100 493 114 458 b 199 386 139 413 179 394 b 301 365 214 379 286 367 b 361 360 311 364 332 363 b 539 318 440 353 486 344 b 617 172 592 292 617 244 b 350 -19 617 44 528 -19 b 60 158 201 -19 108 31 b 63 167 58 163 58 165 l 69 169 b 76 167 72 171 75 169 b 350 -1 117 54 208 -1 b 597 172 515 -1 597 57 b 526 304 597 238 575 281 b 360 342 476 326 438 335 b 315 346 336 343 321 344 b 275 351 310 347 296 349 b 235 357 254 353 240 356 b 165 381 222 361 176 369 b 96 451 139 396 106 418 b 81 538 83 474 81 504 "},"t":{"ha":453,"x_min":0,"x_max":0,"o":"m 193 875 b 199 869 197 875 199 874 l 199 708 l 444 708 b 450 703 449 708 450 707 l 450 696 b 444 690 450 692 449 690 l 199 690 l 199 240 b 249 47 199 143 215 79 b 442 0 282 15 346 0 b 447 -6 446 0 447 -1 l 447 -14 b 442 -19 447 -18 446 -19 b 236 35 342 -19 274 -1 b 179 240 199 69 179 139 l 179 690 l 8 690 b 3 696 4 690 3 692 l 3 703 b 8 708 3 707 4 708 l 179 708 l 179 869 b 185 875 179 874 181 875 "},"u":{"ha":756,"x_min":0,"x_max":0,"o":"m 649 708 b 654 703 653 708 654 707 l 654 100 b 603 25 654 60 643 43 b 360 -19 529 -4 449 -19 b 99 244 186 -19 99 68 l 99 703 b 104 708 99 707 100 708 l 113 708 b 118 703 117 708 118 707 l 118 246 b 360 -1 118 81 199 -1 b 599 43 450 -1 529 14 b 635 100 631 58 635 71 l 635 703 b 640 708 635 707 636 708 "},"v":{"ha":682,"x_min":0,"x_max":0,"o":"m 657 708 b 661 703 661 708 663 707 l 358 0 b 349 -7 356 -4 353 -7 l 343 -7 b 333 0 339 -7 336 -4 l 31 701 b 35 708 28 706 29 708 l 43 708 b 51 701 47 708 50 706 l 307 108 b 346 18 314 88 336 39 l 347 18 l 385 107 l 640 703 b 649 708 642 707 644 708 "},"w":{"ha":1010,"x_min":0,"x_max":0,"o":"m 972 708 b 976 701 976 708 978 706 l 750 -1 b 743 -8 749 -6 746 -8 l 733 -8 b 725 -1 729 -8 726 -6 l 538 558 b 507 649 528 585 517 615 l 506 649 b 475 558 496 615 485 585 l 289 -1 b 281 -8 288 -6 285 -8 l 271 -8 b 264 -1 268 -8 265 -6 l 39 701 b 43 708 38 706 39 708 l 51 708 b 60 701 56 708 58 706 l 239 140 l 276 25 l 278 25 l 317 143 l 494 675 b 503 681 496 679 499 681 l 511 681 b 518 675 515 681 517 679 l 694 150 l 736 25 l 738 25 l 776 147 l 956 703 b 964 708 957 707 960 708 "},"x":{"ha":646,"x_min":0,"x_max":0,"o":"m 606 708 b 608 704 610 708 611 707 l 339 363 l 625 4 b 622 0 626 1 626 0 l 607 0 b 600 4 606 0 603 1 l 326 350 l 51 4 b 43 0 49 1 46 0 l 31 0 b 28 4 26 0 26 1 l 314 365 l 42 704 b 46 708 40 707 42 708 l 58 708 b 67 704 63 708 65 707 l 326 378 l 585 704 b 593 708 588 707 590 708 "},"y":{"ha":760,"x_min":0,"x_max":0,"o":"m 649 708 b 654 703 653 708 654 707 l 654 -62 b 371 -361 654 -261 560 -361 b 107 -194 247 -361 158 -306 b 110 -186 104 -190 106 -187 l 115 -183 b 124 -186 119 -182 122 -182 b 371 -342 172 -290 256 -342 b 635 -62 547 -342 635 -249 l 635 38 b 360 -19 539 0 447 -19 b 99 244 186 -19 99 68 l 99 703 b 104 708 99 707 100 708 l 113 708 b 118 703 117 708 118 707 l 118 246 b 360 -1 118 81 199 -1 b 635 57 450 -1 542 18 l 635 703 b 640 708 635 707 636 708 "},"z":{"ha":608,"x_min":0,"x_max":0,"o":"m 561 18 b 565 13 564 18 565 17 l 565 6 b 561 0 565 1 564 0 l 49 0 b 43 6 44 0 43 1 l 43 13 b 47 22 43 15 44 18 l 536 690 l 53 690 b 49 696 50 690 49 692 l 49 703 b 53 708 49 707 50 708 l 554 708 b 560 703 558 708 560 707 l 560 696 b 556 685 560 692 558 689 l 68 18 "},"{":{"ha":401,"x_min":0,"x_max":0,"o":"m 385 1189 b 390 1183 389 1189 390 1188 l 390 1175 b 385 1169 390 1171 389 1169 l 326 1169 b 186 1018 225 1169 186 1122 l 186 654 b 97 493 186 567 157 513 b 186 332 157 474 186 419 l 186 -33 b 326 -185 186 -137 225 -185 l 385 -185 b 390 -190 389 -185 390 -186 l 390 -199 b 385 -204 390 -203 389 -204 l 326 -204 b 165 -33 211 -204 165 -151 l 165 332 b 25 483 165 436 126 483 l 8 483 b 3 489 4 483 3 485 l 3 497 b 8 503 3 501 4 503 l 25 503 b 165 654 126 503 165 550 l 165 1018 b 326 1189 165 1136 211 1189 "},"|":{"ha":221,"x_min":0,"x_max":0,"o":"m 114 1189 b 119 1183 118 1189 119 1188 l 119 -199 b 114 -204 119 -203 118 -204 l 107 -204 b 101 -199 103 -204 101 -203 l 101 1183 b 107 1189 101 1188 103 1189 "},"}":{"ha":401,"x_min":0,"x_max":0,"o":"m 75 1189 b 236 1018 190 1189 236 1136 l 236 654 b 376 503 236 550 275 503 l 393 503 b 399 497 397 503 399 501 l 399 489 b 393 483 399 485 397 483 l 376 483 b 236 332 275 483 236 436 l 236 -33 b 75 -204 236 -151 190 -204 l 17 -204 b 11 -199 13 -204 11 -203 l 11 -190 b 17 -185 11 -186 13 -185 l 75 -185 b 215 -33 176 -185 215 -137 l 215 332 b 304 493 215 419 244 474 b 215 654 244 513 215 567 l 215 1018 b 75 1169 215 1122 176 1169 l 17 1169 b 11 1175 13 1169 11 1171 l 11 1183 b 17 1189 11 1188 13 1189 "},"~":{"ha":785,"x_min":0,"x_max":0,"o":"m 104 418 b 263 488 156 464 208 488 b 401 454 300 488 347 476 b 533 421 456 432 499 421 b 679 485 585 421 633 442 b 688 485 682 488 685 488 l 693 479 b 693 471 696 476 696 474 b 533 401 642 425 589 401 b 396 435 496 401 450 413 b 263 468 342 457 297 468 b 118 404 214 468 165 447 b 110 404 115 401 113 401 l 104 410 b 104 418 101 413 101 415 "},"¡":{"ha":218,"x_min":0,"x_max":0,"o":"m 107 667 b 89 685 94 667 89 672 l 89 690 b 107 708 89 706 92 708 l 113 708 b 131 690 125 708 131 703 l 131 685 b 113 667 131 672 125 667 m 103 -325 b 97 -319 99 -325 97 -324 l 101 517 b 107 522 101 521 103 522 l 111 522 b 117 517 115 522 117 521 l 121 -319 b 115 -325 121 -324 119 -325 "},"¢":{"ha":739,"x_min":0,"x_max":0,"o":"m 657 194 b 660 188 660 193 661 190 b 381 -19 621 50 536 -18 l 381 -111 b 375 -117 381 -115 379 -117 l 365 -117 b 360 -111 361 -117 360 -115 l 360 -19 b 85 244 183 -15 85 83 l 85 465 b 360 728 85 626 181 724 l 360 842 b 365 847 360 846 361 847 l 375 847 b 381 842 379 847 381 846 l 381 728 b 654 535 542 726 617 663 b 651 526 656 531 654 528 l 643 524 b 636 526 640 522 638 524 b 371 708 599 656 528 708 b 104 465 197 708 104 617 l 104 244 b 371 0 104 93 200 0 b 640 193 522 0 603 60 b 647 197 642 197 643 199 "},"£":{"ha":865,"x_min":0,"x_max":0,"o":"m 215 768 b 489 1006 215 913 300 1006 b 781 788 638 1006 726 950 b 776 781 782 783 781 782 l 769 778 b 761 782 765 776 763 778 b 489 986 710 933 629 986 b 236 768 315 986 236 900 l 236 481 l 653 481 b 658 475 657 481 658 479 l 658 467 b 653 461 658 463 657 461 l 236 461 l 236 172 b 167 21 236 104 213 53 l 167 19 l 307 19 l 778 19 b 783 14 782 19 783 18 l 783 6 b 778 0 783 1 782 0 l 57 0 b 51 6 53 0 51 1 l 51 14 b 57 19 51 18 53 19 l 94 19 b 186 68 135 19 165 36 b 215 172 206 100 215 135 l 215 461 l 76 461 b 71 467 72 461 71 463 l 71 475 b 76 481 71 479 72 481 l 215 481 "},"¤":{"ha":815,"x_min":0,"x_max":0,"o":"m 722 171 b 722 163 725 168 725 165 l 717 157 b 708 157 714 154 711 154 l 626 239 b 408 151 565 181 493 151 b 194 235 326 151 256 179 l 113 153 b 104 153 110 150 107 150 l 99 158 b 99 167 96 161 96 164 l 181 249 b 93 467 122 310 93 382 b 178 682 93 549 121 621 l 96 764 b 96 772 93 767 93 769 l 101 778 b 110 778 104 781 107 781 l 192 696 b 408 782 254 753 326 782 b 622 699 490 782 561 754 l 704 781 b 713 781 707 783 710 783 l 718 775 b 718 767 721 772 721 769 l 636 685 b 724 467 694 624 724 551 b 640 253 724 385 696 314 m 617 675 b 408 760 560 732 490 760 b 200 675 326 760 257 732 b 115 468 143 618 115 550 b 201 260 115 386 144 317 b 408 172 258 201 326 172 b 617 260 490 172 560 201 b 701 468 674 317 701 386 b 617 675 701 550 674 618 "},"¥":{"ha":860,"x_min":0,"x_max":0,"o":"m 815 986 b 819 981 819 986 821 985 l 454 453 l 694 453 b 700 447 699 453 700 451 l 700 440 b 694 435 700 436 699 435 l 443 435 l 443 257 l 694 257 b 700 251 699 257 700 256 l 700 244 b 694 239 700 240 699 239 l 443 239 l 443 6 b 438 0 443 1 442 0 l 428 0 b 422 6 424 0 422 1 l 422 239 l 168 239 b 163 244 164 239 163 240 l 163 251 b 168 257 163 256 164 257 l 422 257 l 422 435 l 168 435 b 163 440 164 435 163 436 l 163 447 b 168 453 163 451 164 453 l 413 453 l 47 981 b 51 986 46 985 47 986 l 64 986 b 74 981 68 986 71 985 l 433 460 l 793 981 b 803 986 796 985 799 986 "},"¦":{"ha":235,"x_min":0,"x_max":0,"o":"m 121 1189 b 126 1183 125 1189 126 1188 l 126 604 b 121 599 126 600 125 599 l 114 599 b 108 604 110 599 108 600 l 108 1183 b 114 1189 108 1188 110 1189 m 121 388 b 126 382 125 388 126 386 l 126 -197 b 121 -203 126 -201 125 -203 l 114 -203 b 108 -197 110 -203 108 -201 l 108 382 b 114 388 108 386 110 388 "},"§":{"ha":811,"x_min":0,"x_max":0,"o":"m 89 788 b 394 1017 89 928 185 1017 b 732 771 565 1017 678 935 b 728 764 733 767 732 765 l 721 761 b 713 765 717 760 714 761 b 394 997 660 919 554 997 b 110 788 200 997 110 917 b 206 619 104 697 156 646 b 340 585 236 601 304 589 b 417 575 358 582 383 579 b 628 522 506 565 565 554 b 724 351 689 490 724 433 b 565 125 724 250 671 174 b 736 -83 672 97 736 39 b 415 -312 736 -222 628 -312 b 76 -67 244 -312 132 -231 b 81 -60 75 -62 76 -61 l 89 -57 b 96 -61 93 -56 94 -57 b 415 -293 149 -215 256 -293 b 715 -83 615 -293 715 -211 b 682 36 715 -32 699 8 b 592 97 664 64 618 86 b 468 122 568 107 492 119 b 400 129 453 124 431 126 b 221 163 324 136 282 142 b 149 200 190 172 167 185 b 85 353 114 229 85 282 b 151 514 85 421 111 479 b 260 579 190 549 222 567 b 89 788 146 608 89 678 m 414 556 b 296 571 360 561 321 567 b 190 521 267 564 239 553 b 106 353 140 489 106 429 b 235 179 111 256 151 204 b 403 149 293 161 329 156 b 533 132 463 143 506 138 b 628 190 560 143 582 156 b 703 351 672 224 703 283 b 611 510 703 428 671 481 b 414 556 550 538 497 549 "},"¨":{"ha":610,"x_min":0,"x_max":0,"o":"m 174 921 b 189 906 183 921 189 915 l 189 897 b 174 882 189 885 186 882 l 165 882 b 150 897 156 882 150 888 l 150 906 b 165 921 150 915 156 921 m 433 921 b 450 906 444 921 450 915 l 450 897 b 433 882 450 888 444 882 l 426 882 b 410 897 414 882 410 885 l 410 906 b 426 921 410 915 415 921 "},"©":{"ha":1133,"x_min":0,"x_max":0,"o":"m 69 488 b 214 843 69 629 118 747 b 568 986 310 939 428 986 b 921 843 708 986 825 939 b 1064 488 1017 747 1064 629 b 921 133 1064 347 1017 229 b 568 -11 825 38 708 -11 b 214 133 428 -11 310 38 b 69 488 118 229 69 347 m 1044 488 b 907 829 1044 624 999 738 b 568 967 815 921 703 967 b 228 829 433 967 319 921 b 89 488 135 738 89 624 b 228 147 89 353 135 239 b 568 8 319 54 433 8 b 907 147 703 8 815 54 b 1044 488 999 239 1044 353 m 340 567 b 561 769 340 694 418 769 b 778 621 689 769 750 721 b 776 614 779 617 778 615 l 767 611 b 760 613 763 610 761 611 b 560 750 732 713 681 750 b 361 567 428 750 361 689 l 361 394 b 560 211 361 278 428 211 b 763 357 676 211 735 256 b 771 360 764 360 767 361 l 778 358 b 782 351 782 357 783 356 b 561 192 753 244 679 192 b 340 394 421 192 340 268 "},"ª":{"ha":525,"x_min":0,"x_max":0,"o":"m 99 846 b 265 931 136 903 192 931 b 433 758 388 931 433 871 l 433 589 b 386 514 433 546 424 531 b 256 493 356 500 313 493 b 83 608 133 493 83 532 b 258 733 83 692 142 733 b 414 724 317 733 368 731 l 414 758 b 265 911 414 860 375 911 b 115 835 199 911 149 886 b 107 832 113 831 110 831 l 100 836 b 99 846 96 838 96 842 m 414 704 b 258 714 368 711 317 714 b 138 688 200 714 160 706 b 103 608 114 669 103 643 b 256 513 103 544 154 513 b 378 532 304 513 346 519 b 414 589 406 543 414 554 "},"«":{"ha":746,"x_min":0,"x_max":0,"o":"m 369 82 b 369 74 372 79 372 76 l 364 68 b 354 68 360 65 357 65 l 61 361 b 61 368 60 363 60 365 l 356 664 b 364 664 358 667 361 667 l 369 658 b 369 649 374 654 374 651 l 86 365 m 675 82 b 675 74 678 79 678 76 l 669 68 b 660 68 665 65 663 65 l 367 361 b 367 368 365 363 365 365 l 661 664 b 669 664 664 667 667 667 l 675 658 b 675 649 679 654 679 651 l 392 365 "},"¬":{"ha":794,"x_min":0,"x_max":0,"o":"m 693 507 b 699 501 697 507 699 506 l 699 200 b 693 194 699 196 697 194 l 683 194 b 678 200 679 194 678 196 l 678 488 l 111 488 b 106 493 107 488 106 489 l 106 501 b 111 507 106 506 107 507 "},"®":{"ha":689,"x_min":0,"x_max":0,"o":"m 156 526 b 75 717 101 579 75 643 b 156 907 75 790 101 854 b 346 986 208 960 272 986 b 535 907 419 986 482 960 b 614 717 588 854 614 790 b 536 526 614 643 588 579 b 346 447 483 474 419 447 b 156 526 272 447 208 474 m 168 894 b 94 717 119 846 94 786 b 168 539 94 647 119 588 b 347 464 217 489 276 464 b 524 539 415 464 475 489 b 597 717 572 588 597 647 b 524 894 597 786 572 846 b 347 968 475 943 415 968 b 168 894 276 968 217 943 m 378 863 b 475 771 439 863 475 828 b 404 685 475 721 451 692 l 465 578 b 461 571 468 574 467 571 l 454 571 b 444 575 450 571 446 572 l 385 682 l 253 682 l 253 575 b 247 571 253 572 251 571 l 238 571 b 233 575 235 571 233 572 l 233 851 b 244 863 233 858 238 863 m 253 700 l 378 700 b 456 771 429 700 456 724 b 378 844 456 817 426 844 l 253 844 "},"¯":{"ha":489,"x_min":0,"x_max":0,"o":"m 407 908 b 413 903 411 908 413 907 l 413 896 b 407 890 413 892 411 890 l 74 890 b 68 896 69 890 68 892 l 68 903 b 74 908 68 907 69 908 "},"°":{"ha":524,"x_min":0,"x_max":0,"o":"m 454 771 b 397 636 454 719 435 674 b 263 578 360 597 314 578 b 126 635 208 578 164 597 b 69 771 89 672 69 717 b 126 907 69 825 89 869 b 263 963 164 944 208 963 b 399 907 315 963 361 944 b 454 771 436 869 454 825 m 140 893 b 90 771 107 860 90 819 b 140 649 90 722 107 682 b 263 599 174 615 214 599 b 383 650 308 599 349 615 b 433 771 417 685 433 725 b 383 893 433 819 417 860 b 263 942 350 925 310 942 b 140 893 214 942 174 925 "},"±":{"ha":950,"x_min":0,"x_max":0,"o":"m 797 560 b 803 554 801 560 803 558 l 803 546 b 797 540 803 542 801 540 l 486 540 l 486 331 b 481 325 486 326 485 325 l 472 325 b 467 331 468 325 467 326 l 467 540 l 153 540 b 147 546 149 540 147 542 l 147 554 b 153 560 147 558 149 560 l 467 560 l 467 774 b 472 779 467 778 468 779 l 481 779 b 486 774 485 779 486 778 l 486 560 m 797 221 b 803 215 801 221 803 219 l 803 207 b 797 201 803 203 801 201 l 153 201 b 147 207 149 201 147 203 l 147 215 b 153 221 147 219 149 221 "},"²":{"ha":481,"x_min":0,"x_max":0,"o":"m 57 974 b 75 1031 58 983 58 993 b 107 1081 83 1049 94 1065 b 247 1136 132 1108 185 1136 b 426 979 363 1136 426 1074 b 411 913 426 953 418 929 b 369 871 404 896 381 879 b 314 843 358 863 325 847 b 253 822 303 839 263 826 l 165 789 b 74 650 104 765 74 718 l 74 592 l 417 592 b 424 586 421 592 424 590 l 424 579 b 417 574 424 575 421 574 l 65 574 b 56 583 58 574 56 576 l 56 650 b 160 806 56 728 90 779 l 247 839 b 314 864 258 843 301 858 b 369 894 325 868 358 883 b 407 979 389 914 407 938 b 247 1118 407 1063 351 1118 b 79 986 126 1118 86 1024 l 76 971 b 69 965 75 967 74 965 l 61 967 b 57 974 57 967 56 969 "},"³":{"ha":496,"x_min":0,"x_max":0,"o":"m 56 976 b 263 1136 85 1089 147 1136 b 428 982 367 1136 428 1075 b 353 856 428 919 403 878 b 443 717 413 829 443 783 b 261 563 443 622 379 563 b 53 719 143 563 82 614 b 56 728 51 724 53 726 l 65 731 b 72 725 69 732 71 729 b 261 581 101 621 151 581 b 424 717 367 581 424 635 b 308 846 424 789 376 846 l 192 846 b 186 851 188 846 186 847 l 186 858 b 192 864 186 863 188 864 l 307 864 b 408 982 375 864 408 917 b 263 1118 408 1064 353 1118 b 75 971 161 1118 103 1072 b 67 965 74 965 71 964 l 58 968 b 56 976 56 969 54 972 "},"´":{"ha":357,"x_min":0,"x_max":0,"o":"m 301 1000 b 314 999 306 1003 310 1003 l 318 994 b 317 985 322 990 321 988 l 68 826 b 58 828 64 825 61 825 l 53 833 b 54 842 50 836 50 839 "},"µ":{"ha":743,"x_min":0,"x_max":0,"o":"m 644 708 b 650 703 649 708 650 707 l 650 99 b 599 24 650 58 639 42 b 356 -21 525 -6 444 -21 b 113 124 229 -21 147 28 l 114 -300 b 108 -306 114 -304 113 -306 l 99 -306 b 94 -300 96 -306 94 -304 l 94 703 b 100 708 94 707 96 708 l 108 708 b 114 703 113 708 114 707 l 114 244 b 356 -3 114 79 194 -3 b 594 42 446 -3 525 13 b 631 99 626 57 631 69 l 631 703 b 636 708 631 707 632 708 "},"¶":{"ha":382,"x_min":0,"x_max":0,"o":"m 265 986 b 271 981 269 986 271 985 l 271 -118 b 265 -124 271 -122 269 -124 l 256 -124 b 250 -118 251 -124 250 -122 l 250 964 l 181 964 l 181 -118 b 175 -124 181 -122 179 -124 l 167 -124 b 161 -118 163 -124 161 -122 l 161 825 b 81 904 113 825 81 858 b 164 986 81 954 114 986 "},"·":{"ha":233,"x_min":0,"x_max":0,"o":"m 119 382 b 138 364 132 382 138 376 l 138 358 b 119 340 138 346 132 340 l 114 340 b 96 358 99 340 96 343 l 96 364 b 114 382 96 376 101 382 "},"¸":{"ha":349,"x_min":0,"x_max":0,"o":"m 147 -126 b 201 -119 163 -122 181 -119 b 322 -215 278 -119 322 -154 b 179 -342 322 -294 268 -342 b 57 -307 132 -342 92 -331 b 49 -292 51 -303 49 -299 l 49 -283 b 54 -281 49 -278 50 -276 b 179 -324 86 -310 128 -324 b 304 -215 257 -324 304 -283 b 196 -136 304 -162 268 -136 b 136 -146 172 -136 151 -139 b 126 -133 126 -150 122 -144 l 174 0 l 192 0 "},"¹":{"ha":385,"x_min":0,"x_max":0,"o":"m 290 1125 b 296 1119 294 1125 296 1124 l 296 579 b 290 574 296 575 294 574 l 282 574 b 276 579 278 574 276 575 l 276 1101 l 42 971 b 35 972 38 969 36 969 l 32 979 b 33 986 31 983 32 985 l 276 1122 b 286 1125 281 1124 283 1125 "},"º":{"ha":531,"x_min":0,"x_max":0,"o":"m 83 768 b 264 931 83 869 147 931 b 446 768 382 931 446 869 l 446 657 b 264 494 446 553 382 494 b 83 657 147 494 83 556 m 426 768 b 264 911 426 858 369 911 b 103 768 160 911 103 857 l 103 657 b 264 514 103 567 160 514 b 426 657 369 514 426 567 "},"»":{"ha":746,"x_min":0,"x_max":0,"o":"m 78 649 b 78 658 74 651 74 654 l 83 664 b 92 664 86 667 89 667 l 386 368 b 386 361 388 365 388 363 l 93 68 b 83 68 90 65 88 65 l 78 74 b 78 82 75 76 75 79 l 361 365 m 383 649 b 383 658 379 651 379 654 l 389 664 b 397 664 392 667 394 667 l 692 368 b 692 361 693 365 693 363 l 399 68 b 389 68 396 65 393 65 l 383 74 b 383 82 381 76 381 79 l 667 365 "},"¼":{"ha":1065,"x_min":0,"x_max":0,"o":"m 307 999 b 313 993 311 999 313 997 l 313 453 b 307 447 313 449 311 447 l 299 447 b 293 453 294 447 293 449 l 293 975 l 58 844 b 51 846 54 843 53 843 l 49 853 b 50 860 47 857 49 858 l 293 996 b 303 999 297 997 300 999 m 914 986 b 918 979 921 986 922 983 l 203 7 b 189 0 199 3 194 0 l 181 0 b 178 7 175 0 174 3 l 893 979 b 904 986 897 983 900 986 m 919 551 b 926 544 924 551 926 549 l 926 189 l 1014 189 b 1019 183 1018 189 1019 188 l 1019 178 b 1014 171 1019 174 1018 171 l 926 171 l 926 6 b 921 0 926 1 925 0 l 913 0 b 907 6 908 0 907 1 l 907 171 l 611 171 b 606 176 607 171 606 172 l 606 181 b 608 192 606 186 607 190 l 899 546 b 911 551 901 550 906 551 m 631 189 l 907 189 l 907 526 "},"½":{"ha":1175,"x_min":0,"x_max":0,"o":"m 306 999 b 311 993 310 999 311 997 l 311 453 b 306 447 311 449 310 447 l 297 447 b 292 453 293 447 292 449 l 292 975 l 57 844 b 50 846 53 843 51 843 l 47 853 b 49 860 46 857 47 858 l 292 996 b 301 999 296 997 299 999 m 918 986 b 922 979 925 986 926 983 l 207 7 b 193 0 203 3 199 0 l 185 0 b 182 7 179 0 178 3 l 897 979 b 908 986 901 983 904 986 m 743 400 b 761 457 744 410 744 419 b 793 507 769 475 781 492 b 933 563 818 535 871 563 b 1113 406 1049 563 1113 500 b 1097 339 1113 379 1104 356 b 1056 297 1090 322 1067 306 b 1000 269 1044 289 1011 274 b 939 249 989 265 949 253 l 851 215 b 760 76 790 192 760 146 l 760 18 l 1103 18 b 1110 13 1107 18 1110 17 l 1110 6 b 1103 0 1110 1 1107 0 l 751 0 b 742 10 744 0 742 3 l 742 76 b 846 232 742 154 776 206 l 933 265 b 1000 290 944 269 988 285 b 1056 321 1011 294 1044 310 b 1093 406 1075 340 1093 364 b 933 544 1093 489 1038 544 b 765 413 813 544 772 450 l 763 397 b 756 392 761 393 760 392 l 747 393 b 743 400 743 393 742 396 "},"¾":{"ha":1126,"x_min":0,"x_max":0,"o":"m 68 850 b 275 1010 97 963 160 1010 b 440 856 379 1010 440 949 b 365 729 440 793 415 751 b 456 590 425 703 456 657 b 274 436 456 496 392 436 b 65 593 156 436 94 488 b 68 601 64 597 65 600 l 78 604 b 85 599 82 606 83 603 b 274 454 114 494 164 454 b 436 590 379 454 436 508 b 321 719 436 663 389 719 l 204 719 b 199 725 200 719 199 721 l 199 732 b 204 738 199 736 200 738 l 319 738 b 421 856 388 738 421 790 b 275 992 421 938 365 992 b 88 844 174 992 115 946 b 79 839 86 839 83 838 l 71 842 b 68 850 68 843 67 846 m 979 986 b 983 979 986 986 988 983 l 268 7 b 254 0 264 3 260 0 l 246 0 b 243 7 240 0 239 3 l 958 979 b 969 986 963 983 965 986 m 981 551 b 988 544 985 551 988 549 l 988 189 l 1075 189 b 1081 183 1079 189 1081 188 l 1081 178 b 1075 171 1081 174 1079 171 l 988 171 l 988 6 b 982 0 988 1 986 0 l 974 0 b 968 6 969 0 968 1 l 968 171 l 672 171 b 667 176 668 171 667 172 l 667 181 b 669 192 667 186 668 190 l 960 546 b 972 551 963 550 967 551 m 968 189 l 968 526 l 692 189 "},"¿":{"ha":751,"x_min":0,"x_max":0,"o":"m 407 668 b 389 686 394 668 389 674 l 389 692 b 407 710 389 704 394 710 l 413 710 b 431 692 428 710 431 707 l 431 686 b 413 668 431 674 425 668 m 708 -94 b 368 -324 650 -247 536 -324 b 135 -243 269 -324 192 -297 b 47 -39 76 -189 47 -121 b 110 165 47 46 68 114 b 236 276 151 215 176 238 b 318 338 271 300 299 321 b 374 414 336 354 356 379 b 400 528 392 449 400 486 b 406 533 400 532 401 533 l 414 533 b 419 528 418 533 419 532 b 364 358 419 456 403 403 b 247 260 325 314 304 299 b 126 154 190 221 165 203 b 68 -39 86 106 68 43 b 149 -229 68 -115 94 -178 b 368 -304 203 -279 275 -304 b 689 -89 528 -304 635 -232 b 696 -85 690 -85 692 -83 l 706 -87 b 708 -94 708 -89 710 -90 "},"À":{"ha":864,"x_min":0,"x_max":0,"o":"m 301 1224 b 314 1225 306 1228 310 1228 l 567 1075 b 568 1067 571 1072 571 1069 l 563 1061 b 553 1060 560 1058 557 1058 l 299 1210 b 297 1219 294 1213 293 1215 m 849 6 b 843 0 850 1 849 0 l 836 0 b 826 6 831 0 828 1 l 681 363 l 189 363 l 43 6 b 33 0 42 1 39 0 l 26 0 b 21 6 21 0 19 1 l 421 988 b 431 994 422 992 426 994 l 439 994 b 449 988 443 994 447 992 m 440 953 b 435 969 440 957 435 963 l 433 969 l 429 953 l 196 382 l 674 382 "},"Á":{"ha":864,"x_min":0,"x_max":0,"o":"m 551 1238 b 564 1236 556 1240 560 1240 l 568 1232 b 567 1222 572 1228 571 1225 l 318 1064 b 308 1065 314 1063 311 1063 l 303 1071 b 304 1079 300 1074 300 1076 m 849 6 b 843 0 850 1 849 0 l 836 0 b 826 6 831 0 828 1 l 681 363 l 189 363 l 43 6 b 33 0 42 1 39 0 l 26 0 b 21 6 21 0 19 1 l 421 988 b 431 994 422 992 426 994 l 439 994 b 449 988 443 994 447 992 m 440 953 b 435 969 440 957 435 963 l 433 969 l 429 953 l 196 382 l 674 382 "},"Â":{"ha":864,"x_min":0,"x_max":0,"o":"m 436 1240 b 451 1233 440 1240 446 1238 l 653 1069 b 649 1064 657 1065 656 1064 l 638 1064 b 625 1068 633 1064 629 1065 l 435 1221 l 243 1068 b 232 1064 239 1065 236 1064 l 219 1064 b 215 1069 213 1064 211 1065 l 418 1233 b 432 1240 424 1238 428 1240 m 849 6 b 843 0 850 1 849 0 l 836 0 b 826 6 831 0 828 1 l 681 363 l 189 363 l 43 6 b 33 0 42 1 39 0 l 26 0 b 21 6 21 0 19 1 l 421 988 b 431 994 422 992 426 994 l 439 994 b 449 988 443 994 447 992 m 440 953 b 435 969 440 957 435 963 l 433 969 l 429 953 l 196 382 l 674 382 "},"Ã":{"ha":864,"x_min":0,"x_max":0,"o":"m 643 1204 b 649 1199 647 1204 649 1203 b 550 1078 649 1126 615 1078 b 432 1132 515 1078 476 1096 b 319 1186 386 1168 349 1186 b 239 1083 269 1186 239 1144 b 233 1078 239 1079 238 1078 l 225 1078 b 219 1083 221 1078 219 1079 b 319 1204 219 1156 257 1204 b 550 1096 407 1208 475 1092 b 629 1199 601 1096 629 1138 b 635 1204 629 1203 631 1204 m 849 6 b 843 0 850 1 849 0 l 836 0 b 826 6 831 0 828 1 l 681 363 l 189 363 l 43 6 b 33 0 42 1 39 0 l 26 0 b 21 6 21 0 19 1 l 421 988 b 431 994 422 992 426 994 l 439 994 b 449 988 443 994 447 992 m 440 953 b 435 969 440 957 435 963 l 433 969 l 429 953 l 196 382 l 674 382 "},"Ä":{"ha":864,"x_min":0,"x_max":0,"o":"m 308 1165 b 324 1150 318 1165 324 1160 l 324 1142 b 308 1126 324 1129 321 1126 l 300 1126 b 285 1142 290 1126 285 1132 l 285 1150 b 300 1165 285 1160 290 1165 m 568 1165 b 585 1150 579 1165 585 1160 l 585 1142 b 568 1126 585 1132 579 1126 l 561 1126 b 544 1142 549 1126 544 1129 l 544 1150 b 561 1165 544 1160 550 1165 m 849 6 b 843 0 850 1 849 0 l 836 0 b 826 6 831 0 828 1 l 681 363 l 189 363 l 43 6 b 33 0 42 1 39 0 l 26 0 b 21 6 21 0 19 1 l 421 988 b 431 994 422 992 426 994 l 439 994 b 449 988 443 994 447 992 m 440 953 b 435 969 440 957 435 963 l 433 969 l 429 953 l 196 382 l 674 382 "},"Å":{"ha":864,"x_min":0,"x_max":0,"o":"m 306 1103 b 436 1228 306 1181 354 1228 b 563 1103 515 1228 563 1181 b 453 978 563 1031 524 985 l 849 6 b 843 0 850 1 849 0 l 836 0 b 826 6 831 0 828 1 l 681 363 l 189 363 l 43 6 b 33 0 42 1 39 0 l 26 0 b 21 6 21 0 19 1 l 417 979 b 306 1103 346 986 306 1032 m 517 1024 b 546 1103 536 1043 546 1069 b 517 1182 546 1136 536 1163 b 436 1211 497 1201 471 1211 b 322 1103 365 1211 322 1169 b 436 994 322 1036 365 994 b 517 1024 471 994 497 1004 m 440 953 b 435 969 440 957 435 963 l 433 969 l 429 953 l 196 382 l 674 382 "},"Æ":{"ha":1113,"x_min":0,"x_max":0,"o":"m 1050 19 b 1056 14 1054 19 1056 18 l 1056 6 b 1050 0 1056 1 1054 0 l 599 0 b 593 6 594 0 593 1 l 593 281 l 186 281 l 21 6 b 11 0 18 1 15 0 l 3 0 b -3 6 -3 0 -4 1 l 583 979 b 593 986 586 983 589 986 l 1029 986 b 1035 981 1033 986 1035 985 l 1035 972 b 1029 967 1035 968 1033 967 l 614 967 l 614 508 l 971 508 b 976 503 975 508 976 507 l 976 494 b 971 489 976 490 975 489 l 614 489 l 614 19 m 593 956 l 199 300 l 593 300 "},"Ç":{"ha":878,"x_min":0,"x_max":0,"o":"m 815 243 b 819 235 819 242 821 239 b 450 -19 775 69 683 -15 l 411 -126 b 465 -119 426 -122 444 -119 b 586 -215 542 -119 586 -154 b 443 -342 586 -294 532 -342 b 321 -307 396 -342 356 -331 b 313 -292 315 -303 313 -299 l 313 -283 b 318 -281 313 -278 314 -276 b 443 -324 350 -310 392 -324 b 568 -215 521 -324 568 -283 b 460 -136 568 -162 532 -136 b 400 -146 436 -136 415 -139 b 390 -133 390 -150 386 -144 l 432 -19 b 90 317 214 -12 90 113 l 90 671 b 456 1006 90 882 218 1006 b 815 760 668 1006 769 926 b 811 751 817 756 815 753 l 804 750 b 796 753 800 749 797 749 b 456 986 750 915 656 986 b 113 672 232 986 113 868 l 113 315 b 456 0 113 119 235 0 b 800 242 660 0 751 75 b 808 246 801 246 804 247 "},"È":{"ha":786,"x_min":0,"x_max":0,"o":"m 281 1224 b 293 1225 285 1228 289 1228 l 546 1075 b 547 1067 550 1072 550 1069 l 542 1061 b 532 1060 539 1058 536 1058 l 278 1210 b 276 1219 274 1213 272 1215 m 700 986 b 706 981 704 986 706 985 l 706 972 b 700 967 706 968 704 967 l 142 967 l 142 510 l 642 510 b 647 504 646 510 647 508 l 647 496 b 642 490 647 492 646 490 l 142 490 l 142 19 l 721 19 b 726 14 725 19 726 18 l 726 6 b 721 0 726 1 725 0 l 126 0 b 121 6 122 0 121 1 l 121 981 b 126 986 121 985 122 986 "},"É":{"ha":786,"x_min":0,"x_max":0,"o":"m 531 1238 b 543 1236 535 1240 539 1240 l 547 1232 b 546 1222 551 1228 550 1225 l 297 1064 b 288 1065 293 1063 290 1063 l 282 1071 b 283 1079 279 1074 279 1076 m 700 986 b 706 981 704 986 706 985 l 706 972 b 700 967 706 968 704 967 l 142 967 l 142 510 l 642 510 b 647 504 646 510 647 508 l 647 496 b 642 490 647 492 646 490 l 142 490 l 142 19 l 721 19 b 726 14 725 19 726 18 l 726 6 b 721 0 726 1 725 0 l 126 0 b 121 6 122 0 121 1 l 121 981 b 126 986 121 985 122 986 "},"Ê":{"ha":786,"x_min":0,"x_max":0,"o":"m 415 1240 b 431 1233 419 1240 425 1238 l 632 1069 b 628 1064 636 1065 635 1064 l 617 1064 b 604 1068 613 1064 608 1065 l 414 1221 l 222 1068 b 211 1064 218 1065 214 1064 l 199 1064 b 194 1069 192 1064 190 1065 l 397 1233 b 411 1240 403 1238 407 1240 m 700 986 b 706 981 704 986 706 985 l 706 972 b 700 967 706 968 704 967 l 142 967 l 142 510 l 642 510 b 647 504 646 510 647 508 l 647 496 b 642 490 647 492 646 490 l 142 490 l 142 19 l 721 19 b 726 14 725 19 726 18 l 726 6 b 721 0 726 1 725 0 l 126 0 b 121 6 122 0 121 1 l 121 981 b 126 986 121 985 122 986 "},"Ë":{"ha":786,"x_min":0,"x_max":0,"o":"m 288 1165 b 303 1150 297 1165 303 1160 l 303 1142 b 288 1126 303 1129 300 1126 l 279 1126 b 264 1142 269 1126 264 1132 l 264 1150 b 279 1165 264 1160 269 1165 m 547 1165 b 564 1150 558 1165 564 1160 l 564 1142 b 547 1126 564 1132 558 1126 l 540 1126 b 524 1142 528 1126 524 1129 l 524 1150 b 540 1165 524 1160 529 1165 m 700 986 b 706 981 704 986 706 985 l 706 972 b 700 967 706 968 704 967 l 142 967 l 142 510 l 642 510 b 647 504 646 510 647 508 l 647 496 b 642 490 647 492 646 490 l 142 490 l 142 19 l 721 19 b 726 14 725 19 726 18 l 726 6 b 721 0 726 1 725 0 l 126 0 b 121 6 122 0 121 1 l 121 981 b 126 986 121 985 122 986 "},"Ì":{"ha":263,"x_min":0,"x_max":0,"o":"m 0 1224 b 13 1225 4 1228 8 1228 l 265 1075 b 267 1067 269 1072 269 1069 l 261 1061 b 251 1060 258 1058 256 1058 l -3 1210 b -4 1219 -7 1213 -8 1215 m 124 981 b 129 986 124 985 125 986 l 139 986 b 144 981 143 986 144 985 l 144 6 b 139 0 144 1 143 0 l 129 0 b 124 6 125 0 124 1 "},"Í":{"ha":263,"x_min":0,"x_max":0,"o":"m 251 1238 b 264 1236 256 1240 260 1240 l 268 1232 b 267 1222 272 1228 271 1225 l 18 1064 b 8 1065 14 1063 11 1063 l 3 1071 b 4 1079 0 1074 0 1076 m 125 981 b 131 986 125 985 126 986 l 140 986 b 146 981 144 986 146 985 l 146 6 b 140 0 146 1 144 0 l 131 0 b 125 6 126 0 125 1 "},"Î":{"ha":263,"x_min":0,"x_max":0,"o":"m 138 1240 b 153 1233 142 1240 147 1238 l 354 1069 b 350 1064 358 1065 357 1064 l 339 1064 b 326 1068 335 1064 331 1065 l 136 1221 l -56 1068 b -67 1064 -60 1065 -64 1064 l -79 1064 b -83 1069 -86 1064 -87 1065 l 119 1233 b 133 1240 125 1238 129 1240 m 126 981 b 132 986 126 985 128 986 l 142 986 b 147 981 146 986 147 985 l 147 6 b 142 0 147 1 146 0 l 132 0 b 126 6 128 0 126 1 "},"Ï":{"ha":263,"x_min":0,"x_max":0,"o":"m 4 1165 b 19 1150 14 1165 19 1160 l 19 1142 b 4 1126 19 1129 17 1126 l -4 1126 b -19 1142 -14 1126 -19 1132 l -19 1150 b -4 1165 -19 1160 -14 1165 m 264 1165 b 281 1150 275 1165 281 1160 l 281 1142 b 264 1126 281 1132 275 1126 l 257 1126 b 240 1142 244 1126 240 1129 l 240 1150 b 257 1165 240 1160 246 1165 m 121 981 b 126 986 121 985 122 986 l 136 986 b 142 981 140 986 142 985 l 142 6 b 136 0 142 1 140 0 l 126 0 b 121 6 122 0 121 1 "},"Ð":{"ha":896,"x_min":0,"x_max":0,"o":"m 410 986 b 813 619 665 986 813 847 l 813 367 b 410 0 813 139 665 0 l 136 0 b 131 6 132 0 131 1 l 131 482 l 7 482 b -1 489 1 482 -1 485 l -1 494 b 7 501 -1 499 1 501 l 131 501 l 131 981 b 136 986 131 985 132 986 m 792 619 b 410 967 792 838 654 967 l 151 967 l 151 501 l 450 501 b 457 494 454 501 457 499 l 457 489 b 450 482 457 485 454 482 l 151 482 l 151 19 l 410 19 b 792 367 654 19 792 149 "},"Ñ":{"ha":951,"x_min":0,"x_max":0,"o":"m 685 1204 b 690 1199 689 1204 690 1203 b 592 1078 690 1126 657 1078 b 474 1132 557 1078 518 1096 b 361 1186 428 1168 390 1186 b 281 1083 311 1186 281 1144 b 275 1078 281 1079 279 1078 l 267 1078 b 261 1083 263 1078 261 1079 b 361 1204 261 1156 299 1204 b 592 1096 449 1208 517 1092 b 671 1199 643 1096 671 1138 b 676 1204 671 1203 672 1204 m 825 986 b 831 981 829 986 831 985 l 831 6 b 825 0 831 1 829 0 l 817 0 b 807 6 813 0 810 1 l 254 788 l 143 947 l 142 947 l 142 738 l 142 6 b 136 0 142 1 140 0 l 126 0 b 121 6 122 0 121 1 l 121 981 b 126 986 121 985 122 986 l 135 986 l 143 982 l 679 224 l 810 40 l 811 40 l 811 160 b 810 278 810 213 810 251 l 810 982 b 815 986 810 985 811 986 "},"Ò":{"ha":911,"x_min":0,"x_max":0,"o":"m 324 1238 b 336 1239 328 1242 332 1242 l 589 1089 b 590 1081 593 1086 593 1083 l 585 1075 b 575 1074 582 1072 579 1072 l 321 1224 b 319 1233 317 1226 315 1229 m 90 669 b 457 1006 90 881 219 1006 b 821 669 692 1006 821 881 l 821 317 b 457 -19 821 106 692 -19 b 90 317 219 -19 90 106 m 800 668 b 457 986 800 868 678 986 b 111 668 233 986 111 868 l 111 318 b 457 0 111 118 233 0 b 800 318 678 0 800 118 "},"Ó":{"ha":911,"x_min":0,"x_max":0,"o":"m 574 1251 b 586 1250 578 1254 582 1254 l 590 1246 b 589 1236 594 1242 593 1239 l 340 1078 b 331 1079 336 1076 333 1076 l 325 1085 b 326 1093 322 1088 322 1090 m 90 669 b 457 1006 90 881 219 1006 b 821 669 692 1006 821 881 l 821 317 b 457 -19 821 106 692 -19 b 90 317 219 -19 90 106 m 800 668 b 457 986 800 868 678 986 b 111 668 233 986 111 868 l 111 318 b 457 0 111 118 233 0 b 800 318 678 0 800 118 "},"Ô":{"ha":911,"x_min":0,"x_max":0,"o":"m 458 1254 b 474 1247 463 1254 468 1251 l 675 1083 b 671 1078 679 1079 678 1078 l 660 1078 b 647 1082 656 1078 651 1079 l 457 1235 l 265 1082 b 254 1078 261 1079 258 1078 l 242 1078 b 238 1083 235 1078 233 1079 l 440 1247 b 454 1254 446 1251 450 1254 m 90 669 b 457 1006 90 881 219 1006 b 821 669 692 1006 821 881 l 821 317 b 457 -19 821 106 692 -19 b 90 317 219 -19 90 106 m 800 668 b 457 986 800 868 678 986 b 111 668 233 986 111 868 l 111 318 b 457 0 111 118 233 0 b 800 318 678 0 800 118 "},"Õ":{"ha":911,"x_min":0,"x_max":0,"o":"m 665 1218 b 671 1213 669 1218 671 1217 b 572 1092 671 1140 638 1092 b 454 1146 538 1092 499 1110 b 342 1200 408 1182 371 1200 b 261 1097 292 1200 261 1158 b 256 1092 261 1093 260 1092 l 247 1092 b 242 1097 243 1092 242 1093 b 342 1218 242 1169 279 1218 b 572 1110 429 1222 497 1106 b 651 1213 624 1110 651 1151 b 657 1218 651 1217 653 1218 m 90 669 b 457 1006 90 881 219 1006 b 821 669 692 1006 821 881 l 821 317 b 457 -19 821 106 692 -19 b 90 317 219 -19 90 106 m 800 668 b 457 986 800 868 678 986 b 111 668 233 986 111 868 l 111 318 b 457 0 111 118 233 0 b 800 318 678 0 800 118 "},"Ö":{"ha":911,"x_min":0,"x_max":0,"o":"m 331 1179 b 346 1164 340 1179 346 1174 l 346 1156 b 331 1140 346 1143 343 1140 l 322 1140 b 307 1156 313 1140 307 1146 l 307 1164 b 322 1179 307 1174 313 1179 m 590 1179 b 607 1164 601 1179 607 1174 l 607 1156 b 590 1140 607 1146 601 1140 l 583 1140 b 567 1156 571 1140 567 1143 l 567 1164 b 583 1179 567 1174 572 1179 m 90 669 b 457 1006 90 881 219 1006 b 821 669 692 1006 821 881 l 821 317 b 457 -19 821 106 692 -19 b 90 317 219 -19 90 106 m 800 668 b 457 986 800 868 678 986 b 111 668 233 986 111 868 l 111 318 b 457 0 111 118 233 0 b 800 318 678 0 800 118 "},"×":{"ha":696,"x_min":0,"x_max":0,"o":"m 604 213 b 604 203 608 210 608 207 l 600 199 b 590 199 597 196 594 196 l 351 436 l 114 199 b 104 199 111 196 108 196 l 100 203 b 100 213 97 207 97 210 l 338 450 l 100 689 b 100 699 97 693 97 696 l 104 703 b 114 703 108 707 111 707 l 351 464 l 590 703 b 600 703 594 707 597 707 l 604 699 b 604 689 608 696 608 693 l 365 450 "},"Ø":{"ha":911,"x_min":0,"x_max":0,"o":"m 822 1039 b 825 1035 826 1039 826 1038 l 740 903 b 821 669 794 844 821 767 l 821 317 b 457 -19 821 106 692 -19 b 200 57 347 -19 263 6 l 126 -58 b 117 -62 125 -61 121 -62 l 104 -62 b 101 -58 101 -62 100 -61 l 183 71 b 90 317 121 128 90 210 l 90 669 b 457 1006 90 881 219 1006 b 725 918 572 1006 663 976 l 800 1035 b 808 1039 801 1038 804 1039 m 714 900 b 457 986 654 957 568 986 b 111 668 233 986 111 868 l 111 318 b 196 89 111 219 139 143 m 211 75 b 457 0 271 25 353 0 b 800 318 678 0 800 118 l 800 668 b 729 883 800 758 776 831 "},"Ù":{"ha":939,"x_min":0,"x_max":0,"o":"m 336 1224 b 349 1225 340 1228 344 1228 l 601 1075 b 603 1067 606 1072 606 1069 l 597 1061 b 588 1060 594 1058 592 1058 l 333 1210 b 332 1219 329 1213 328 1215 m 133 332 b 469 -1 133 125 247 -1 b 806 332 692 -1 806 125 l 806 981 b 811 986 806 985 807 986 l 821 986 b 826 981 825 986 826 985 l 826 332 b 469 -21 826 111 704 -21 b 113 332 235 -21 113 111 l 113 981 b 118 986 113 985 114 986 l 128 986 b 133 981 132 986 133 985 "},"Ú":{"ha":939,"x_min":0,"x_max":0,"o":"m 586 1238 b 599 1236 590 1240 594 1240 l 603 1232 b 601 1222 607 1228 606 1225 l 353 1064 b 343 1065 349 1063 346 1063 l 338 1071 b 339 1079 335 1074 335 1076 m 133 332 b 469 -1 133 125 247 -1 b 806 332 692 -1 806 125 l 806 981 b 811 986 806 985 807 986 l 821 986 b 826 981 825 986 826 985 l 826 332 b 469 -21 826 111 704 -21 b 113 332 235 -21 113 111 l 113 981 b 118 986 113 985 114 986 l 128 986 b 133 981 132 986 133 985 "},"Û":{"ha":939,"x_min":0,"x_max":0,"o":"m 471 1240 b 486 1233 475 1240 481 1238 l 688 1069 b 683 1064 692 1065 690 1064 l 672 1064 b 660 1068 668 1064 664 1065 l 469 1221 l 278 1068 b 267 1064 274 1065 269 1064 l 254 1064 b 250 1069 247 1064 246 1065 l 453 1233 b 467 1240 458 1238 463 1240 m 133 332 b 469 -1 133 125 247 -1 b 806 332 692 -1 806 125 l 806 981 b 811 986 806 985 807 986 l 821 986 b 826 981 825 986 826 985 l 826 332 b 469 -21 826 111 704 -21 b 113 332 235 -21 113 111 l 113 981 b 118 986 113 985 114 986 l 128 986 b 133 981 132 986 133 985 "},"Ü":{"ha":939,"x_min":0,"x_max":0,"o":"m 343 1165 b 358 1150 353 1165 358 1160 l 358 1142 b 343 1126 358 1129 356 1126 l 335 1126 b 319 1142 325 1126 319 1132 l 319 1150 b 335 1165 319 1160 325 1165 m 603 1165 b 619 1150 614 1165 619 1160 l 619 1142 b 603 1126 619 1132 614 1126 l 596 1126 b 579 1142 583 1126 579 1129 l 579 1150 b 596 1165 579 1160 585 1165 m 133 332 b 469 -1 133 125 247 -1 b 806 332 692 -1 806 125 l 806 981 b 811 986 806 985 807 986 l 821 986 b 826 981 825 986 826 985 l 826 332 b 469 -21 826 111 704 -21 b 113 332 235 -21 113 111 l 113 981 b 118 986 113 985 114 986 l 128 986 b 133 981 132 986 133 985 "},"Ý":{"ha":846,"x_min":0,"x_max":0,"o":"m 543 1238 b 556 1236 547 1240 551 1240 l 560 1232 b 558 1222 564 1228 563 1225 l 310 1064 b 300 1065 306 1063 303 1063 l 294 1071 b 296 1079 292 1074 292 1076 m 822 986 b 826 981 826 986 828 985 l 436 411 l 436 6 b 431 0 436 1 435 0 l 421 0 b 415 6 417 0 415 1 l 415 413 l 26 981 b 31 986 25 985 26 986 l 43 986 b 53 981 47 986 50 985 l 426 433 l 800 981 b 810 986 803 985 806 986 "},"Þ":{"ha":847,"x_min":0,"x_max":0,"o":"m 489 807 b 801 499 679 807 801 689 b 489 193 801 310 679 193 l 142 193 l 142 6 b 136 0 142 1 140 0 l 126 0 b 121 6 122 0 121 1 l 121 981 b 126 986 121 985 122 986 l 136 986 b 142 981 140 986 142 985 l 142 807 m 488 213 b 781 499 667 213 781 321 b 488 788 781 678 667 788 l 142 788 l 142 213 "},"ß":{"ha":757,"x_min":0,"x_max":0,"o":"m 106 733 b 378 1042 106 926 200 1042 b 656 768 563 1042 656 950 b 506 538 656 672 607 571 l 506 536 b 690 282 624 507 690 414 b 417 0 690 94 599 0 l 260 0 b 254 6 256 0 254 1 l 254 13 b 260 18 254 17 256 18 l 417 18 b 671 282 582 18 671 108 b 432 526 671 432 582 526 l 267 526 b 261 532 263 526 261 528 l 261 539 b 267 544 261 543 263 544 l 432 544 b 619 671 528 544 596 607 b 636 768 631 703 636 735 b 378 1024 636 939 550 1024 b 125 733 215 1024 125 915 l 125 6 b 119 0 125 1 124 0 l 111 0 b 106 6 107 0 106 1 "},"à":{"ha":701,"x_min":0,"x_max":0,"o":"m 215 985 b 228 986 219 989 224 989 l 475 828 b 476 819 479 825 479 822 l 471 814 b 461 813 468 811 465 811 l 213 971 b 211 981 208 974 207 976 m 83 581 b 351 728 135 679 224 728 b 561 647 453 728 526 700 b 610 464 596 594 610 540 l 610 96 b 560 17 610 47 599 33 b 351 -19 504 -7 435 -19 b 122 31 239 -19 163 -3 b 61 188 82 64 61 117 b 357 392 61 338 142 392 b 590 372 431 392 508 385 l 590 464 b 540 644 590 540 574 600 b 350 710 506 688 443 710 b 101 572 232 710 150 664 b 94 569 100 569 97 568 l 86 572 b 83 581 82 574 82 576 m 590 354 b 356 374 508 367 429 374 b 81 188 156 374 81 325 b 138 44 81 122 100 75 b 351 -1 175 14 246 -1 b 551 33 432 -1 499 10 b 590 96 585 49 590 56 "},"á":{"ha":701,"x_min":0,"x_max":0,"o":"m 463 986 b 475 985 467 989 471 989 l 479 981 b 478 971 483 976 482 974 l 229 813 b 219 814 225 811 222 811 l 214 819 b 215 828 211 822 211 825 m 83 581 b 351 728 135 679 224 728 b 561 647 453 728 526 700 b 610 464 596 594 610 540 l 610 96 b 560 17 610 47 599 33 b 351 -19 504 -7 435 -19 b 122 31 239 -19 163 -3 b 61 188 82 64 61 117 b 357 392 61 338 142 392 b 590 372 431 392 508 385 l 590 464 b 540 644 590 540 574 600 b 350 710 506 688 443 710 b 101 572 232 710 150 664 b 94 569 100 569 97 568 l 86 572 b 83 581 82 574 82 576 m 590 354 b 356 374 508 367 429 374 b 81 188 156 374 81 325 b 138 44 81 122 100 75 b 351 -1 175 14 246 -1 b 551 33 432 -1 499 10 b 590 96 585 49 590 56 "},"â":{"ha":701,"x_min":0,"x_max":0,"o":"m 347 978 b 363 971 351 978 357 975 l 564 807 b 560 801 568 803 567 801 l 549 801 b 536 806 544 801 540 803 l 346 958 l 154 806 b 143 801 150 803 146 801 l 131 801 b 126 807 124 801 122 803 l 329 971 b 343 978 335 975 339 978 m 83 581 b 351 728 135 679 224 728 b 561 647 453 728 526 700 b 610 464 596 594 610 540 l 610 96 b 560 17 610 47 599 33 b 351 -19 504 -7 435 -19 b 122 31 239 -19 163 -3 b 61 188 82 64 61 117 b 357 392 61 338 142 392 b 590 372 431 392 508 385 l 590 464 b 540 644 590 540 574 600 b 350 710 506 688 443 710 b 101 572 232 710 150 664 b 94 569 100 569 97 568 l 86 572 b 83 581 82 574 82 576 m 590 354 b 356 374 508 367 429 374 b 81 188 156 374 81 325 b 138 44 81 122 100 75 b 351 -1 175 14 246 -1 b 551 33 432 -1 499 10 b 590 96 585 49 590 56 "},"ã":{"ha":701,"x_min":0,"x_max":0,"o":"m 554 953 b 560 947 558 953 560 951 b 461 826 560 875 526 826 b 343 881 426 826 388 844 b 231 935 297 917 260 935 b 150 832 181 935 150 893 b 144 826 150 828 149 826 l 136 826 b 131 832 132 826 131 828 b 231 953 131 904 168 953 b 461 844 318 957 386 840 b 540 947 513 844 540 886 b 546 953 540 951 542 953 m 83 581 b 351 728 135 679 224 728 b 561 647 453 728 526 700 b 610 464 596 594 610 540 l 610 96 b 560 17 610 47 599 33 b 351 -19 504 -7 435 -19 b 122 31 239 -19 163 -3 b 61 188 82 64 61 117 b 357 392 61 338 142 392 b 590 372 431 392 508 385 l 590 464 b 540 644 590 540 574 600 b 350 710 506 688 443 710 b 101 572 232 710 150 664 b 94 569 100 569 97 568 l 86 572 b 83 581 82 574 82 576 m 590 354 b 356 374 508 367 429 374 b 81 188 156 374 81 325 b 138 44 81 122 100 75 b 351 -1 175 14 246 -1 b 551 33 432 -1 499 10 b 590 96 585 49 590 56 "},"ä":{"ha":701,"x_min":0,"x_max":0,"o":"m 219 921 b 235 906 229 921 235 915 l 235 897 b 219 882 235 885 232 882 l 211 882 b 196 897 201 882 196 888 l 196 906 b 211 921 196 915 201 921 m 479 921 b 496 906 490 921 496 915 l 496 897 b 479 882 496 888 490 882 l 472 882 b 456 897 460 882 456 885 l 456 906 b 472 921 456 915 461 921 m 83 581 b 351 728 135 679 224 728 b 561 647 453 728 526 700 b 610 464 596 594 610 540 l 610 96 b 560 17 610 47 599 33 b 351 -19 504 -7 435 -19 b 122 31 239 -19 163 -3 b 61 188 82 64 61 117 b 357 392 61 338 142 392 b 590 372 431 392 508 385 l 590 464 b 540 644 590 540 574 600 b 350 710 506 688 443 710 b 101 572 232 710 150 664 b 94 569 100 569 97 568 l 86 572 b 83 581 82 574 82 576 m 590 354 b 356 374 508 367 429 374 b 81 188 156 374 81 325 b 138 44 81 122 100 75 b 351 -1 175 14 246 -1 b 551 33 432 -1 499 10 b 590 96 585 49 590 56 "},"å":{"ha":701,"x_min":0,"x_max":0,"o":"m 253 856 b 218 947 229 878 218 908 b 253 1039 218 986 229 1017 b 349 1072 276 1061 308 1072 b 475 947 428 1072 475 1025 b 349 822 475 869 428 822 b 253 856 308 822 276 833 m 429 868 b 458 947 449 888 458 914 b 429 1026 458 981 449 1007 b 349 1056 410 1046 383 1056 b 235 947 278 1056 235 1014 b 349 839 235 881 278 839 b 429 868 383 839 410 849 m 83 581 b 351 728 135 679 224 728 b 561 647 453 728 526 700 b 610 464 596 594 610 540 l 610 96 b 560 17 610 47 599 33 b 351 -19 504 -7 435 -19 b 122 31 239 -19 163 -3 b 61 188 82 64 61 117 b 357 392 61 338 142 392 b 590 372 431 392 508 385 l 590 464 b 540 644 590 540 574 600 b 350 710 506 688 443 710 b 101 572 232 710 150 664 b 94 569 100 569 97 568 l 86 572 b 83 581 82 574 82 576 m 590 354 b 356 374 508 367 429 374 b 81 188 156 374 81 325 b 138 44 81 122 100 75 b 351 -1 175 14 246 -1 b 551 33 432 -1 499 10 b 590 96 585 49 590 56 "},"æ":{"ha":1078,"x_min":0,"x_max":0,"o":"m 86 582 b 318 728 138 679 214 728 b 532 561 456 728 514 667 b 764 728 560 672 638 728 b 1010 444 928 728 1010 633 l 1010 375 b 990 357 1010 363 1003 357 l 539 357 l 539 243 b 758 -1 539 81 613 -1 b 897 36 821 -1 867 11 b 985 156 926 60 956 100 b 993 158 988 160 990 160 l 1000 154 b 1001 147 1003 153 1003 151 b 910 21 972 90 942 47 b 758 -19 878 -6 826 -19 b 544 97 650 -19 579 19 b 318 -19 513 19 436 -19 b 63 183 124 -19 63 43 b 324 389 63 333 133 389 b 519 369 386 389 451 382 l 519 467 b 486 636 519 540 513 586 b 317 710 460 685 404 710 b 104 574 222 710 151 664 b 97 571 103 571 100 569 l 89 574 b 86 582 85 575 85 578 m 990 444 b 764 710 990 615 925 710 b 539 444 603 710 539 617 l 539 375 l 990 375 m 519 351 b 322 371 449 364 382 371 b 82 183 144 371 82 321 b 318 -1 82 56 139 -1 b 489 51 400 -1 460 18 b 535 126 518 85 525 99 b 519 243 525 157 519 196 "},"ç":{"ha":710,"x_min":0,"x_max":0,"o":"m 651 194 b 654 188 654 193 656 190 b 374 -19 615 50 529 -18 l 335 -126 b 389 -119 350 -122 368 -119 b 510 -215 465 -119 510 -154 b 367 -342 510 -294 456 -342 b 244 -307 319 -342 279 -331 b 236 -292 239 -303 236 -299 l 236 -283 b 242 -281 236 -278 238 -276 b 367 -324 274 -310 315 -324 b 492 -215 444 -324 492 -283 b 383 -136 492 -162 456 -136 b 324 -146 360 -136 339 -139 b 314 -133 314 -150 310 -144 l 356 -19 b 79 244 178 -15 79 82 l 79 465 b 367 728 79 631 179 728 b 649 535 533 728 611 664 b 646 526 650 531 649 528 l 638 524 b 631 526 635 522 632 524 b 365 708 593 656 522 708 b 99 465 192 708 99 617 l 99 244 b 365 0 99 93 194 0 b 635 193 517 0 597 60 b 642 197 636 197 638 199 "},"è":{"ha":726,"x_min":0,"x_max":0,"o":"m 238 986 b 250 988 242 990 246 990 l 497 829 b 499 821 501 826 501 824 l 493 815 b 483 814 490 813 488 813 l 235 972 b 233 982 231 975 229 978 m 76 442 b 368 728 76 619 179 728 b 660 442 557 728 660 619 l 660 375 b 640 357 660 363 653 357 l 96 357 l 96 246 b 357 -1 96 92 185 -1 b 635 158 488 -1 581 51 b 643 161 638 163 640 163 l 650 157 b 651 150 653 156 653 154 b 357 -19 594 38 497 -19 b 76 246 174 -19 76 79 m 640 442 b 368 710 640 608 546 710 b 96 442 190 710 96 608 l 96 375 l 640 375 "},"é":{"ha":726,"x_min":0,"x_max":0,"o":"m 485 988 b 497 986 489 990 493 990 l 501 982 b 500 972 506 978 504 975 l 251 814 b 242 815 247 813 244 813 l 236 821 b 238 829 233 824 233 826 m 76 442 b 368 728 76 619 179 728 b 660 442 557 728 660 619 l 660 375 b 640 357 660 363 653 357 l 96 357 l 96 246 b 357 -1 96 92 185 -1 b 635 158 488 -1 581 51 b 643 161 638 163 640 163 l 650 157 b 651 150 653 156 653 154 b 357 -19 594 38 497 -19 b 76 246 174 -19 76 79 m 640 442 b 368 710 640 608 546 710 b 96 442 190 710 96 608 l 96 375 l 640 375 "},"ê":{"ha":726,"x_min":0,"x_max":0,"o":"m 369 974 b 385 967 374 974 379 971 l 582 806 b 578 800 586 801 585 800 l 567 800 b 554 804 563 800 558 801 l 368 954 l 181 804 b 169 800 176 801 172 800 l 157 800 b 154 806 151 800 150 801 l 351 967 b 365 974 357 971 361 974 m 76 442 b 368 728 76 619 179 728 b 660 442 557 728 660 619 l 660 375 b 640 357 660 363 653 357 l 96 357 l 96 246 b 357 -1 96 92 185 -1 b 635 158 488 -1 581 51 b 643 161 638 163 640 163 l 650 157 b 651 150 653 156 653 154 b 357 -19 594 38 497 -19 b 76 246 174 -19 76 79 m 640 442 b 368 710 640 608 546 710 b 96 442 190 710 96 608 l 96 375 l 640 375 "},"ë":{"ha":726,"x_min":0,"x_max":0,"o":"m 242 922 b 257 907 251 922 257 917 l 257 899 b 242 883 257 886 254 883 l 233 883 b 218 899 224 883 218 889 l 218 907 b 233 922 218 917 224 922 m 501 922 b 518 907 513 922 518 917 l 518 899 b 501 883 518 889 513 883 l 494 883 b 478 899 482 883 478 886 l 478 907 b 494 922 478 917 483 922 m 76 442 b 368 728 76 619 179 728 b 660 442 557 728 660 619 l 660 375 b 640 357 660 363 653 357 l 96 357 l 96 246 b 357 -1 96 92 185 -1 b 635 158 488 -1 581 51 b 643 161 638 163 640 163 l 650 157 b 651 150 653 156 653 154 b 357 -19 594 38 497 -19 b 76 246 174 -19 76 79 m 640 442 b 368 710 640 608 546 710 b 96 442 190 710 96 608 l 96 375 l 640 375 "},"ì":{"ha":228,"x_min":0,"x_max":0,"o":"m 24 976 b 35 979 26 981 31 981 l 225 828 b 228 818 229 825 231 822 l 224 814 b 214 814 222 810 218 810 l 22 963 b 19 972 17 964 15 968 m 125 708 b 131 703 129 708 131 707 l 131 6 b 125 0 131 1 129 0 l 117 0 b 111 6 113 0 111 1 l 111 703 b 117 708 111 707 113 708 "},"í":{"ha":228,"x_min":0,"x_max":0,"o":"m 206 979 b 217 976 210 981 214 981 l 221 972 b 218 963 225 968 224 964 l 26 813 b 17 813 22 810 18 810 l 13 817 b 15 826 10 821 11 824 m 122 708 b 128 703 126 708 128 707 l 128 6 b 122 0 128 1 126 0 l 114 0 b 108 6 110 0 108 1 l 108 703 b 114 708 108 707 110 708 "},"î":{"ha":228,"x_min":0,"x_max":0,"o":"m 276 819 b 272 814 281 815 279 814 l 264 814 b 251 818 257 814 253 815 l 117 958 l -18 818 b -29 814 -19 815 -24 814 l -40 814 b -44 819 -44 814 -46 815 l 101 969 b 114 976 106 974 110 976 l 118 976 b 132 969 122 976 128 974 m 121 708 b 126 703 125 708 126 707 l 126 6 b 121 0 126 1 125 0 l 113 0 b 107 6 108 0 107 1 l 107 703 b 113 708 107 707 108 708 "},"ï":{"ha":228,"x_min":0,"x_max":0,"o":"m 29 949 b 44 933 39 949 44 943 l 44 925 b 29 910 44 913 42 910 l 21 910 b 6 925 11 910 6 915 l 6 933 b 21 949 6 943 11 949 m 206 949 b 222 933 217 949 222 943 l 222 925 b 206 910 222 915 217 910 l 199 910 b 182 925 186 910 182 913 l 182 933 b 199 949 182 943 188 949 m 118 708 b 124 703 122 708 124 707 l 124 6 b 118 0 124 1 122 0 l 110 0 b 104 6 106 0 104 1 l 104 703 b 110 708 104 707 106 708 "},"ð":{"ha":761,"x_min":0,"x_max":0,"o":"m 613 1036 b 622 1036 615 1040 618 1040 l 626 1032 b 626 1022 629 1029 629 1026 l 536 931 b 664 558 621 856 664 732 l 664 236 b 372 -19 664 75 561 -19 b 79 236 179 -19 79 74 l 79 444 b 372 701 79 607 182 701 b 644 556 515 701 606 653 b 524 917 644 726 604 846 l 394 785 b 385 785 390 782 388 782 l 381 789 b 381 799 376 793 376 796 l 508 929 b 196 1010 436 983 332 1010 b 190 1015 192 1010 190 1011 l 190 1022 b 196 1028 190 1026 192 1028 b 521 943 338 1028 446 1000 m 644 446 b 372 683 644 596 549 683 b 99 444 194 683 99 594 l 99 236 b 372 -1 99 86 194 -1 b 644 236 549 -1 644 86 "},"ñ":{"ha":756,"x_min":0,"x_max":0,"o":"m 582 954 b 588 949 586 954 588 953 b 489 828 588 876 554 828 b 371 882 454 828 415 846 b 258 936 325 918 288 936 b 178 833 208 936 178 894 b 172 828 178 829 176 828 l 164 828 b 158 833 160 828 158 829 b 258 954 158 906 196 954 b 489 846 346 958 414 842 b 568 949 540 846 568 888 b 574 954 568 953 569 954 m 153 683 b 396 728 226 713 307 728 b 657 464 569 728 657 640 l 657 6 b 651 0 657 1 656 0 l 643 0 b 638 6 639 0 638 1 l 638 463 b 396 710 638 628 557 710 b 157 665 306 710 226 694 b 121 608 125 650 121 638 l 121 6 b 115 0 121 1 119 0 l 107 0 b 101 6 103 0 101 1 l 101 608 b 153 683 101 649 113 665 "},"ò":{"ha":743,"x_min":0,"x_max":0,"o":"m 240 985 b 253 986 244 989 249 989 l 500 828 b 501 819 504 825 504 822 l 496 814 b 486 813 493 811 490 811 l 238 971 b 236 981 233 974 232 976 m 82 497 b 371 728 82 638 199 728 b 661 497 547 728 661 640 l 661 211 b 371 -19 661 68 547 -19 b 82 211 199 -19 82 71 m 642 499 b 371 710 642 626 533 710 b 101 499 211 710 101 626 l 101 210 b 371 -1 101 82 211 -1 b 642 210 533 -1 642 82 "},"ó":{"ha":743,"x_min":0,"x_max":0,"o":"m 488 986 b 500 985 492 989 496 989 l 504 981 b 503 971 508 976 507 974 l 254 813 b 244 814 250 811 247 811 l 239 819 b 240 828 236 822 236 825 m 82 497 b 371 728 82 638 199 728 b 661 497 547 728 661 640 l 661 211 b 371 -19 661 68 547 -19 b 82 211 199 -19 82 71 m 642 499 b 371 710 642 626 533 710 b 101 499 211 710 101 626 l 101 210 b 371 -1 101 82 211 -1 b 642 210 533 -1 642 82 "},"ô":{"ha":743,"x_min":0,"x_max":0,"o":"m 372 972 b 388 965 376 972 382 969 l 585 804 b 581 799 589 800 588 799 l 569 799 b 557 803 565 799 561 800 l 371 953 l 183 803 b 172 799 179 800 176 799 l 160 799 b 157 804 154 799 153 800 l 354 965 b 368 972 360 969 364 972 m 82 497 b 371 728 82 638 199 728 b 661 497 547 728 661 640 l 661 211 b 371 -19 661 68 547 -19 b 82 211 199 -19 82 71 m 642 499 b 371 710 642 626 533 710 b 101 499 211 710 101 626 l 101 210 b 371 -1 101 82 211 -1 b 642 210 533 -1 642 82 "},"õ":{"ha":743,"x_min":0,"x_max":0,"o":"m 579 953 b 585 947 583 953 585 951 b 486 826 585 875 551 826 b 368 881 451 826 413 844 b 256 935 322 917 285 935 b 175 832 206 935 175 893 b 169 826 175 828 174 826 l 161 826 b 156 832 157 826 156 828 b 256 953 156 904 193 953 b 486 844 343 957 411 840 b 565 947 538 844 565 886 b 571 953 565 951 567 953 m 82 497 b 371 728 82 638 199 728 b 661 497 547 728 661 640 l 661 211 b 371 -19 661 68 547 -19 b 82 211 199 -19 82 71 m 642 499 b 371 710 642 626 533 710 b 101 499 211 710 101 626 l 101 210 b 371 -1 101 82 211 -1 b 642 210 533 -1 642 82 "},"ö":{"ha":743,"x_min":0,"x_max":0,"o":"m 244 921 b 260 906 254 921 260 915 l 260 897 b 244 882 260 885 257 882 l 236 882 b 221 897 226 882 221 888 l 221 906 b 236 921 221 915 226 921 m 504 921 b 521 906 515 921 521 915 l 521 897 b 504 882 521 888 515 882 l 497 882 b 481 897 485 882 481 885 l 481 906 b 497 921 481 915 486 921 m 82 497 b 371 728 82 638 199 728 b 661 497 547 728 661 640 l 661 211 b 371 -19 661 68 547 -19 b 82 211 199 -19 82 71 m 642 499 b 371 710 642 626 533 710 b 101 499 211 710 101 626 l 101 210 b 371 -1 101 82 211 -1 b 642 210 533 -1 642 82 "},"÷":{"ha":842,"x_min":0,"x_max":0,"o":"m 424 760 b 442 742 436 760 442 754 l 442 736 b 424 718 442 724 436 718 l 418 718 b 400 736 403 718 400 721 l 400 742 b 418 760 400 754 406 760 m 742 460 b 747 454 746 460 747 458 l 747 446 b 742 440 747 442 746 440 l 100 440 b 94 446 96 440 94 442 l 94 454 b 100 460 94 458 96 460 m 424 186 b 442 168 436 186 442 181 l 442 163 b 424 144 442 150 436 144 l 418 144 b 400 163 403 144 400 147 l 400 168 b 418 186 400 181 406 186 "},"ø":{"ha":743,"x_min":0,"x_max":0,"o":"m 642 767 b 643 763 643 767 644 765 l 582 665 b 661 497 635 625 661 568 l 661 211 b 371 -19 661 68 547 -19 b 179 31 294 -19 231 -3 l 132 -44 b 124 -49 129 -47 126 -49 l 110 -49 b 108 -44 108 -49 107 -46 l 163 42 b 82 211 108 83 82 140 l 82 497 b 371 728 82 638 199 728 b 565 678 450 728 514 711 l 621 764 b 628 767 622 765 625 767 m 556 661 b 371 710 506 693 444 710 b 101 499 211 710 101 626 l 101 210 b 174 58 101 147 125 96 m 189 47 b 371 -1 238 15 297 -1 b 642 210 533 -1 642 82 l 642 499 b 571 649 642 561 618 611 "},"ù":{"ha":756,"x_min":0,"x_max":0,"o":"m 246 985 b 258 986 250 989 254 989 l 506 828 b 507 819 510 825 510 822 l 501 814 b 492 813 499 811 496 811 l 243 971 b 242 981 239 974 238 976 m 649 708 b 654 703 653 708 654 707 l 654 100 b 603 25 654 60 643 43 b 360 -19 529 -4 449 -19 b 99 244 186 -19 99 68 l 99 703 b 104 708 99 707 100 708 l 113 708 b 118 703 117 708 118 707 l 118 246 b 360 -1 118 81 199 -1 b 599 43 450 -1 529 14 b 635 100 631 58 635 71 l 635 703 b 640 708 635 707 636 708 "},"ú":{"ha":756,"x_min":0,"x_max":0,"o":"m 493 986 b 506 985 497 989 501 989 l 510 981 b 508 971 514 976 513 974 l 260 813 b 250 814 256 811 253 811 l 244 819 b 246 828 242 822 242 825 m 649 708 b 654 703 653 708 654 707 l 654 100 b 603 25 654 60 643 43 b 360 -19 529 -4 449 -19 b 99 244 186 -19 99 68 l 99 703 b 104 708 99 707 100 708 l 113 708 b 118 703 117 708 118 707 l 118 246 b 360 -1 118 81 199 -1 b 599 43 450 -1 529 14 b 635 100 631 58 635 71 l 635 703 b 640 708 635 707 636 708 "},"û":{"ha":756,"x_min":0,"x_max":0,"o":"m 378 978 b 393 971 382 978 388 975 l 594 807 b 590 801 599 803 597 801 l 579 801 b 567 806 575 801 571 803 l 376 958 l 185 806 b 174 801 181 803 176 801 l 161 801 b 157 807 154 801 153 803 l 360 971 b 374 978 365 975 369 978 m 649 708 b 654 703 653 708 654 707 l 654 100 b 603 25 654 60 643 43 b 360 -19 529 -4 449 -19 b 99 244 186 -19 99 68 l 99 703 b 104 708 99 707 100 708 l 113 708 b 118 703 117 708 118 707 l 118 246 b 360 -1 118 81 199 -1 b 599 43 450 -1 529 14 b 635 100 631 58 635 71 l 635 703 b 640 708 635 707 636 708 "},"ü":{"ha":756,"x_min":0,"x_max":0,"o":"m 250 921 b 265 906 260 921 265 915 l 265 897 b 250 882 265 885 263 882 l 242 882 b 226 897 232 882 226 888 l 226 906 b 242 921 226 915 232 921 m 510 921 b 526 906 521 921 526 915 l 526 897 b 510 882 526 888 521 882 l 503 882 b 486 897 490 882 486 885 l 486 906 b 503 921 486 915 492 921 m 649 708 b 654 703 653 708 654 707 l 654 100 b 603 25 654 60 643 43 b 360 -19 529 -4 449 -19 b 99 244 186 -19 99 68 l 99 703 b 104 708 99 707 100 708 l 113 708 b 118 703 117 708 118 707 l 118 246 b 360 -1 118 81 199 -1 b 599 43 450 -1 529 14 b 635 100 631 58 635 71 l 635 703 b 640 708 635 707 636 708 "},"ý":{"ha":760,"x_min":0,"x_max":0,"o":"m 493 986 b 506 985 497 989 501 989 l 510 981 b 508 971 514 976 513 974 l 260 813 b 250 814 256 811 253 811 l 244 819 b 246 828 242 822 242 825 m 649 708 b 654 703 653 708 654 707 l 654 -62 b 371 -361 654 -261 560 -361 b 107 -194 247 -361 158 -306 b 110 -186 104 -190 106 -187 l 115 -183 b 124 -186 119 -182 122 -182 b 371 -342 172 -290 256 -342 b 635 -62 547 -342 635 -249 l 635 38 b 360 -19 539 0 447 -19 b 99 244 186 -19 99 68 l 99 703 b 104 708 99 707 100 708 l 113 708 b 118 703 117 708 118 707 l 118 246 b 360 -1 118 81 199 -1 b 635 57 450 -1 542 18 l 635 703 b 640 708 635 707 636 708 "},"þ":{"ha":742,"x_min":0,"x_max":0,"o":"m 106 1022 b 111 1028 106 1026 107 1028 l 119 1028 b 125 1022 124 1028 125 1026 l 125 653 b 378 715 196 694 279 715 b 661 440 567 715 661 624 l 661 242 b 403 -21 661 67 575 -21 b 125 53 301 -21 210 4 l 125 -300 b 119 -306 125 -304 124 -306 l 111 -306 b 106 -300 107 -306 106 -304 m 642 440 b 378 697 642 611 554 697 b 125 632 283 697 199 675 l 125 75 b 403 -3 208 24 301 -3 b 642 242 563 -3 642 79 "},"ÿ":{"ha":760,"x_min":0,"x_max":0,"o":"m 250 921 b 265 906 260 921 265 915 l 265 897 b 250 882 265 885 263 882 l 242 882 b 226 897 232 882 226 888 l 226 906 b 242 921 226 915 232 921 m 510 921 b 526 906 521 921 526 915 l 526 897 b 510 882 526 888 521 882 l 503 882 b 486 897 490 882 486 885 l 486 906 b 503 921 486 915 492 921 m 649 708 b 654 703 653 708 654 707 l 654 -62 b 371 -361 654 -261 560 -361 b 107 -194 247 -361 158 -306 b 110 -186 104 -190 106 -187 l 115 -183 b 124 -186 119 -182 122 -182 b 371 -342 172 -290 256 -342 b 635 -62 547 -342 635 -249 l 635 38 b 360 -19 539 0 447 -19 b 99 244 186 -19 99 68 l 99 703 b 104 708 99 707 100 708 l 113 708 b 118 703 117 708 118 707 l 118 246 b 360 -1 118 81 199 -1 b 635 57 450 -1 542 18 l 635 703 b 640 708 635 707 636 708 "},"Ā":{"ha":864,"x_min":0,"x_max":0,"o":"m 601 1149 b 607 1143 606 1149 607 1147 l 607 1136 b 601 1131 607 1132 606 1131 l 268 1131 b 263 1136 264 1131 263 1132 l 263 1143 b 268 1149 263 1147 264 1149 m 849 6 b 843 0 850 1 849 0 l 836 0 b 826 6 831 0 828 1 l 681 363 l 189 363 l 43 6 b 33 0 42 1 39 0 l 26 0 b 21 6 21 0 19 1 l 421 988 b 431 994 422 992 426 994 l 439 994 b 449 988 443 994 447 992 m 440 953 b 435 969 440 957 435 963 l 433 969 l 429 953 l 196 382 l 674 382 "},"ā":{"ha":701,"x_min":0,"x_max":0,"o":"m 513 894 b 518 889 517 894 518 893 l 518 882 b 513 876 518 878 517 876 l 179 876 b 174 882 175 876 174 878 l 174 889 b 179 894 174 893 175 894 m 83 581 b 351 728 135 679 224 728 b 561 647 453 728 526 700 b 610 464 596 594 610 540 l 610 96 b 560 17 610 47 599 33 b 351 -19 504 -7 435 -19 b 122 31 239 -19 163 -3 b 61 188 82 64 61 117 b 357 392 61 338 142 392 b 590 372 431 392 508 385 l 590 464 b 540 644 590 540 574 600 b 350 710 506 688 443 710 b 101 572 232 710 150 664 b 94 569 100 569 97 568 l 86 572 b 83 581 82 574 82 576 m 590 354 b 356 374 508 367 429 374 b 81 188 156 374 81 325 b 138 44 81 122 100 75 b 351 -1 175 14 246 -1 b 551 33 432 -1 499 10 b 590 96 585 49 590 56 "},"Ă":{"ha":864,"x_min":0,"x_max":0,"o":"m 640 1224 b 435 1064 611 1113 547 1064 b 229 1224 322 1064 258 1113 b 232 1231 228 1226 229 1229 l 242 1233 b 249 1229 246 1235 247 1233 b 435 1083 275 1128 331 1083 b 621 1229 539 1083 594 1128 b 628 1233 622 1233 624 1235 l 638 1231 b 640 1224 640 1229 642 1226 m 849 6 b 843 0 850 1 849 0 l 836 0 b 826 6 831 0 828 1 l 681 363 l 189 363 l 43 6 b 33 0 42 1 39 0 l 26 0 b 21 6 21 0 19 1 l 421 988 b 431 994 422 992 426 994 l 439 994 b 449 988 443 994 447 992 m 440 953 b 435 969 440 957 435 963 l 433 969 l 429 953 l 196 382 l 674 382 "},"ă":{"ha":701,"x_min":0,"x_max":0,"o":"m 551 969 b 346 810 522 858 458 810 b 140 969 233 810 169 858 b 143 976 139 972 140 975 l 153 979 b 160 975 157 981 158 979 b 346 829 186 874 242 829 b 532 975 450 829 506 874 b 539 979 533 979 535 981 l 549 976 b 551 969 551 975 553 972 m 83 581 b 351 728 135 679 224 728 b 561 647 453 728 526 700 b 610 464 596 594 610 540 l 610 96 b 560 17 610 47 599 33 b 351 -19 504 -7 435 -19 b 122 31 239 -19 163 -3 b 61 188 82 64 61 117 b 357 392 61 338 142 392 b 590 372 431 392 508 385 l 590 464 b 540 644 590 540 574 600 b 350 710 506 688 443 710 b 101 572 232 710 150 664 b 94 569 100 569 97 568 l 86 572 b 83 581 82 574 82 576 m 590 354 b 356 374 508 367 429 374 b 81 188 156 374 81 325 b 138 44 81 122 100 75 b 351 -1 175 14 246 -1 b 551 33 432 -1 499 10 b 590 96 585 49 590 56 "},"Ą":{"ha":863,"x_min":0,"x_max":0,"o":"m 439 994 b 449 988 443 994 447 992 l 846 13 b 844 -1 847 6 847 1 b 710 -147 785 -46 740 -94 b 683 -275 679 -199 671 -242 b 753 -325 696 -308 718 -325 b 864 -276 797 -325 835 -308 b 869 -278 867 -274 868 -274 l 872 -287 b 869 -296 874 -290 872 -293 b 751 -344 835 -328 796 -344 b 664 -286 714 -344 676 -321 b 829 8 635 -208 694 -90 b 822 15 826 8 824 11 l 675 376 l 194 376 l 43 6 b 33 0 42 1 39 0 l 26 0 b 21 6 21 0 19 1 l 421 988 b 431 994 422 992 426 994 m 544 700 l 436 967 l 435 967 l 326 700 l 203 396 l 667 396 "},"ą":{"ha":704,"x_min":0,"x_max":0,"o":"m 83 581 b 351 728 135 679 224 728 b 561 647 453 728 526 700 b 610 464 596 594 610 540 l 610 96 b 590 33 610 67 603 46 b 453 -128 531 -10 485 -64 b 425 -275 421 -190 411 -240 b 499 -324 438 -307 461 -324 b 606 -275 540 -324 576 -307 b 611 -276 608 -272 610 -272 l 614 -286 b 611 -294 615 -289 614 -292 b 494 -344 576 -328 538 -344 b 406 -286 449 -344 419 -325 b 419 -149 392 -251 396 -206 b 531 6 443 -92 479 -40 b 351 -19 481 -11 421 -19 b 122 31 239 -19 163 -3 b 61 188 82 64 61 117 b 357 392 61 338 142 392 b 590 372 431 392 508 385 l 590 464 b 540 644 590 540 574 600 b 350 710 506 688 443 710 b 101 572 232 710 150 664 b 94 569 100 569 97 568 l 86 572 b 83 581 82 574 82 576 m 590 354 b 356 374 508 367 429 374 b 81 188 156 374 81 325 b 138 44 81 122 100 75 b 351 -1 175 14 246 -1 b 551 33 432 -1 499 10 b 590 96 585 49 590 56 "},"Ć":{"ha":878,"x_min":0,"x_max":0,"o":"m 572 1238 b 585 1236 576 1240 581 1240 l 589 1232 b 588 1222 593 1228 592 1225 l 339 1064 b 329 1065 335 1063 332 1063 l 324 1071 b 325 1079 321 1074 321 1076 m 90 671 b 456 1006 90 882 218 1006 b 815 760 668 1006 769 926 b 811 751 817 756 815 753 l 804 750 b 796 753 800 749 797 749 b 456 986 750 915 656 986 b 113 672 232 986 113 868 l 113 315 b 456 0 113 119 235 0 b 800 242 660 0 751 75 b 808 246 801 246 804 247 l 815 243 b 819 235 819 242 821 239 b 456 -19 774 64 674 -19 b 90 317 222 -19 90 106 "},"ć":{"ha":711,"x_min":0,"x_max":0,"o":"m 483 986 b 496 985 488 989 492 989 l 500 981 b 499 971 504 976 503 974 l 250 813 b 240 814 246 811 243 811 l 235 819 b 236 828 232 822 232 825 m 79 465 b 367 728 79 631 179 728 b 649 535 533 728 611 664 b 646 526 650 531 649 528 l 638 524 b 631 526 635 522 632 524 b 365 708 593 656 522 708 b 99 465 192 708 99 617 l 99 244 b 365 0 99 93 194 0 b 635 193 517 0 597 60 b 642 197 636 197 638 199 l 651 194 b 654 188 654 193 656 190 b 367 -19 615 49 528 -19 b 79 244 182 -19 79 79 "},"Ĉ":{"ha":878,"x_min":0,"x_max":0,"o":"m 457 1240 b 472 1233 461 1240 467 1238 l 674 1069 b 669 1064 678 1065 676 1064 l 658 1064 b 646 1068 654 1064 650 1065 l 456 1221 l 264 1068 b 253 1064 260 1065 256 1064 l 240 1064 b 236 1069 233 1064 232 1065 l 439 1233 b 453 1240 444 1238 449 1240 m 90 671 b 456 1006 90 882 218 1006 b 815 760 668 1006 769 926 b 811 751 817 756 815 753 l 804 750 b 796 753 800 749 797 749 b 456 986 750 915 656 986 b 113 672 232 986 113 868 l 113 315 b 456 0 113 119 235 0 b 800 242 660 0 751 75 b 808 246 801 246 804 247 l 815 243 b 819 235 819 242 821 239 b 456 -19 774 64 674 -19 b 90 317 222 -19 90 106 "},"ĉ":{"ha":711,"x_min":0,"x_max":0,"o":"m 368 972 b 383 965 372 972 378 969 l 581 804 b 576 799 585 800 583 799 l 565 799 b 553 803 561 799 557 800 l 367 953 l 179 803 b 168 799 175 800 171 799 l 156 799 b 153 804 150 799 149 800 l 350 965 b 364 972 356 969 360 972 m 79 465 b 367 728 79 631 179 728 b 649 535 533 728 611 664 b 646 526 650 531 649 528 l 638 524 b 631 526 635 522 632 524 b 365 708 593 656 522 708 b 99 465 192 708 99 617 l 99 244 b 365 0 99 93 194 0 b 635 193 517 0 597 60 b 642 197 636 197 638 199 l 651 194 b 654 188 654 193 656 190 b 367 -19 615 49 528 -19 b 79 244 182 -19 79 79 "},"Ċ":{"ha":878,"x_min":0,"x_max":0,"o":"m 458 1158 b 475 1142 469 1158 475 1153 l 475 1136 b 458 1119 475 1125 469 1119 l 453 1119 b 436 1136 442 1119 436 1125 l 436 1142 b 453 1158 436 1153 442 1158 m 90 671 b 456 1006 90 882 218 1006 b 815 760 668 1006 769 926 b 811 751 817 756 815 753 l 804 750 b 796 753 800 749 797 749 b 456 986 750 915 656 986 b 113 672 232 986 113 868 l 113 315 b 456 0 113 119 235 0 b 800 242 660 0 751 75 b 808 246 801 246 804 247 l 815 243 b 819 235 819 242 821 239 b 456 -19 774 64 674 -19 b 90 317 222 -19 90 106 "},"ċ":{"ha":711,"x_min":0,"x_max":0,"o":"m 369 907 b 386 890 381 907 386 901 l 386 885 b 369 868 386 874 381 868 l 364 868 b 347 885 353 868 347 874 l 347 890 b 364 907 347 901 353 907 m 79 465 b 367 728 79 631 179 728 b 649 535 533 728 611 664 b 646 526 650 531 649 528 l 638 524 b 631 526 635 522 632 524 b 365 708 593 656 522 708 b 99 465 192 708 99 617 l 99 244 b 365 0 99 93 194 0 b 635 193 517 0 597 60 b 642 197 636 197 638 199 l 651 194 b 654 188 654 193 656 190 b 367 -19 615 49 528 -19 b 79 244 182 -19 79 79 "},"Č":{"ha":878,"x_min":0,"x_max":0,"o":"m 669 1242 b 672 1235 676 1242 676 1239 l 472 1072 b 457 1065 467 1068 461 1065 l 453 1065 b 439 1072 449 1065 444 1068 l 238 1235 b 240 1242 235 1238 236 1240 l 253 1242 b 264 1238 257 1242 260 1240 l 456 1085 l 646 1238 b 658 1242 650 1240 654 1242 m 90 671 b 456 1006 90 882 218 1006 b 815 760 668 1006 769 926 b 811 751 817 756 815 753 l 804 750 b 796 753 800 749 797 749 b 456 986 750 915 656 986 b 113 672 232 986 113 868 l 113 315 b 456 0 113 119 235 0 b 800 242 660 0 751 75 b 808 246 801 246 804 247 l 815 243 b 819 235 819 242 821 239 b 456 -19 774 64 674 -19 b 90 317 222 -19 90 106 "},"č":{"ha":711,"x_min":0,"x_max":0,"o":"m 563 957 b 565 951 568 957 569 956 l 382 801 b 368 794 376 797 372 794 l 364 794 b 351 801 360 794 356 797 l 165 953 b 167 957 163 956 163 957 l 181 957 b 192 954 185 957 189 956 l 367 813 l 540 954 b 553 957 543 956 547 957 m 79 465 b 367 728 79 631 179 728 b 649 535 533 728 611 664 b 646 526 650 531 649 528 l 638 524 b 631 526 635 522 632 524 b 365 708 593 656 522 708 b 99 465 192 708 99 617 l 99 244 b 365 0 99 93 194 0 b 635 193 517 0 597 60 b 642 197 636 197 638 199 l 651 194 b 654 188 654 193 656 190 b 367 -19 615 49 528 -19 b 79 244 182 -19 79 79 "},"Ď":{"ha":886,"x_min":0,"x_max":0,"o":"m 639 1242 b 642 1235 646 1242 646 1239 l 442 1072 b 426 1065 436 1068 431 1065 l 422 1065 b 408 1072 418 1065 414 1068 l 207 1235 b 210 1242 204 1238 206 1240 l 222 1242 b 233 1238 226 1242 229 1240 l 425 1085 l 615 1238 b 628 1242 619 1240 624 1242 m 400 986 b 803 619 656 986 803 847 l 803 367 b 400 0 803 139 656 0 l 126 0 b 121 6 122 0 121 1 l 121 981 b 126 986 121 985 122 986 m 782 619 b 400 967 782 838 644 967 l 142 967 l 142 19 l 400 19 b 782 367 644 19 782 149 "},"ď":{"ha":751,"x_min":0,"x_max":0,"o":"m 81 464 b 339 728 81 640 167 728 b 617 665 440 728 533 707 l 617 1022 b 622 1028 617 1026 618 1028 l 631 1028 b 636 1022 635 1028 636 1026 l 636 96 b 581 19 636 51 625 38 b 364 -19 518 -7 446 -19 b 81 256 175 -19 81 72 m 785 714 b 776 707 783 710 781 707 l 771 707 b 765 714 767 707 764 710 l 838 1022 b 844 1028 839 1026 840 1028 l 853 1028 b 858 1022 857 1028 860 1026 m 617 643 b 339 710 538 688 446 710 b 100 464 179 710 100 628 l 100 256 b 364 -1 100 85 188 -1 b 574 38 442 -1 511 11 b 617 96 613 54 617 61 "},"Đ":{"ha":896,"x_min":0,"x_max":0,"o":"m 410 986 b 813 619 665 986 813 847 l 813 367 b 410 0 813 139 665 0 l 136 0 b 131 6 132 0 131 1 l 131 482 l 7 482 b -1 489 1 482 -1 485 l -1 494 b 7 501 -1 499 1 501 l 131 501 l 131 981 b 136 986 131 985 132 986 m 792 619 b 410 967 792 838 654 967 l 151 967 l 151 501 l 450 501 b 457 494 454 501 457 499 l 457 489 b 450 482 457 485 454 482 l 151 482 l 151 19 l 410 19 b 792 367 654 19 792 149 "},"đ":{"ha":740,"x_min":0,"x_max":0,"o":"m 753 888 b 760 881 757 888 760 885 l 760 878 b 753 871 760 874 757 871 l 639 871 l 639 96 b 583 19 639 51 628 38 b 367 -19 521 -7 449 -19 b 83 256 178 -19 83 72 l 83 464 b 342 726 83 639 169 726 b 619 665 446 726 538 706 l 619 871 l 360 871 b 353 878 356 871 353 874 l 353 881 b 360 888 353 885 356 888 l 619 888 l 619 1022 b 625 1028 619 1026 621 1028 l 633 1028 b 639 1022 638 1028 639 1026 l 639 888 m 619 643 b 342 708 543 686 450 708 b 103 464 182 708 103 626 l 103 256 b 367 -1 103 85 190 -1 b 576 38 444 -1 514 11 b 619 96 615 54 619 61 "},"Ē":{"ha":786,"x_min":0,"x_max":0,"o":"m 581 1149 b 586 1143 585 1149 586 1147 l 586 1136 b 581 1131 586 1132 585 1131 l 247 1131 b 242 1136 243 1131 242 1132 l 242 1143 b 247 1149 242 1147 243 1149 m 700 986 b 706 981 704 986 706 985 l 706 972 b 700 967 706 968 704 967 l 142 967 l 142 510 l 642 510 b 647 504 646 510 647 508 l 647 496 b 642 490 647 492 646 490 l 142 490 l 142 19 l 721 19 b 726 14 725 19 726 18 l 726 6 b 721 0 726 1 725 0 l 126 0 b 121 6 122 0 121 1 l 121 981 b 126 986 121 985 122 986 "},"ē":{"ha":726,"x_min":0,"x_max":0,"o":"m 521 889 b 525 883 524 889 525 888 l 525 876 b 521 871 525 872 524 871 l 215 871 b 210 876 211 871 210 872 l 210 883 b 215 889 210 888 211 889 m 76 442 b 368 728 76 619 179 728 b 660 442 557 728 660 619 l 660 375 b 640 357 660 363 653 357 l 96 357 l 96 246 b 357 -1 96 92 185 -1 b 635 158 488 -1 581 51 b 643 161 638 163 640 163 l 650 157 b 651 150 653 156 653 154 b 357 -19 594 38 497 -19 b 76 246 174 -19 76 79 m 640 442 b 368 710 640 608 546 710 b 96 442 190 710 96 608 l 96 375 l 640 375 "},"Ĕ":{"ha":786,"x_min":0,"x_max":0,"o":"m 619 1224 b 414 1064 590 1113 526 1064 b 208 1224 301 1064 238 1113 b 211 1231 207 1226 208 1229 l 221 1233 b 228 1229 225 1235 226 1233 b 414 1083 254 1128 310 1083 b 600 1229 518 1083 574 1128 b 607 1233 601 1233 603 1235 l 617 1231 b 619 1224 619 1229 621 1226 m 700 986 b 706 981 704 986 706 985 l 706 972 b 700 967 706 968 704 967 l 142 967 l 142 510 l 642 510 b 647 504 646 510 647 508 l 647 496 b 642 490 647 492 646 490 l 142 490 l 142 19 l 721 19 b 726 14 725 19 726 18 l 726 6 b 721 0 726 1 725 0 l 126 0 b 121 6 122 0 121 1 l 121 981 b 126 986 121 985 122 986 "},"ĕ":{"ha":726,"x_min":0,"x_max":0,"o":"m 574 971 b 368 811 544 860 481 811 b 163 971 256 811 192 860 b 165 978 161 974 163 976 l 175 981 b 182 976 179 982 181 981 b 368 831 208 875 264 831 b 554 976 472 831 528 875 b 561 981 556 981 557 982 l 571 978 b 574 971 574 976 575 974 m 76 442 b 368 728 76 619 179 728 b 660 442 557 728 660 619 l 660 375 b 640 357 660 363 653 357 l 96 357 l 96 246 b 357 -1 96 92 185 -1 b 635 158 488 -1 581 51 b 643 161 638 163 640 163 l 650 157 b 651 150 653 156 653 154 b 357 -19 594 38 497 -19 b 76 246 174 -19 76 79 m 640 442 b 368 710 640 608 546 710 b 96 442 190 710 96 608 l 96 375 l 640 375 "},"Ė":{"ha":786,"x_min":0,"x_max":0,"o":"m 417 1158 b 433 1142 428 1158 433 1153 l 433 1136 b 417 1119 433 1125 428 1119 l 411 1119 b 394 1136 400 1119 394 1125 l 394 1142 b 411 1158 394 1153 400 1158 m 700 986 b 706 981 704 986 706 985 l 706 972 b 700 967 706 968 704 967 l 142 967 l 142 510 l 642 510 b 647 504 646 510 647 508 l 647 496 b 642 490 647 492 646 490 l 142 490 l 142 19 l 721 19 b 726 14 725 19 726 18 l 726 6 b 721 0 726 1 725 0 l 126 0 b 121 6 122 0 121 1 l 121 981 b 126 986 121 985 122 986 "},"ė":{"ha":726,"x_min":0,"x_max":0,"o":"m 371 908 b 388 892 382 908 388 903 l 388 886 b 371 869 388 875 382 869 l 365 869 b 349 886 354 869 349 875 l 349 892 b 365 908 349 903 354 908 m 76 442 b 368 728 76 619 179 728 b 660 442 557 728 660 619 l 660 375 b 640 357 660 363 653 357 l 96 357 l 96 246 b 357 -1 96 92 185 -1 b 635 158 488 -1 581 51 b 643 161 638 163 640 163 l 650 157 b 651 150 653 156 653 154 b 357 -19 594 38 497 -19 b 76 246 174 -19 76 79 m 640 442 b 368 710 640 608 546 710 b 96 442 190 710 96 608 l 96 375 l 640 375 "},"Ę":{"ha":786,"x_min":0,"x_max":0,"o":"m 700 986 b 706 981 704 986 706 985 l 706 972 b 700 967 706 968 704 967 l 142 967 l 142 508 l 642 508 b 647 503 646 508 647 507 l 647 494 b 642 489 647 490 646 489 l 142 489 l 142 19 l 721 19 b 726 14 725 19 726 18 l 726 6 b 725 1 726 4 726 3 b 546 -275 590 -99 519 -207 b 619 -324 558 -307 582 -324 b 726 -275 661 -324 697 -307 b 732 -276 729 -272 731 -272 l 735 -286 b 732 -294 736 -289 735 -292 b 615 -344 697 -328 658 -344 b 526 -286 569 -344 540 -325 b 696 0 497 -210 558 -101 l 126 0 b 121 6 122 0 121 1 l 121 981 b 126 986 121 985 122 986 "},"ę":{"ha":726,"x_min":0,"x_max":0,"o":"m 76 442 b 368 728 76 619 179 728 b 660 442 557 728 660 619 l 660 375 b 640 357 660 363 653 357 l 96 357 l 96 246 b 357 -1 96 92 185 -1 b 635 158 488 -1 581 51 b 643 161 638 163 640 163 l 650 157 b 651 150 653 156 653 154 b 579 53 632 111 608 79 b 449 -126 522 -1 479 -61 b 421 -275 417 -192 408 -240 b 496 -325 433 -308 458 -325 b 603 -275 536 -325 572 -308 b 608 -276 606 -272 607 -272 l 611 -286 b 608 -294 613 -289 611 -292 b 492 -344 574 -328 535 -344 b 403 -286 446 -344 417 -325 b 417 -153 390 -253 394 -208 b 519 14 438 -96 472 -40 b 357 -19 474 -8 419 -19 b 76 246 174 -19 76 79 m 640 442 b 368 710 640 608 546 710 b 96 442 190 710 96 608 l 96 375 l 640 375 "},"Ě":{"ha":786,"x_min":0,"x_max":0,"o":"m 628 1242 b 631 1235 635 1242 635 1239 l 431 1072 b 415 1065 425 1068 419 1065 l 411 1065 b 397 1072 407 1065 403 1068 l 196 1235 b 199 1242 193 1238 194 1240 l 211 1242 b 222 1238 215 1242 218 1240 l 414 1085 l 604 1238 b 617 1242 608 1240 613 1242 m 700 986 b 706 981 704 986 706 985 l 706 972 b 700 967 706 968 704 967 l 142 967 l 142 510 l 642 510 b 647 504 646 510 647 508 l 647 496 b 642 490 647 492 646 490 l 142 490 l 142 19 l 721 19 b 726 14 725 19 726 18 l 726 6 b 721 0 726 1 725 0 l 126 0 b 121 6 122 0 121 1 l 121 981 b 126 986 121 985 122 986 "},"ě":{"ha":726,"x_min":0,"x_max":0,"o":"m 564 958 b 567 953 569 958 571 957 l 383 803 b 369 796 378 799 374 796 l 365 796 b 353 803 361 796 357 799 l 167 954 b 168 958 164 957 164 958 l 182 958 b 193 956 186 958 190 957 l 368 814 l 542 956 b 554 958 544 957 549 958 m 76 442 b 368 728 76 619 179 728 b 660 442 557 728 660 619 l 660 375 b 640 357 660 363 653 357 l 96 357 l 96 246 b 357 -1 96 92 185 -1 b 635 158 488 -1 581 51 b 643 161 638 163 640 163 l 650 157 b 651 150 653 156 653 154 b 357 -19 594 38 497 -19 b 76 246 174 -19 76 79 m 640 442 b 368 710 640 608 546 710 b 96 442 190 710 96 608 l 96 375 l 640 375 "},"Ĝ":{"ha":899,"x_min":0,"x_max":0,"o":"m 457 1254 b 472 1247 461 1254 467 1251 l 674 1083 b 669 1078 678 1079 676 1078 l 658 1078 b 646 1082 654 1078 650 1079 l 456 1235 l 264 1082 b 253 1078 260 1079 256 1078 l 240 1078 b 236 1083 233 1078 232 1079 l 439 1247 b 453 1254 444 1251 449 1254 m 814 479 b 821 472 818 479 821 476 l 821 318 b 457 -19 821 107 692 -19 b 90 318 219 -19 90 107 l 90 671 b 456 1006 90 882 218 1006 b 815 760 668 1006 769 926 b 811 751 817 756 815 753 l 804 750 b 796 753 800 749 797 749 b 456 986 750 915 656 986 b 111 672 228 986 111 871 l 111 319 b 457 0 111 119 233 0 b 800 319 678 0 800 119 l 800 460 l 468 460 b 463 465 464 460 463 461 l 463 474 b 468 479 463 478 464 479 "},"ĝ":{"ha":738,"x_min":0,"x_max":0,"o":"m 379 972 b 394 965 383 972 389 969 l 592 804 b 588 799 596 800 594 799 l 576 799 b 564 803 572 799 568 800 l 378 953 l 190 803 b 179 799 186 800 182 799 l 167 799 b 164 804 161 799 160 800 l 361 965 b 375 972 367 969 371 972 m 81 453 b 364 728 81 636 175 728 b 581 689 446 728 518 715 b 636 613 625 671 636 657 l 636 -62 b 356 -361 636 -261 543 -361 b 94 -194 233 -361 146 -306 b 97 -186 92 -190 93 -187 l 103 -183 b 111 -186 107 -182 110 -182 b 356 -342 160 -286 228 -342 b 617 -62 529 -342 617 -249 l 617 42 b 339 -19 535 1 443 -19 b 81 243 167 -19 81 68 m 574 671 b 364 710 511 697 442 710 b 100 453 188 710 100 624 l 100 243 b 339 -1 100 81 179 -1 b 617 64 447 -1 540 21 l 617 613 b 574 671 617 647 613 654 "},"Ğ":{"ha":899,"x_min":0,"x_max":0,"o":"m 661 1238 b 456 1078 632 1126 568 1078 b 250 1238 343 1078 279 1126 b 253 1244 249 1240 250 1243 l 263 1247 b 269 1243 267 1249 268 1247 b 456 1097 296 1142 351 1097 b 642 1243 560 1097 615 1142 b 649 1247 643 1247 644 1249 l 658 1244 b 661 1238 661 1243 663 1240 m 814 479 b 821 472 818 479 821 476 l 821 318 b 457 -19 821 107 692 -19 b 90 318 219 -19 90 107 l 90 671 b 456 1006 90 882 218 1006 b 815 760 668 1006 769 926 b 811 751 817 756 815 753 l 804 750 b 796 753 800 749 797 749 b 456 986 750 915 656 986 b 111 672 228 986 111 871 l 111 319 b 457 0 111 119 233 0 b 800 319 678 0 800 119 l 800 460 l 468 460 b 463 465 464 460 463 461 l 463 474 b 468 479 463 478 464 479 "},"ğ":{"ha":738,"x_min":0,"x_max":0,"o":"m 583 969 b 378 810 554 858 490 810 b 172 969 265 810 201 858 b 175 976 171 972 172 975 l 185 979 b 192 975 189 981 190 979 b 378 829 218 874 274 829 b 564 975 482 829 538 874 b 571 979 565 979 567 981 l 581 976 b 583 969 583 975 585 972 m 81 453 b 364 728 81 636 175 728 b 581 689 446 728 518 715 b 636 613 625 671 636 657 l 636 -62 b 356 -361 636 -261 543 -361 b 94 -194 233 -361 146 -306 b 97 -186 92 -190 93 -187 l 103 -183 b 111 -186 107 -182 110 -182 b 356 -342 160 -286 228 -342 b 617 -62 529 -342 617 -249 l 617 42 b 339 -19 535 1 443 -19 b 81 243 167 -19 81 68 m 574 671 b 364 710 511 697 442 710 b 100 453 188 710 100 624 l 100 243 b 339 -1 100 81 179 -1 b 617 64 447 -1 540 21 l 617 613 b 574 671 617 647 613 654 "},"Ġ":{"ha":899,"x_min":0,"x_max":0,"o":"m 458 1172 b 475 1156 469 1172 475 1167 l 475 1150 b 458 1133 475 1139 469 1133 l 453 1133 b 436 1150 442 1133 436 1139 l 436 1156 b 453 1172 436 1167 442 1172 m 814 479 b 821 472 818 479 821 476 l 821 318 b 457 -19 821 107 692 -19 b 90 318 219 -19 90 107 l 90 671 b 456 1006 90 882 218 1006 b 815 760 668 1006 769 926 b 811 751 817 756 815 753 l 804 750 b 796 753 800 749 797 749 b 456 986 750 915 656 986 b 111 672 228 986 111 871 l 111 319 b 457 0 111 119 233 0 b 800 319 678 0 800 119 l 800 460 l 468 460 b 463 465 464 460 463 461 l 463 474 b 468 479 463 478 464 479 "},"ġ":{"ha":738,"x_min":0,"x_max":0,"o":"m 381 907 b 397 890 392 907 397 901 l 397 885 b 381 868 397 874 392 868 l 375 868 b 358 885 364 868 358 874 l 358 890 b 375 907 358 901 364 907 m 81 453 b 364 728 81 636 175 728 b 581 689 446 728 518 715 b 636 613 625 671 636 657 l 636 -62 b 356 -361 636 -261 543 -361 b 94 -194 233 -361 146 -306 b 97 -186 92 -190 93 -187 l 103 -183 b 111 -186 107 -182 110 -182 b 356 -342 160 -286 228 -342 b 617 -62 529 -342 617 -249 l 617 42 b 339 -19 535 1 443 -19 b 81 243 167 -19 81 68 m 574 671 b 364 710 511 697 442 710 b 100 453 188 710 100 624 l 100 243 b 339 -1 100 81 179 -1 b 617 64 447 -1 540 21 l 617 613 b 574 671 617 647 613 654 "},"Ģ":{"ha":899,"x_min":0,"x_max":0,"o":"m 814 479 b 821 472 818 479 821 476 l 821 318 b 457 -19 821 107 692 -19 b 90 318 219 -19 90 107 l 90 671 b 456 1006 90 882 218 1006 b 815 760 668 1006 769 926 b 811 751 817 756 815 753 l 804 750 b 796 753 800 749 797 749 b 456 986 750 915 656 986 b 111 672 228 986 111 871 l 111 319 b 457 0 111 119 233 0 b 800 319 678 0 800 119 l 800 460 l 468 460 b 463 465 464 460 463 461 l 463 474 b 468 479 463 478 464 479 m 431 -328 b 422 -335 429 -332 426 -335 l 417 -335 b 411 -328 413 -335 410 -332 l 476 -124 b 485 -118 478 -119 481 -118 l 492 -118 b 497 -125 496 -118 499 -121 "},"ģ":{"ha":738,"x_min":0,"x_max":0,"o":"m 421 1007 b 429 1014 424 1011 426 1014 l 435 1014 b 440 1007 442 1014 443 1011 l 361 807 b 353 801 360 803 357 801 l 346 801 b 340 808 339 801 338 804 m 81 453 b 364 728 81 636 175 728 b 581 689 446 728 518 715 b 636 613 625 671 636 657 l 636 -62 b 356 -361 636 -261 543 -361 b 94 -194 233 -361 146 -306 b 97 -186 92 -190 93 -187 l 103 -183 b 111 -186 107 -182 110 -182 b 356 -342 160 -286 228 -342 b 617 -62 529 -342 617 -249 l 617 42 b 339 -19 535 1 443 -19 b 81 243 167 -19 81 68 m 574 671 b 364 710 511 697 442 710 b 100 453 188 710 100 624 l 100 243 b 339 -1 100 81 179 -1 b 617 64 447 -1 540 21 l 617 613 b 574 671 617 647 613 654 "},"Ĥ":{"ha":939,"x_min":0,"x_max":0,"o":"m 471 1240 b 486 1233 475 1240 481 1238 l 688 1069 b 683 1064 692 1065 690 1064 l 672 1064 b 660 1068 668 1064 664 1065 l 469 1221 l 278 1068 b 267 1064 274 1065 269 1064 l 254 1064 b 250 1069 247 1064 246 1065 l 453 1233 b 467 1240 458 1238 463 1240 m 813 986 b 818 981 817 986 818 985 l 818 6 b 813 0 818 1 817 0 l 803 0 b 797 6 799 0 797 1 l 797 490 l 142 490 l 142 6 b 136 0 142 1 140 0 l 126 0 b 121 6 122 0 121 1 l 121 981 b 126 986 121 985 122 986 l 136 986 b 142 981 140 986 142 985 l 142 510 l 797 510 l 797 981 b 803 986 797 985 799 986 "},"ĥ":{"ha":760,"x_min":0,"x_max":0,"o":"m 122 1265 b 136 1258 126 1265 132 1263 l 331 1101 b 326 1096 332 1097 331 1096 l 315 1096 b 303 1100 311 1096 307 1097 l 121 1247 l -64 1100 b -74 1096 -68 1097 -72 1096 l -86 1096 b -90 1101 -93 1096 -94 1097 l 104 1258 b 118 1265 110 1263 114 1265 m 125 1028 b 131 1022 129 1028 131 1026 l 131 668 b 406 728 217 708 308 728 b 667 464 579 728 667 640 l 667 6 b 661 0 667 1 665 0 l 653 0 b 647 6 649 0 647 1 l 647 463 b 406 710 647 628 567 710 b 131 647 307 710 215 689 l 131 6 b 125 0 131 1 129 0 l 117 0 b 111 6 113 0 111 1 l 111 1022 b 117 1028 111 1026 113 1028 "},"Ħ":{"ha":944,"x_min":0,"x_max":0,"o":"m 926 797 b 933 790 931 797 933 794 l 933 786 b 926 778 933 781 931 778 l 821 778 l 821 6 b 815 0 821 1 819 0 l 806 0 b 800 6 801 0 800 1 l 800 490 l 144 490 l 144 6 b 139 0 144 1 143 0 l 129 0 b 124 6 125 0 124 1 l 124 778 l 19 778 b 13 786 15 778 13 781 l 13 790 b 19 797 13 794 15 797 l 124 797 l 124 981 b 129 986 124 985 125 986 l 139 986 b 144 981 143 986 144 985 l 144 797 l 800 797 l 800 981 b 806 986 800 985 801 986 l 815 986 b 821 981 819 986 821 985 l 821 797 m 144 778 l 144 510 l 800 510 l 800 778 "},"ħ":{"ha":758,"x_min":0,"x_max":0,"o":"m 124 668 b 399 728 210 708 301 728 b 660 464 572 728 660 640 l 660 6 b 654 0 660 1 658 0 l 646 0 b 640 6 642 0 640 1 l 640 463 b 399 710 640 628 560 710 b 124 647 300 710 208 689 l 124 6 b 118 0 124 1 122 0 l 110 0 b 104 6 106 0 104 1 l 104 879 l 3 879 b -4 888 -1 879 -4 882 l -4 890 b 3 897 -4 894 -1 897 l 104 897 l 104 1022 b 110 1028 104 1026 106 1028 l 118 1028 b 124 1022 122 1028 124 1026 l 124 897 l 375 897 b 382 890 379 897 382 894 l 382 888 b 375 879 382 882 379 879 l 124 879 "},"Ĩ":{"ha":263,"x_min":0,"x_max":0,"o":"m 339 1204 b 344 1199 343 1204 344 1203 b 246 1078 344 1126 311 1078 b 128 1132 211 1078 172 1096 b 15 1186 82 1168 44 1186 b -65 1083 -35 1186 -65 1144 b -71 1078 -65 1079 -67 1078 l -79 1078 b -85 1083 -83 1078 -85 1079 b 15 1204 -85 1156 -47 1204 b 246 1096 103 1208 171 1092 b 325 1199 297 1096 325 1138 b 331 1204 325 1203 326 1204 m 121 981 b 126 986 121 985 122 986 l 136 986 b 142 981 140 986 142 985 l 142 6 b 136 0 142 1 140 0 l 126 0 b 121 6 122 0 121 1 "},"ĩ":{"ha":228,"x_min":0,"x_max":0,"o":"m 258 961 b 264 956 263 961 264 960 b 193 839 264 878 240 839 b 39 943 110 839 113 943 b -21 844 -1 943 -21 910 b -26 839 -21 840 -22 839 l -32 839 b -37 844 -36 839 -37 840 b 39 961 -37 922 -12 961 b 193 857 122 961 122 857 b 247 956 229 857 247 890 b 253 961 247 960 249 961 m 118 708 b 124 703 122 708 124 707 l 124 6 b 118 0 124 1 122 0 l 110 0 b 104 6 106 0 104 1 l 104 703 b 110 708 104 707 106 708 "},"Ī":{"ha":263,"x_min":0,"x_max":0,"o":"m 297 1149 b 303 1143 301 1149 303 1147 l 303 1136 b 297 1131 303 1132 301 1131 l -36 1131 b -42 1136 -40 1131 -42 1132 l -42 1143 b -36 1149 -42 1147 -40 1149 m 121 981 b 126 986 121 985 122 986 l 136 986 b 142 981 140 986 142 985 l 142 6 b 136 0 142 1 140 0 l 126 0 b 121 6 122 0 121 1 "},"ī":{"ha":228,"x_min":0,"x_max":0,"o":"m 218 901 b 221 896 219 901 221 900 l 221 889 b 218 883 221 885 219 883 l 11 883 b 7 889 8 883 7 885 l 7 896 b 11 901 7 900 8 901 m 118 708 b 124 703 122 708 124 707 l 124 6 b 118 0 124 1 122 0 l 110 0 b 104 6 106 0 104 1 l 104 703 b 110 708 104 707 106 708 "},"Ĭ":{"ha":263,"x_min":0,"x_max":0,"o":"m 338 1224 b 132 1064 308 1113 244 1064 b -74 1224 19 1064 -44 1113 b -71 1231 -75 1226 -74 1229 l -61 1233 b -54 1229 -57 1235 -56 1233 b 132 1083 -28 1128 28 1083 b 318 1229 236 1083 292 1128 b 325 1233 319 1233 321 1235 l 335 1231 b 338 1224 338 1229 339 1226 m 122 981 b 128 986 122 985 124 986 l 138 986 b 143 981 142 986 143 985 l 143 6 b 138 0 143 1 142 0 l 128 0 b 122 6 124 0 122 1 "},"ĭ":{"ha":228,"x_min":0,"x_max":0,"o":"m 271 974 b 275 967 274 972 275 971 b 114 815 260 868 203 815 b -47 967 25 815 -32 868 b -44 974 -47 971 -46 974 l -36 975 b -29 971 -32 975 -29 974 b 114 835 -17 881 32 835 b 257 971 196 835 244 881 b 264 975 257 974 260 975 m 118 708 b 124 703 122 708 124 707 l 124 6 b 118 0 124 1 122 0 l 110 0 b 104 6 106 0 104 1 l 104 703 b 110 708 104 707 106 708 "},"Į":{"ha":263,"x_min":0,"x_max":0,"o":"m 265 -286 b 263 -294 267 -289 265 -292 b 146 -344 228 -328 189 -344 b 57 -286 100 -344 71 -325 b 143 1 29 -214 58 -126 b 142 6 142 1 142 3 l 142 981 b 147 986 142 985 143 986 l 157 986 b 163 981 161 986 163 985 l 163 6 b 161 1 163 4 163 3 b 76 -275 79 -118 51 -210 b 150 -324 89 -307 113 -324 b 257 -275 192 -324 228 -307 b 263 -276 260 -272 261 -272 "},"į":{"ha":231,"x_min":0,"x_max":0,"o":"m 117 910 b 100 926 106 910 100 915 l 100 932 b 117 949 100 943 106 949 l 122 949 b 139 932 133 949 139 943 l 139 926 b 122 910 139 915 133 910 m 200 -281 b 200 -289 201 -282 201 -285 b 113 -342 179 -324 150 -342 b 31 -264 67 -342 35 -310 b 46 -151 28 -232 33 -194 b 82 -51 58 -108 71 -75 b 110 3 93 -28 103 -10 l 110 6 l 110 703 b 115 708 110 707 111 708 l 124 708 b 129 703 128 708 129 707 l 129 6 b 128 1 129 3 129 1 b 65 -147 115 -21 92 -58 b 49 -262 51 -190 46 -229 b 113 -325 50 -300 81 -325 b 188 -276 144 -325 169 -308 b 194 -276 189 -275 192 -275 "},"İ":{"ha":263,"x_min":0,"x_max":0,"o":"m 133 1158 b 150 1142 144 1158 150 1153 l 150 1136 b 133 1119 150 1125 144 1119 l 128 1119 b 111 1136 117 1119 111 1125 l 111 1142 b 128 1158 111 1153 117 1158 m 121 981 b 126 986 121 985 122 986 l 136 986 b 142 981 140 986 142 985 l 142 6 b 136 0 142 1 140 0 l 126 0 b 121 6 122 0 121 1 "},"ı":{"ha":231,"x_min":0,"x_max":0,"o":"m 119 708 b 125 703 124 708 125 707 l 125 6 b 119 0 125 1 124 0 l 111 0 b 106 6 107 0 106 1 l 106 703 b 111 708 106 707 107 708 "},"Ĳ":{"ha":1049,"x_min":0,"x_max":0,"o":"m 121 981 b 126 986 121 985 122 986 l 136 986 b 142 981 140 986 142 985 l 142 6 b 136 0 142 1 140 0 l 126 0 b 121 6 122 0 121 1 m 929 986 b 935 981 933 986 935 985 l 935 292 b 618 -21 935 99 819 -21 b 301 269 436 -21 331 76 b 304 278 300 274 300 276 l 313 281 b 321 276 318 282 321 281 b 618 0 350 94 439 0 b 914 292 807 0 914 113 l 914 981 b 919 986 914 985 915 986 "},"ĳ":{"ha":572,"x_min":0,"x_max":0,"o":"m 118 949 b 135 932 129 949 135 943 l 135 926 b 118 910 135 915 129 910 l 113 910 b 96 926 101 910 96 915 l 96 932 b 113 949 96 943 101 949 m 460 949 b 476 932 471 949 476 943 l 476 926 b 460 910 476 915 471 910 l 454 910 b 438 926 443 910 438 915 l 438 932 b 454 949 438 943 443 949 m 119 708 b 125 703 124 708 125 707 l 125 6 b 119 0 125 1 124 0 l 111 0 b 106 6 107 0 106 1 l 106 703 b 111 708 106 707 107 708 m 461 708 b 467 703 465 708 467 707 l 467 -14 b 210 -319 467 -221 403 -319 b 204 -314 206 -319 204 -318 l 204 -306 b 210 -300 204 -301 206 -300 b 447 -15 389 -300 447 -210 l 447 703 b 453 708 447 707 449 708 "},"Ĵ":{"ha":782,"x_min":0,"x_max":0,"o":"m 661 1240 b 676 1233 665 1240 671 1238 l 878 1069 b 874 1064 882 1065 881 1064 l 863 1064 b 850 1068 858 1064 854 1065 l 660 1221 l 468 1068 b 457 1064 464 1065 460 1064 l 444 1064 b 440 1069 438 1064 436 1065 l 643 1233 b 657 1240 649 1238 653 1240 m 665 986 b 671 981 669 986 671 985 l 671 292 b 354 -21 671 99 556 -21 b 38 269 172 -21 67 76 b 40 278 36 274 36 276 l 49 281 b 57 276 54 282 57 281 b 354 0 86 94 175 0 b 650 292 543 0 650 113 l 650 981 b 656 986 650 985 651 986 "},"ĵ":{"ha":229,"x_min":0,"x_max":0,"o":"m 115 972 b 131 965 122 972 126 969 l 285 804 b 281 799 289 800 288 799 l 271 799 b 258 803 265 799 261 800 l 114 954 l -32 803 b -43 799 -35 800 -39 799 l -56 799 b -58 804 -61 799 -62 800 l 97 965 b 111 972 101 969 106 972 m 119 708 b 125 703 124 708 125 707 l 125 -14 b -132 -319 125 -221 61 -319 b -137 -314 -136 -319 -137 -318 l -137 -306 b -132 -300 -137 -301 -136 -300 b 106 -15 47 -300 106 -210 l 106 703 b 111 708 106 707 107 708 "},"Ķ":{"ha":818,"x_min":0,"x_max":0,"o":"m 788 7 b 783 0 790 3 789 0 l 776 0 b 765 6 772 0 768 1 l 594 344 b 360 490 543 446 481 490 l 142 490 l 142 6 b 136 0 142 1 140 0 l 126 0 b 121 6 122 0 121 1 l 121 981 b 126 986 121 985 122 986 l 136 986 b 142 981 140 986 142 985 l 142 510 l 360 510 b 401 508 379 510 393 510 l 749 981 b 761 986 751 985 756 986 l 769 986 b 774 979 775 986 776 983 l 425 506 b 613 356 515 490 568 444 m 404 -328 b 396 -335 403 -332 400 -335 l 390 -335 b 385 -328 386 -335 383 -332 l 450 -124 b 458 -118 451 -119 454 -118 l 465 -118 b 471 -125 469 -118 472 -121 "},"ķ":{"ha":681,"x_min":0,"x_max":0,"o":"m 646 6 b 643 0 647 1 647 0 l 633 0 b 625 4 629 0 626 1 l 499 256 b 336 357 464 328 419 357 l 125 357 l 125 6 b 119 0 125 1 124 0 l 111 0 b 106 6 107 0 106 1 l 106 1022 b 111 1028 106 1026 107 1028 l 119 1028 b 125 1022 124 1028 125 1026 l 125 375 l 336 375 l 351 375 l 613 703 b 625 708 615 707 619 708 l 632 708 b 636 701 638 708 639 706 l 374 372 b 517 264 444 365 483 331 m 328 -308 b 319 -315 326 -312 324 -315 l 313 -315 b 307 -308 308 -315 306 -312 l 365 -83 b 372 -78 367 -79 368 -78 l 382 -78 b 388 -83 386 -78 389 -79 "},"ĸ":{"ha":614,"x_min":0,"x_max":0,"o":"m 586 8 b 583 0 590 3 589 0 l 575 0 b 564 6 571 0 567 1 l 283 400 l 125 235 l 125 6 b 119 0 125 1 124 0 l 111 0 b 106 6 107 0 106 1 l 106 703 b 111 708 106 707 107 708 l 119 708 b 125 703 124 708 125 707 l 125 261 l 549 703 b 564 708 553 707 557 708 l 571 708 b 574 701 578 708 578 706 l 299 415 "},"Ĺ":{"ha":714,"x_min":0,"x_max":0,"o":"m 253 1238 b 265 1236 257 1240 261 1240 l 269 1232 b 268 1222 274 1228 272 1225 l 19 1064 b 10 1065 15 1063 13 1063 l 4 1071 b 6 1079 1 1074 1 1076 m 140 986 b 146 981 144 986 146 985 l 146 19 l 693 19 b 699 14 697 19 699 18 l 699 6 b 693 0 699 1 697 0 l 131 0 b 125 6 126 0 125 1 l 125 981 b 131 986 125 985 126 986 "},"ĺ":{"ha":242,"x_min":0,"x_max":0,"o":"m 217 1213 b 228 1210 221 1214 224 1214 l 232 1206 b 229 1196 233 1201 233 1197 l 29 1081 b 19 1082 25 1078 21 1078 l 15 1086 b 19 1096 13 1090 14 1094 m 135 6 b 129 0 135 1 133 0 l 121 0 b 115 6 117 0 115 1 l 115 1022 b 121 1028 115 1026 117 1028 l 129 1028 b 135 1022 133 1028 135 1026 "},"Ļ":{"ha":714,"x_min":0,"x_max":0,"o":"m 136 986 b 142 981 140 986 142 985 l 142 19 l 689 19 b 694 14 693 19 694 18 l 694 6 b 689 0 694 1 693 0 l 126 0 b 121 6 122 0 121 1 l 121 981 b 126 986 121 985 122 986 m 360 -328 b 351 -335 358 -332 356 -335 l 346 -335 b 340 -328 342 -335 339 -332 l 406 -124 b 414 -118 407 -119 410 -118 l 421 -118 b 426 -125 425 -118 428 -121 "},"ļ":{"ha":242,"x_min":0,"x_max":0,"o":"m 132 6 b 126 0 132 1 131 0 l 118 0 b 113 6 114 0 113 1 l 113 1022 b 118 1028 113 1026 114 1028 l 126 1028 b 132 1022 131 1028 132 1026 m 82 -299 b 74 -306 81 -303 78 -306 l 69 -306 b 64 -299 65 -306 63 -303 l 122 -60 b 129 -54 124 -56 125 -54 l 136 -54 b 142 -60 140 -54 143 -56 "},"Ľ":{"ha":714,"x_min":0,"x_max":0,"o":"m 136 986 b 142 981 140 986 142 985 l 142 19 l 689 19 b 694 14 693 19 694 18 l 694 6 b 689 0 694 1 693 0 l 126 0 b 121 6 122 0 121 1 l 121 981 b 126 986 121 985 122 986 m 479 689 b 471 682 478 685 475 682 l 464 682 b 458 689 460 682 457 685 l 524 981 b 532 986 525 985 528 986 l 540 986 b 546 979 544 986 547 983 "},"ľ":{"ha":250,"x_min":0,"x_max":0,"o":"m 131 6 b 125 0 131 1 129 0 l 117 0 b 111 6 113 0 111 1 l 111 1022 b 117 1028 111 1026 113 1028 l 125 1028 b 131 1022 129 1028 131 1026 m 296 756 b 288 749 294 751 292 749 l 282 749 b 276 756 278 749 275 751 l 331 1022 b 339 1028 332 1026 335 1028 l 347 1028 b 353 1021 351 1028 354 1025 "},"Ŀ":{"ha":714,"x_min":0,"x_max":0,"o":"m 136 986 b 142 981 140 986 142 985 l 142 19 l 689 19 b 694 14 693 19 694 18 l 694 6 b 689 0 694 1 693 0 l 126 0 b 121 6 122 0 121 1 l 121 981 b 126 986 121 985 122 986 m 456 496 b 474 478 468 496 474 490 l 474 472 b 456 454 474 460 468 454 l 450 454 b 432 472 435 454 432 457 l 432 478 b 450 496 432 490 438 496 "},"ŀ":{"ha":367,"x_min":0,"x_max":0,"o":"m 131 6 b 125 0 131 1 129 0 l 117 0 b 111 6 113 0 111 1 l 111 1022 b 117 1028 111 1026 113 1028 l 125 1028 b 131 1022 129 1028 131 1026 m 307 539 b 325 521 319 539 325 533 l 325 515 b 307 497 325 503 319 497 l 301 497 b 283 515 286 497 283 500 l 283 521 b 301 539 283 533 289 539 "},"Ł":{"ha":746,"x_min":0,"x_max":0,"o":"m 725 19 b 731 14 729 19 731 18 l 731 6 b 725 0 731 1 729 0 l 163 0 b 157 6 158 0 157 1 l 157 435 l 13 364 b 6 367 10 363 7 363 l 1 375 b 3 383 -1 379 -1 382 l 157 460 l 157 981 b 163 986 157 985 158 986 l 172 986 b 178 981 176 986 178 985 l 178 469 l 550 653 b 560 650 554 654 557 654 l 563 643 b 560 635 564 639 564 636 l 178 446 l 178 19 "},"ł":{"ha":324,"x_min":0,"x_max":0,"o":"m 310 606 b 306 597 311 603 310 600 l 168 514 l 168 6 b 163 0 168 1 167 0 l 154 0 b 149 6 150 0 149 1 l 149 501 l 26 428 b 19 429 24 426 21 426 l 15 435 b 18 443 14 439 15 442 l 149 522 l 149 1022 b 154 1028 149 1026 150 1028 l 163 1028 b 168 1022 167 1028 168 1026 l 168 533 l 297 611 b 306 610 300 613 303 613 "},"Ń":{"ha":951,"x_min":0,"x_max":0,"o":"m 593 1238 b 606 1236 597 1240 601 1240 l 610 1232 b 608 1222 614 1228 613 1225 l 360 1064 b 350 1065 356 1063 353 1063 l 344 1071 b 346 1079 342 1074 342 1076 m 825 986 b 831 981 829 986 831 985 l 831 6 b 825 0 831 1 829 0 l 817 0 b 807 6 813 0 810 1 l 254 788 l 143 947 l 142 947 l 142 738 l 142 6 b 136 0 142 1 140 0 l 126 0 b 121 6 122 0 121 1 l 121 981 b 126 986 121 985 122 986 l 135 986 l 143 982 l 679 224 l 810 40 l 811 40 l 811 160 b 810 278 810 213 810 251 l 810 982 b 815 986 810 985 811 986 "},"ń":{"ha":756,"x_min":0,"x_max":0,"o":"m 490 988 b 503 986 494 990 499 990 l 507 982 b 506 972 511 978 510 975 l 257 814 b 247 815 253 813 250 813 l 242 821 b 243 829 239 824 239 826 m 153 683 b 396 728 226 713 307 728 b 657 464 569 728 657 640 l 657 6 b 651 0 657 1 656 0 l 643 0 b 638 6 639 0 638 1 l 638 463 b 396 710 638 628 557 710 b 157 665 306 710 226 694 b 121 608 125 650 121 638 l 121 6 b 115 0 121 1 119 0 l 107 0 b 101 6 103 0 101 1 l 101 608 b 153 683 101 649 113 665 "},"Ņ":{"ha":951,"x_min":0,"x_max":0,"o":"m 825 986 b 831 981 829 986 831 985 l 831 6 b 825 0 831 1 829 0 l 817 0 b 807 6 813 0 810 1 l 254 788 l 143 947 l 142 947 l 142 738 l 142 6 b 136 0 142 1 140 0 l 126 0 b 121 6 122 0 121 1 l 121 981 b 126 986 121 985 122 986 l 135 986 l 143 982 l 679 224 l 810 40 l 811 40 l 811 160 b 810 278 810 213 810 251 l 810 982 b 815 986 810 985 811 986 m 426 -328 b 418 -335 425 -332 422 -335 l 413 -335 b 407 -328 408 -335 406 -332 l 472 -124 b 481 -118 474 -119 476 -118 l 488 -118 b 493 -125 492 -118 494 -121 "},"ņ":{"ha":756,"x_min":0,"x_max":0,"o":"m 153 683 b 396 728 226 713 307 728 b 657 464 569 728 657 640 l 657 6 b 651 0 657 1 656 0 l 643 0 b 638 6 639 0 638 1 l 638 463 b 396 710 638 628 557 710 b 157 665 306 710 226 694 b 121 608 125 650 121 638 l 121 6 b 115 0 121 1 119 0 l 107 0 b 101 6 103 0 101 1 l 101 608 b 153 683 101 649 113 665 m 344 -293 b 336 -300 343 -297 340 -300 l 331 -300 b 325 -293 326 -300 324 -297 l 383 -60 b 390 -54 385 -56 386 -54 l 399 -54 b 404 -60 403 -54 406 -56 "},"Ň":{"ha":951,"x_min":0,"x_max":0,"o":"m 690 1242 b 693 1235 697 1242 697 1239 l 493 1072 b 478 1065 488 1068 482 1065 l 474 1065 b 460 1072 469 1065 465 1068 l 258 1235 b 261 1242 256 1238 257 1240 l 274 1242 b 285 1238 276 1242 281 1240 l 476 1085 l 667 1238 b 679 1242 671 1240 675 1242 m 825 986 b 831 981 829 986 831 985 l 831 6 b 825 0 831 1 829 0 l 817 0 b 807 6 813 0 810 1 l 254 788 l 143 947 l 142 947 l 142 738 l 142 6 b 136 0 142 1 140 0 l 126 0 b 121 6 122 0 121 1 l 121 981 b 126 986 121 985 122 986 l 135 986 l 143 982 l 679 224 l 810 40 l 811 40 l 811 160 b 810 278 810 213 810 251 l 810 982 b 815 986 810 985 811 986 "},"ň":{"ha":756,"x_min":0,"x_max":0,"o":"m 569 958 b 572 953 575 958 576 957 l 389 803 b 375 796 383 799 379 796 l 371 796 b 358 803 367 796 363 799 l 172 954 b 174 958 169 957 169 958 l 188 958 b 199 956 192 958 196 957 l 374 814 l 547 956 b 560 958 550 957 554 958 m 153 683 b 396 728 226 713 307 728 b 657 464 569 728 657 640 l 657 6 b 651 0 657 1 656 0 l 643 0 b 638 6 639 0 638 1 l 638 463 b 396 710 638 628 557 710 b 157 665 306 710 226 694 b 121 608 125 650 121 638 l 121 6 b 115 0 121 1 119 0 l 107 0 b 101 6 103 0 101 1 l 101 608 b 153 683 101 649 113 665 "},"ŉ":{"ha":756,"x_min":0,"x_max":0,"o":"m 93 756 b 83 749 92 751 88 749 l 76 749 b 74 757 72 749 71 751 l 197 1022 b 206 1028 199 1026 201 1028 l 214 1028 b 219 1021 221 1028 222 1025 m 157 683 b 400 728 231 713 311 728 b 661 464 574 728 661 640 l 661 6 b 656 0 661 1 660 0 l 647 0 b 642 6 643 0 642 1 l 642 463 b 400 710 642 628 561 710 b 161 665 310 710 231 694 b 125 608 129 650 125 638 l 125 6 b 119 0 125 1 124 0 l 111 0 b 106 6 107 0 106 1 l 106 608 b 157 683 106 649 117 665 "},"Ŋ":{"ha":951,"x_min":0,"x_max":0,"o":"m 825 986 b 831 981 829 986 831 985 l 831 -21 b 529 -319 831 -208 718 -319 b 524 -314 525 -319 524 -318 l 524 -306 b 529 -300 524 -301 525 -300 b 810 -19 706 -300 810 -196 l 810 3 l 254 788 l 143 947 l 142 947 l 142 769 l 142 6 b 136 0 142 1 140 0 l 126 0 b 121 6 122 0 121 1 l 121 981 b 126 986 121 985 122 986 l 135 986 l 143 982 l 679 224 l 810 40 l 811 40 l 811 160 b 810 278 810 213 810 251 l 810 982 b 815 986 810 985 811 986 "},"ŋ":{"ha":756,"x_min":0,"x_max":0,"o":"m 153 683 b 396 728 226 713 307 728 b 657 464 569 728 657 640 l 657 -21 b 357 -319 657 -208 546 -319 b 351 -314 353 -319 351 -318 l 351 -306 b 357 -300 351 -301 353 -300 b 638 -19 533 -300 638 -196 l 638 463 b 396 710 638 628 557 710 b 157 665 306 710 226 694 b 121 608 125 650 121 638 l 121 6 b 115 0 121 1 119 0 l 107 0 b 101 6 103 0 101 1 l 101 608 b 153 683 101 649 113 665 "},"Ō":{"ha":911,"x_min":0,"x_max":0,"o":"m 624 1163 b 629 1157 628 1163 629 1161 l 629 1150 b 624 1144 629 1146 628 1144 l 290 1144 b 285 1150 286 1144 285 1146 l 285 1157 b 290 1163 285 1161 286 1163 m 90 669 b 457 1006 90 881 219 1006 b 821 669 692 1006 821 881 l 821 317 b 457 -19 821 106 692 -19 b 90 317 219 -19 90 106 m 800 668 b 457 986 800 868 678 986 b 111 668 233 986 111 868 l 111 318 b 457 0 111 118 233 0 b 800 318 678 0 800 118 "},"ō":{"ha":743,"x_min":0,"x_max":0,"o":"m 524 888 b 528 882 526 888 528 886 l 528 875 b 524 869 528 871 526 869 l 218 869 b 213 875 214 869 213 871 l 213 882 b 218 888 213 886 214 888 m 82 497 b 371 728 82 638 199 728 b 661 497 547 728 661 640 l 661 211 b 371 -19 661 68 547 -19 b 82 211 199 -19 82 71 m 642 499 b 371 710 642 626 533 710 b 101 499 211 710 101 626 l 101 210 b 371 -1 101 82 211 -1 b 642 210 533 -1 642 82 "},"Ŏ":{"ha":911,"x_min":0,"x_max":0,"o":"m 663 1238 b 457 1078 633 1126 569 1078 b 251 1238 344 1078 281 1126 b 254 1244 250 1240 251 1243 l 264 1247 b 271 1243 268 1249 269 1247 b 457 1097 297 1142 353 1097 b 643 1243 561 1097 617 1142 b 650 1247 644 1247 646 1249 l 660 1244 b 663 1238 663 1243 664 1240 m 90 669 b 457 1006 90 881 219 1006 b 821 669 692 1006 821 881 l 821 317 b 457 -19 821 106 692 -19 b 90 317 219 -19 90 106 m 800 668 b 457 986 800 868 678 986 b 111 668 233 986 111 868 l 111 318 b 457 0 111 118 233 0 b 800 318 678 0 800 118 "},"ŏ":{"ha":743,"x_min":0,"x_max":0,"o":"m 576 969 b 371 810 547 858 483 810 b 165 969 258 810 194 858 b 168 976 164 972 165 975 l 178 979 b 185 975 182 981 183 979 b 371 829 211 874 267 829 b 557 975 475 829 531 874 b 564 979 558 979 560 981 l 574 976 b 576 969 576 975 578 972 m 82 497 b 371 728 82 638 199 728 b 661 497 547 728 661 640 l 661 211 b 371 -19 661 68 547 -19 b 82 211 199 -19 82 71 m 642 499 b 371 710 642 626 533 710 b 101 499 211 710 101 626 l 101 210 b 371 -1 101 82 211 -1 b 642 210 533 -1 642 82 "},"Ő":{"ha":911,"x_min":0,"x_max":0,"o":"m 435 1250 b 444 1254 439 1254 442 1256 l 456 1253 b 458 1246 461 1251 463 1250 l 296 1076 b 286 1074 293 1072 290 1072 l 278 1076 b 276 1083 274 1078 272 1079 m 681 1250 b 690 1254 685 1254 688 1256 l 701 1253 b 704 1246 707 1251 708 1250 l 542 1076 b 532 1074 539 1072 536 1072 l 524 1076 b 522 1083 519 1078 518 1079 m 90 669 b 457 1006 90 881 219 1006 b 821 669 692 1006 821 881 l 821 317 b 457 -19 821 106 692 -19 b 90 317 219 -19 90 106 m 800 668 b 457 986 800 868 678 986 b 111 668 233 986 111 868 l 111 318 b 457 0 111 118 233 0 b 800 318 678 0 800 118 "},"ő":{"ha":743,"x_min":0,"x_max":0,"o":"m 350 956 b 360 960 354 960 357 961 l 369 958 b 372 953 374 957 375 956 l 222 797 b 214 794 221 793 218 793 l 206 797 b 204 803 201 799 201 800 m 579 954 b 589 957 583 957 586 958 l 599 956 b 601 950 604 956 606 954 l 446 800 b 438 797 443 796 440 796 l 429 800 b 428 806 426 800 426 801 m 82 497 b 371 728 82 638 199 728 b 661 497 547 728 661 640 l 661 211 b 371 -19 661 68 547 -19 b 82 211 199 -19 82 71 m 642 499 b 371 710 642 626 533 710 b 101 499 211 710 101 626 l 101 210 b 371 -1 101 82 211 -1 b 642 210 533 -1 642 82 "},"Œ":{"ha":1151,"x_min":0,"x_max":0,"o":"m 1086 19 b 1092 14 1090 19 1092 18 l 1092 6 b 1086 0 1092 1 1090 0 l 610 0 b 457 -21 561 -14 510 -21 b 90 317 219 -21 90 106 l 90 669 b 457 1007 90 881 219 1007 b 608 986 510 1007 560 1000 l 1065 986 b 1071 981 1069 986 1071 985 l 1071 972 b 1065 967 1071 968 1069 967 l 622 967 l 622 508 l 1007 508 b 1013 503 1011 508 1013 507 l 1013 494 b 1007 489 1013 490 1011 489 l 622 489 l 622 19 m 111 318 b 457 -1 111 118 233 -1 b 601 18 511 -1 558 6 l 601 967 b 457 988 554 981 506 988 b 111 668 233 988 111 868 "},"œ":{"ha":1117,"x_min":0,"x_max":0,"o":"m 571 560 b 803 728 599 672 676 728 b 1049 444 967 728 1049 633 l 1049 375 b 1029 357 1049 363 1042 357 l 578 357 l 578 243 b 797 -1 578 81 651 -1 b 936 36 860 -1 906 11 b 1024 156 965 60 994 100 b 1032 158 1026 160 1029 160 l 1039 154 b 1040 147 1042 153 1042 151 b 949 21 1011 90 981 47 b 797 -19 917 -6 865 -19 b 569 142 671 -19 596 35 b 332 -19 542 42 450 -19 b 86 210 186 -19 86 69 l 86 499 b 332 728 86 639 186 728 b 571 560 454 728 547 665 m 558 500 b 332 710 558 628 465 710 b 106 500 199 710 106 628 l 106 208 b 332 -1 106 81 199 -1 b 558 208 465 -1 558 81 m 1029 444 b 803 710 1029 615 964 710 b 578 444 642 710 578 617 l 578 375 l 1029 375 "},"Ŕ":{"ha":883,"x_min":0,"x_max":0,"o":"m 543 1238 b 556 1236 547 1240 551 1240 l 560 1232 b 558 1222 564 1228 563 1225 l 310 1064 b 300 1065 306 1063 303 1063 l 294 1071 b 296 1079 292 1074 292 1076 m 531 986 b 801 719 701 986 801 890 b 532 456 801 554 699 460 b 674 321 590 435 638 390 l 832 7 b 828 0 835 3 833 0 l 821 0 b 810 6 817 0 813 1 l 656 310 b 421 456 604 411 542 456 l 142 456 l 142 6 b 136 0 142 1 140 0 l 126 0 b 121 6 122 0 121 1 l 121 981 b 126 986 121 985 122 986 m 781 719 b 529 967 781 876 689 967 l 142 967 l 142 475 l 529 475 b 781 719 686 475 781 564 "},"ŕ":{"ha":460,"x_min":0,"x_max":0,"o":"m 392 986 b 404 985 396 989 400 989 l 408 981 b 407 971 413 976 411 974 l 158 813 b 149 814 154 811 151 811 l 143 819 b 144 828 140 822 140 825 m 396 728 l 438 728 b 443 722 442 728 443 726 l 443 715 b 438 710 443 711 442 710 l 396 710 b 157 665 306 710 226 694 b 121 608 125 650 121 638 l 121 6 b 115 0 121 1 119 0 l 107 0 b 101 6 103 0 101 1 l 101 608 b 153 683 101 649 113 665 b 396 728 226 713 307 728 "},"Ŗ":{"ha":883,"x_min":0,"x_max":0,"o":"m 531 986 b 801 719 701 986 801 890 b 532 456 801 554 699 460 b 674 321 590 435 638 390 l 832 7 b 828 0 835 3 833 0 l 821 0 b 810 6 817 0 813 1 l 656 310 b 421 456 604 411 542 456 l 142 456 l 142 6 b 136 0 142 1 140 0 l 126 0 b 121 6 122 0 121 1 l 121 981 b 126 986 121 985 122 986 m 781 719 b 529 967 781 876 689 967 l 142 967 l 142 475 l 529 475 b 781 719 686 475 781 564 m 422 -328 b 414 -335 421 -332 418 -335 l 408 -335 b 403 -328 404 -335 401 -332 l 468 -124 b 476 -118 469 -119 472 -118 l 483 -118 b 489 -125 488 -118 490 -121 "},"ŗ":{"ha":460,"x_min":0,"x_max":0,"o":"m 397 728 l 439 728 b 444 722 443 728 444 726 l 444 715 b 439 710 444 711 443 710 l 397 710 b 158 665 307 710 228 694 b 122 608 126 650 122 638 l 122 6 b 117 0 122 1 121 0 l 108 0 b 103 6 104 0 103 1 l 103 608 b 154 683 103 649 114 665 b 397 728 228 713 308 728 m 75 -299 b 67 -306 74 -303 71 -306 l 60 -306 b 54 -299 56 -306 53 -303 l 110 -67 b 117 -61 111 -62 113 -61 l 126 -61 b 132 -67 131 -61 133 -62 "},"Ř":{"ha":883,"x_min":0,"x_max":0,"o":"m 640 1242 b 643 1235 647 1242 647 1239 l 443 1072 b 428 1065 438 1068 432 1065 l 424 1065 b 410 1072 419 1065 415 1068 l 208 1235 b 211 1242 206 1238 207 1240 l 224 1242 b 235 1238 226 1242 231 1240 l 426 1085 l 617 1238 b 629 1242 621 1240 625 1242 m 531 986 b 801 719 701 986 801 890 b 532 456 801 554 699 460 b 674 321 590 435 638 390 l 832 7 b 828 0 835 3 833 0 l 821 0 b 810 6 817 0 813 1 l 656 310 b 421 456 604 411 542 456 l 142 456 l 142 6 b 136 0 142 1 140 0 l 126 0 b 121 6 122 0 121 1 l 121 981 b 126 986 121 985 122 986 m 781 719 b 529 967 781 876 689 967 l 142 967 l 142 475 l 529 475 b 781 719 686 475 781 564 "},"ř":{"ha":460,"x_min":0,"x_max":0,"o":"m 475 957 b 478 951 481 957 482 956 l 294 801 b 281 794 289 797 285 794 l 276 794 b 264 801 272 794 268 797 l 78 953 b 79 957 75 956 75 957 l 93 957 b 104 954 97 957 101 956 l 279 813 l 453 954 b 465 957 456 956 460 957 m 400 728 l 442 728 b 447 722 446 728 447 726 l 447 715 b 442 710 447 711 446 710 l 400 710 b 161 665 310 710 231 694 b 125 608 129 650 125 638 l 125 6 b 119 0 125 1 124 0 l 111 0 b 106 6 107 0 106 1 l 106 608 b 157 683 106 649 117 665 b 400 728 231 713 311 728 "},"Ś":{"ha":858,"x_min":0,"x_max":0,"o":"m 554 1250 b 567 1249 558 1253 563 1253 l 571 1244 b 569 1235 575 1240 574 1238 l 321 1076 b 311 1078 317 1075 314 1075 l 306 1083 b 307 1092 303 1086 303 1089 m 88 740 b 424 1006 88 906 214 1006 b 788 788 606 1006 711 939 b 785 779 790 783 789 781 l 778 776 b 769 778 774 775 771 776 b 424 985 697 922 596 985 b 108 742 228 985 108 893 b 257 542 115 626 161 572 b 447 504 324 519 364 514 b 550 492 490 500 525 496 b 640 468 575 488 606 479 b 721 425 675 456 701 442 b 790 253 758 392 790 332 b 435 -19 790 71 672 -19 b 64 229 250 -19 135 57 b 67 239 63 233 63 238 l 74 242 b 82 239 78 243 81 242 b 435 1 153 74 261 1 b 769 251 658 1 769 85 b 669 432 769 349 725 397 b 526 472 636 453 565 467 b 444 483 507 475 479 479 b 244 524 357 494 315 500 b 161 568 210 536 182 550 b 88 740 121 601 88 661 "},"ś":{"ha":678,"x_min":0,"x_max":0,"o":"m 460 988 b 472 986 464 990 468 990 l 476 982 b 475 972 481 978 479 975 l 226 814 b 217 815 222 813 219 813 l 211 821 b 213 829 208 824 208 826 m 81 538 b 338 728 81 660 169 728 b 607 575 479 728 569 676 b 606 567 608 571 608 568 l 600 564 b 592 567 596 563 593 563 b 338 710 554 661 483 710 b 100 538 179 710 100 653 b 126 436 100 493 114 458 b 199 386 139 413 179 394 b 301 365 214 379 286 367 b 361 360 311 364 332 363 b 539 318 440 353 486 344 b 617 172 592 292 617 244 b 350 -19 617 44 528 -19 b 60 158 201 -19 108 31 b 63 167 58 163 58 165 l 69 169 b 76 167 72 171 75 169 b 350 -1 117 54 208 -1 b 597 172 515 -1 597 57 b 526 304 597 238 575 281 b 360 342 476 326 438 335 b 315 346 336 343 321 344 b 275 351 310 347 296 349 b 235 357 254 353 240 356 b 165 381 222 361 176 369 b 96 451 139 396 106 418 b 81 538 83 474 81 504 "},"Ŝ":{"ha":858,"x_min":0,"x_max":0,"o":"m 439 1253 b 454 1246 443 1253 449 1250 l 656 1082 b 651 1076 660 1078 658 1076 l 640 1076 b 628 1081 636 1076 632 1078 l 438 1233 l 246 1081 b 235 1076 242 1078 238 1076 l 222 1076 b 218 1082 215 1076 214 1078 l 421 1246 b 435 1253 426 1250 431 1253 m 88 740 b 424 1006 88 906 214 1006 b 788 788 606 1006 711 939 b 785 779 790 783 789 781 l 778 776 b 769 778 774 775 771 776 b 424 985 697 922 596 985 b 108 742 228 985 108 893 b 257 542 115 626 161 572 b 447 504 324 519 364 514 b 550 492 490 500 525 496 b 640 468 575 488 606 479 b 721 425 675 456 701 442 b 790 253 758 392 790 332 b 435 -19 790 71 672 -19 b 64 229 250 -19 135 57 b 67 239 63 233 63 238 l 74 242 b 82 239 78 243 81 242 b 435 1 153 74 261 1 b 769 251 658 1 769 85 b 669 432 769 349 725 397 b 526 472 636 453 565 467 b 444 483 507 475 479 479 b 244 524 357 494 315 500 b 161 568 210 536 182 550 b 88 740 121 601 88 661 "},"ŝ":{"ha":678,"x_min":0,"x_max":0,"o":"m 344 974 b 360 967 349 974 354 971 l 557 806 b 553 800 561 801 560 800 l 542 800 b 529 804 538 800 533 801 l 343 954 l 156 804 b 144 800 151 801 147 800 l 132 800 b 129 806 126 800 125 801 l 326 967 b 340 974 332 971 336 974 m 81 538 b 338 728 81 660 169 728 b 607 575 479 728 569 676 b 606 567 608 571 608 568 l 600 564 b 592 567 596 563 593 563 b 338 710 554 661 483 710 b 100 538 179 710 100 653 b 126 436 100 493 114 458 b 199 386 139 413 179 394 b 301 365 214 379 286 367 b 361 360 311 364 332 363 b 539 318 440 353 486 344 b 617 172 592 292 617 244 b 350 -19 617 44 528 -19 b 60 158 201 -19 108 31 b 63 167 58 163 58 165 l 69 169 b 76 167 72 171 75 169 b 350 -1 117 54 208 -1 b 597 172 515 -1 597 57 b 526 304 597 238 575 281 b 360 342 476 326 438 335 b 315 346 336 343 321 344 b 275 351 310 347 296 349 b 235 357 254 353 240 356 b 165 381 222 361 176 369 b 96 451 139 396 106 418 b 81 538 83 474 81 504 "},"Ş":{"ha":858,"x_min":0,"x_max":0,"o":"m 447 504 b 550 492 490 500 525 496 b 640 468 575 488 606 479 b 721 425 675 456 701 442 b 790 253 758 392 790 332 b 447 -19 790 74 676 -17 l 408 -131 b 463 -124 424 -126 442 -124 b 583 -219 539 -124 583 -158 b 440 -346 583 -299 529 -346 b 318 -311 393 -346 353 -335 b 310 -296 313 -307 310 -303 l 310 -287 b 315 -285 310 -282 311 -281 b 440 -328 347 -314 389 -328 b 565 -219 518 -328 565 -287 b 457 -140 565 -167 529 -140 b 397 -150 433 -140 413 -143 b 388 -137 388 -154 383 -149 l 429 -19 b 64 229 246 -18 135 58 b 67 239 63 233 63 238 l 74 242 b 82 239 78 243 81 242 b 435 1 153 74 261 1 b 769 251 658 1 769 85 b 669 432 769 349 725 397 b 526 472 636 453 565 467 b 444 483 507 475 479 479 b 244 524 357 494 315 500 b 161 568 210 536 182 550 b 88 740 121 601 88 661 b 424 1006 88 906 214 1006 b 788 788 606 1006 711 939 b 785 779 790 783 789 781 l 778 776 b 769 778 774 775 771 776 b 424 985 697 922 596 985 b 108 742 228 985 108 893 b 257 542 115 626 161 572 b 447 504 324 519 364 514 "},"ş":{"ha":678,"x_min":0,"x_max":0,"o":"m 81 538 b 338 728 81 660 169 728 b 607 575 479 728 569 676 b 606 567 608 571 608 568 l 600 564 b 592 567 596 563 593 563 b 338 710 554 661 483 710 b 100 538 179 710 100 653 b 126 436 100 493 114 458 b 199 386 139 413 179 394 b 301 365 214 379 286 367 b 361 360 311 364 332 363 b 539 318 440 353 486 344 b 617 172 592 292 617 244 b 349 -19 617 44 528 -19 l 310 -128 b 363 -122 321 -124 339 -122 b 481 -214 435 -122 481 -157 b 340 -335 481 -290 428 -335 b 221 -301 294 -335 254 -324 b 213 -287 215 -297 213 -293 l 213 -279 b 218 -276 213 -274 214 -272 b 340 -318 251 -304 292 -318 b 463 -214 417 -318 463 -281 b 357 -137 463 -162 428 -137 b 299 -147 332 -137 313 -140 b 289 -135 289 -151 285 -146 l 331 -19 b 60 158 193 -15 106 36 b 63 167 58 163 58 165 l 69 169 b 76 167 72 171 75 169 b 350 -1 117 54 208 -1 b 597 172 515 -1 597 57 b 526 304 597 238 575 281 b 360 342 476 326 438 335 b 315 346 336 343 321 344 b 275 351 310 347 296 349 b 235 357 254 353 240 356 b 165 381 222 361 176 369 b 96 451 139 396 106 418 b 81 538 83 474 81 504 "},"Š":{"ha":858,"x_min":0,"x_max":0,"o":"m 651 1254 b 654 1247 658 1254 658 1251 l 454 1085 b 439 1078 449 1081 443 1078 l 435 1078 b 421 1085 431 1078 426 1081 l 219 1247 b 222 1254 217 1250 218 1253 l 235 1254 b 246 1250 238 1254 242 1253 l 438 1097 l 628 1250 b 640 1254 632 1253 636 1254 m 88 740 b 424 1006 88 906 214 1006 b 788 788 606 1006 711 939 b 785 779 790 783 789 781 l 778 776 b 769 778 774 775 771 776 b 424 985 697 922 596 985 b 108 742 228 985 108 893 b 257 542 115 626 161 572 b 447 504 324 519 364 514 b 550 492 490 500 525 496 b 640 468 575 488 606 479 b 721 425 675 456 701 442 b 790 253 758 392 790 332 b 435 -19 790 71 672 -19 b 64 229 250 -19 135 57 b 67 239 63 233 63 238 l 74 242 b 82 239 78 243 81 242 b 435 1 153 74 261 1 b 769 251 658 1 769 85 b 669 432 769 349 725 397 b 526 472 636 453 565 467 b 444 483 507 475 479 479 b 244 524 357 494 315 500 b 161 568 210 536 182 550 b 88 740 121 601 88 661 "},"š":{"ha":678,"x_min":0,"x_max":0,"o":"m 536 954 b 539 947 543 954 543 951 l 358 800 b 344 794 353 796 349 794 l 340 794 b 328 800 338 794 333 796 l 144 949 b 146 954 140 953 142 954 l 160 954 b 169 950 164 954 167 953 l 343 813 l 515 950 b 526 954 519 953 524 954 m 81 538 b 338 728 81 660 169 728 b 607 575 479 728 569 676 b 606 567 608 571 608 568 l 600 564 b 592 567 596 563 593 563 b 338 710 554 661 483 710 b 100 538 179 710 100 653 b 126 436 100 493 114 458 b 199 386 139 413 179 394 b 301 365 214 379 286 367 b 361 360 311 364 332 363 b 539 318 440 353 486 344 b 617 172 592 292 617 244 b 350 -19 617 44 528 -19 b 60 158 201 -19 108 31 b 63 167 58 163 58 165 l 69 169 b 76 167 72 171 75 169 b 350 -1 117 54 208 -1 b 597 172 515 -1 597 57 b 526 304 597 238 575 281 b 360 342 476 326 438 335 b 315 346 336 343 321 344 b 275 351 310 347 296 349 b 235 357 254 353 240 356 b 165 381 222 361 176 369 b 96 451 139 396 106 418 b 81 538 83 474 81 504 "},"Ť":{"ha":721,"x_min":0,"x_max":0,"o":"m 575 1242 b 578 1235 582 1242 582 1239 l 378 1072 b 363 1065 372 1068 367 1065 l 358 1065 b 344 1072 354 1065 350 1068 l 143 1235 b 146 1242 140 1238 142 1240 l 158 1242 b 169 1238 163 1242 165 1240 l 361 1085 l 551 1238 b 564 1242 556 1240 560 1242 m 697 986 b 703 981 701 986 703 985 l 703 972 b 697 967 703 968 701 967 l 371 967 l 371 6 b 365 0 371 1 369 0 l 356 0 b 350 6 351 0 350 1 l 350 967 l 24 967 b 18 972 19 967 18 968 l 18 981 b 24 986 18 985 19 986 "},"ť":{"ha":453,"x_min":0,"x_max":0,"o":"m 392 778 b 383 771 390 774 388 771 l 378 771 b 372 778 374 771 371 774 l 432 1022 b 439 1028 433 1026 435 1028 l 447 1028 b 453 1022 451 1028 454 1026 m 193 875 b 199 869 197 875 199 874 l 199 708 l 444 708 b 450 703 449 708 450 707 l 450 696 b 444 690 450 692 449 690 l 199 690 l 199 240 b 249 47 199 143 215 79 b 442 0 282 15 346 0 b 447 -6 446 0 447 -1 l 447 -14 b 442 -19 447 -18 446 -19 b 236 35 342 -19 274 -1 b 179 240 199 69 179 139 l 179 690 l 8 690 b 3 696 4 690 3 692 l 3 703 b 8 708 3 707 4 708 l 179 708 l 179 869 b 185 875 179 874 181 875 "},"Ŧ":{"ha":756,"x_min":0,"x_max":0,"o":"m 715 986 b 721 981 719 986 721 985 l 721 972 b 715 967 721 968 719 967 l 389 967 l 389 471 l 617 471 b 624 464 621 471 624 468 l 624 460 b 617 451 624 454 621 451 l 389 451 l 389 6 b 383 0 389 1 388 0 l 374 0 b 368 6 369 0 368 1 l 368 451 l 140 451 b 133 460 136 451 133 454 l 133 464 b 140 471 133 468 136 471 l 368 471 l 368 967 l 42 967 b 36 972 38 967 36 968 l 36 981 b 42 986 36 985 38 986 "},"ŧ":{"ha":469,"x_min":0,"x_max":0,"o":"m 208 875 b 214 869 213 875 214 874 l 214 708 l 460 708 b 465 703 464 708 465 707 l 465 696 b 460 690 465 692 464 690 l 214 690 l 214 372 l 417 372 b 424 365 421 372 424 369 l 424 361 b 417 354 424 357 421 354 l 214 354 l 214 240 b 264 47 214 143 231 79 b 457 0 297 15 361 0 b 463 -6 461 0 463 -1 l 463 -14 b 457 -19 463 -18 461 -19 b 251 35 357 -19 289 -1 b 194 240 214 69 194 139 l 194 354 l 39 354 b 32 361 35 354 32 357 l 32 365 b 39 372 32 369 35 372 l 194 372 l 194 690 l 24 690 b 18 696 19 690 18 692 l 18 703 b 24 708 18 707 19 708 l 194 708 l 194 869 b 200 875 194 874 196 875 "},"Ũ":{"ha":939,"x_min":0,"x_max":0,"o":"m 678 1204 b 683 1199 682 1204 683 1203 b 585 1078 683 1126 650 1078 b 467 1132 550 1078 511 1096 b 354 1186 421 1168 383 1186 b 274 1083 304 1186 274 1144 b 268 1078 274 1079 272 1078 l 260 1078 b 254 1083 256 1078 254 1079 b 354 1204 254 1156 292 1204 b 585 1096 442 1208 510 1092 b 664 1199 636 1096 664 1138 b 669 1204 664 1203 665 1204 m 133 332 b 469 -1 133 125 247 -1 b 806 332 692 -1 806 125 l 806 981 b 811 986 806 985 807 986 l 821 986 b 826 981 825 986 826 985 l 826 332 b 469 -21 826 111 704 -21 b 113 332 235 -21 113 111 l 113 981 b 118 986 113 985 114 986 l 128 986 b 133 981 132 986 133 985 "},"ũ":{"ha":756,"x_min":0,"x_max":0,"o":"m 585 953 b 590 947 589 953 590 951 b 492 826 590 875 557 826 b 374 881 457 826 418 844 b 261 935 328 917 290 935 b 181 832 211 935 181 893 b 175 826 181 828 179 826 l 167 826 b 161 832 163 826 161 828 b 261 953 161 904 199 953 b 492 844 349 957 417 840 b 571 947 543 844 571 886 b 576 953 571 951 572 953 m 649 708 b 654 703 653 708 654 707 l 654 100 b 603 25 654 60 643 43 b 360 -19 529 -4 449 -19 b 99 244 186 -19 99 68 l 99 703 b 104 708 99 707 100 708 l 113 708 b 118 703 117 708 118 707 l 118 246 b 360 -1 118 81 199 -1 b 599 43 450 -1 529 14 b 635 100 631 58 635 71 l 635 703 b 640 708 635 707 636 708 "},"Ū":{"ha":939,"x_min":0,"x_max":0,"o":"m 636 1149 b 642 1143 640 1149 642 1147 l 642 1136 b 636 1131 642 1132 640 1131 l 303 1131 b 297 1136 299 1131 297 1132 l 297 1143 b 303 1149 297 1147 299 1149 m 133 332 b 469 -1 133 125 247 -1 b 806 332 692 -1 806 125 l 806 981 b 811 986 806 985 807 986 l 821 986 b 826 981 825 986 826 985 l 826 332 b 469 -21 826 111 704 -21 b 113 332 235 -21 113 111 l 113 981 b 118 986 113 985 114 986 l 128 986 b 133 981 132 986 133 985 "},"ū":{"ha":756,"x_min":0,"x_max":0,"o":"m 543 894 b 549 889 547 894 549 893 l 549 882 b 543 876 549 878 547 876 l 210 876 b 204 882 206 876 204 878 l 204 889 b 210 894 204 893 206 894 m 649 708 b 654 703 653 708 654 707 l 654 100 b 603 25 654 60 643 43 b 360 -19 529 -4 449 -19 b 99 244 186 -19 99 68 l 99 703 b 104 708 99 707 100 708 l 113 708 b 118 703 117 708 118 707 l 118 246 b 360 -1 118 81 199 -1 b 599 43 450 -1 529 14 b 635 100 631 58 635 71 l 635 703 b 640 708 635 707 636 708 "},"Ŭ":{"ha":939,"x_min":0,"x_max":0,"o":"m 675 1224 b 469 1064 646 1113 582 1064 b 264 1224 357 1064 293 1113 b 267 1231 263 1226 264 1229 l 276 1233 b 283 1229 281 1235 282 1233 b 469 1083 310 1128 365 1083 b 656 1229 574 1083 629 1128 b 663 1233 657 1233 658 1235 l 672 1231 b 675 1224 675 1229 676 1226 m 133 332 b 469 -1 133 125 247 -1 b 806 332 692 -1 806 125 l 806 981 b 811 986 806 985 807 986 l 821 986 b 826 981 825 986 826 985 l 826 332 b 469 -21 826 111 704 -21 b 113 332 235 -21 113 111 l 113 981 b 118 986 113 985 114 986 l 128 986 b 133 981 132 986 133 985 "},"ŭ":{"ha":756,"x_min":0,"x_max":0,"o":"m 582 969 b 376 810 553 858 489 810 b 171 969 264 810 200 858 b 174 976 169 972 171 975 l 183 979 b 190 975 188 981 189 979 b 376 829 217 874 272 829 b 563 975 481 829 536 874 b 569 979 564 979 565 981 l 579 976 b 582 969 582 975 583 972 m 649 708 b 654 703 653 708 654 707 l 654 100 b 603 25 654 60 643 43 b 360 -19 529 -4 449 -19 b 99 244 186 -19 99 68 l 99 703 b 104 708 99 707 100 708 l 113 708 b 118 703 117 708 118 707 l 118 246 b 360 -1 118 81 199 -1 b 599 43 450 -1 529 14 b 635 100 631 58 635 71 l 635 703 b 640 708 635 707 636 708 "},"Ů":{"ha":939,"x_min":0,"x_max":0,"o":"m 374 1065 b 339 1157 350 1088 339 1118 b 374 1249 339 1196 350 1226 b 469 1282 397 1271 429 1282 b 596 1157 549 1282 596 1235 b 469 1032 596 1079 549 1032 b 374 1065 429 1032 397 1043 m 550 1078 b 579 1157 569 1097 579 1124 b 550 1236 579 1190 569 1217 b 469 1265 531 1256 504 1265 b 356 1157 399 1265 356 1224 b 469 1049 356 1090 399 1049 b 550 1078 504 1049 531 1058 m 133 332 b 469 -1 133 125 247 -1 b 806 332 692 -1 806 125 l 806 981 b 811 986 806 985 807 986 l 821 986 b 826 981 825 986 826 985 l 826 332 b 469 -21 826 111 704 -21 b 113 332 235 -21 113 111 l 113 981 b 118 986 113 985 114 986 l 128 986 b 133 981 132 986 133 985 "},"ů":{"ha":756,"x_min":0,"x_max":0,"o":"m 292 804 b 257 896 268 826 257 857 b 292 988 257 935 268 965 b 388 1021 315 1010 347 1021 b 514 896 467 1021 514 974 b 388 771 514 818 467 771 b 292 804 347 771 315 782 m 468 817 b 497 896 488 836 497 863 b 468 975 497 929 488 956 b 388 1004 449 994 422 1004 b 274 896 317 1004 274 963 b 388 788 274 829 317 788 b 468 817 422 788 449 797 m 649 708 b 654 703 653 708 654 707 l 654 100 b 603 25 654 60 643 43 b 360 -19 529 -4 449 -19 b 99 244 186 -19 99 68 l 99 703 b 104 708 99 707 100 708 l 113 708 b 118 703 117 708 118 707 l 118 246 b 360 -1 118 81 199 -1 b 599 43 450 -1 529 14 b 635 100 631 58 635 71 l 635 703 b 640 708 635 707 636 708 "},"Ű":{"ha":939,"x_min":0,"x_max":0,"o":"m 447 1236 b 457 1240 451 1240 454 1242 l 468 1239 b 471 1232 474 1238 475 1236 l 308 1063 b 299 1060 306 1058 303 1058 l 290 1063 b 289 1069 286 1064 285 1065 m 693 1236 b 703 1240 697 1240 700 1242 l 714 1239 b 717 1232 719 1238 721 1236 l 554 1063 b 544 1060 551 1058 549 1058 l 536 1063 b 535 1069 532 1064 532 1065 m 133 332 b 469 -1 133 125 247 -1 b 806 332 692 -1 806 125 l 806 981 b 811 986 806 985 807 986 l 821 986 b 826 981 825 986 826 985 l 826 332 b 469 -21 826 111 704 -21 b 113 332 235 -21 113 111 l 113 981 b 118 986 113 985 114 986 l 128 986 b 133 981 132 986 133 985 "},"ű":{"ha":756,"x_min":0,"x_max":0,"o":"m 354 978 b 364 982 358 982 361 983 l 375 981 b 378 974 381 979 382 978 l 215 804 b 206 801 213 800 210 800 l 197 804 b 196 811 193 806 193 807 m 603 975 b 613 979 607 979 610 981 l 624 978 b 626 971 629 976 631 975 l 458 807 b 449 804 456 803 453 803 l 440 807 b 439 814 436 808 435 810 m 649 708 b 654 703 653 708 654 707 l 654 100 b 603 25 654 60 643 43 b 360 -19 529 -4 449 -19 b 99 244 186 -19 99 68 l 99 703 b 104 708 99 707 100 708 l 113 708 b 118 703 117 708 118 707 l 118 246 b 360 -1 118 81 199 -1 b 599 43 450 -1 529 14 b 635 100 631 58 635 71 l 635 703 b 640 708 635 707 636 708 "},"Ų":{"ha":939,"x_min":0,"x_max":0,"o":"m 821 986 b 826 981 825 986 826 985 l 826 332 b 694 39 826 196 782 99 b 542 -128 633 -7 582 -62 b 500 -275 501 -193 488 -242 b 574 -324 513 -307 536 -324 b 681 -275 615 -324 651 -307 b 686 -276 683 -272 685 -272 l 689 -286 b 686 -294 690 -289 689 -292 b 569 -344 651 -328 613 -344 b 481 -286 524 -344 494 -325 b 506 -153 468 -251 476 -207 b 629 6 535 -99 575 -46 b 469 -21 586 -12 532 -21 b 113 332 235 -21 113 111 l 113 981 b 118 986 113 985 114 986 l 128 986 b 133 981 132 986 133 985 l 133 332 b 469 -1 133 125 247 -1 b 806 332 692 -1 806 125 l 806 981 b 811 986 806 985 807 986 "},"ų":{"ha":756,"x_min":0,"x_max":0,"o":"m 649 708 b 654 703 653 708 654 707 l 654 100 b 626 38 654 71 644 50 b 492 -125 568 -6 524 -60 b 464 -275 460 -189 450 -239 b 538 -324 476 -307 500 -324 b 644 -275 579 -324 615 -307 b 650 -276 647 -272 649 -272 l 653 -286 b 650 -294 654 -289 653 -292 b 533 -344 615 -328 576 -344 b 444 -286 488 -344 458 -325 b 460 -144 431 -250 436 -203 b 575 15 483 -86 522 -33 b 360 -19 513 -8 442 -19 b 99 244 186 -19 99 68 l 99 703 b 104 708 99 707 100 708 l 113 708 b 118 703 117 708 118 707 l 118 246 b 360 -1 118 81 199 -1 b 599 43 450 -1 529 14 b 635 100 631 58 635 71 l 635 703 b 640 708 635 707 636 708 "},"Ŵ":{"ha":1192,"x_min":0,"x_max":0,"o":"m 600 1240 b 615 1233 604 1240 610 1238 l 817 1069 b 813 1064 821 1065 819 1064 l 801 1064 b 789 1068 797 1064 793 1065 l 599 1221 l 407 1068 b 396 1064 403 1065 399 1064 l 383 1064 b 379 1069 376 1064 375 1065 l 582 1233 b 596 1240 588 1238 592 1240 m 1154 986 b 1158 981 1158 986 1160 985 l 889 7 b 879 0 888 3 885 0 l 871 0 b 861 7 865 0 863 3 l 631 810 b 599 924 625 831 604 904 l 597 924 l 564 810 l 333 7 b 324 0 332 3 329 0 l 315 0 b 306 7 310 0 307 3 l 36 981 b 40 986 35 985 36 986 l 50 986 b 58 981 54 986 57 985 l 290 143 l 319 33 l 321 33 l 351 142 l 585 953 b 593 958 586 957 589 958 l 603 958 b 611 953 607 958 610 957 l 844 139 l 875 33 l 876 33 b 903 138 882 57 897 115 l 1136 981 b 1144 986 1138 985 1140 986 "},"ŵ":{"ha":1010,"x_min":0,"x_max":0,"o":"m 510 972 b 525 965 514 972 519 969 l 722 804 b 718 799 726 800 725 799 l 707 799 b 694 803 703 799 699 800 l 508 953 l 321 803 b 310 799 317 800 313 799 l 297 799 b 294 804 292 799 290 800 l 492 965 b 506 972 497 969 501 972 m 972 708 b 976 701 976 708 978 706 l 750 -1 b 743 -8 749 -6 746 -8 l 733 -8 b 725 -1 729 -8 726 -6 l 538 558 b 507 649 528 585 517 615 l 506 649 b 475 558 496 615 485 585 l 289 -1 b 281 -8 288 -6 285 -8 l 271 -8 b 264 -1 268 -8 265 -6 l 39 701 b 43 708 38 706 39 708 l 51 708 b 60 701 56 708 58 706 l 239 140 l 276 25 l 278 25 l 317 143 l 494 675 b 503 681 496 679 499 681 l 511 681 b 518 675 515 681 517 679 l 694 150 l 736 25 l 738 25 l 776 147 l 956 703 b 964 708 957 707 960 708 "},"Ŷ":{"ha":846,"x_min":0,"x_max":0,"o":"m 428 1240 b 443 1233 432 1240 438 1238 l 644 1069 b 640 1064 649 1065 647 1064 l 629 1064 b 617 1068 625 1064 621 1065 l 426 1221 l 235 1068 b 224 1064 231 1065 228 1064 l 211 1064 b 207 1069 204 1064 203 1065 l 410 1233 b 424 1240 415 1238 419 1240 m 822 986 b 826 981 826 986 828 985 l 436 411 l 436 6 b 431 0 436 1 435 0 l 421 0 b 415 6 417 0 415 1 l 415 413 l 26 981 b 31 986 25 985 26 986 l 43 986 b 53 981 47 986 50 985 l 426 433 l 800 981 b 810 986 803 985 806 986 "},"ŷ":{"ha":760,"x_min":0,"x_max":0,"o":"m 378 972 b 393 965 382 972 388 969 l 590 804 b 586 799 594 800 593 799 l 575 799 b 563 803 571 799 567 800 l 376 953 l 189 803 b 178 799 185 800 181 799 l 165 799 b 163 804 160 799 158 800 l 360 965 b 374 972 365 969 369 972 m 649 708 b 654 703 653 708 654 707 l 654 -62 b 371 -361 654 -261 560 -361 b 107 -194 247 -361 158 -306 b 110 -186 104 -190 106 -187 l 115 -183 b 124 -186 119 -182 122 -182 b 371 -342 172 -290 256 -342 b 635 -62 547 -342 635 -249 l 635 38 b 360 -19 539 0 447 -19 b 99 244 186 -19 99 68 l 99 703 b 104 708 99 707 100 708 l 113 708 b 118 703 117 708 118 707 l 118 246 b 360 -1 118 81 199 -1 b 635 57 450 -1 542 18 l 635 703 b 640 708 635 707 636 708 "},"Ÿ":{"ha":846,"x_min":0,"x_max":0,"o":"m 300 1165 b 315 1150 310 1165 315 1160 l 315 1142 b 300 1126 315 1129 313 1126 l 292 1126 b 276 1142 282 1126 276 1132 l 276 1150 b 292 1165 276 1160 282 1165 m 560 1165 b 576 1150 571 1165 576 1160 l 576 1142 b 560 1126 576 1132 571 1126 l 553 1126 b 536 1142 540 1126 536 1129 l 536 1150 b 553 1165 536 1160 542 1165 m 822 986 b 826 981 826 986 828 985 l 436 411 l 436 6 b 431 0 436 1 435 0 l 421 0 b 415 6 417 0 415 1 l 415 413 l 26 981 b 31 986 25 985 26 986 l 43 986 b 53 981 47 986 50 985 l 426 433 l 800 981 b 810 986 803 985 806 986 "},"Ź":{"ha":753,"x_min":0,"x_max":0,"o":"m 497 1238 b 510 1236 501 1240 506 1240 l 514 1232 b 513 1222 518 1228 517 1225 l 264 1064 b 254 1065 260 1063 257 1063 l 249 1071 b 250 1079 246 1074 246 1076 m 692 986 b 697 981 696 986 697 985 l 697 975 b 694 964 697 971 696 967 l 68 21 l 711 21 b 717 15 715 21 717 19 l 717 6 b 711 0 717 1 715 0 l 49 0 b 43 6 44 0 43 1 l 43 13 b 47 26 43 18 44 22 l 671 967 l 54 967 b 49 972 50 967 49 968 l 49 981 b 54 986 49 985 50 986 "},"ź":{"ha":608,"x_min":0,"x_max":0,"o":"m 421 986 b 433 985 425 989 429 989 l 438 981 b 436 971 442 976 440 974 l 188 813 b 178 814 183 811 181 811 l 172 819 b 174 828 169 822 169 825 m 561 18 b 565 13 564 18 565 17 l 565 6 b 561 0 565 1 564 0 l 49 0 b 43 6 44 0 43 1 l 43 13 b 47 22 43 15 44 18 l 536 690 l 53 690 b 49 696 50 690 49 692 l 49 703 b 53 708 49 707 50 708 l 554 708 b 560 703 558 708 560 707 l 560 696 b 556 685 560 692 558 689 l 68 18 "},"Ż":{"ha":753,"x_min":0,"x_max":0,"o":"m 383 1158 b 400 1142 394 1158 400 1153 l 400 1136 b 383 1119 400 1125 394 1119 l 378 1119 b 361 1136 367 1119 361 1125 l 361 1142 b 378 1158 361 1153 367 1158 m 692 986 b 697 981 696 986 697 985 l 697 975 b 694 964 697 971 696 967 l 68 21 l 711 21 b 717 15 715 21 717 19 l 717 6 b 711 0 717 1 715 0 l 49 0 b 43 6 44 0 43 1 l 43 13 b 47 26 43 18 44 22 l 671 967 l 54 967 b 49 972 50 967 49 968 l 49 981 b 54 986 49 985 50 986 "},"ż":{"ha":608,"x_min":0,"x_max":0,"o":"m 307 907 b 324 890 318 907 324 901 l 324 885 b 307 868 324 874 318 868 l 301 868 b 285 885 290 868 285 874 l 285 890 b 301 907 285 901 290 907 m 561 18 b 565 13 564 18 565 17 l 565 6 b 561 0 565 1 564 0 l 49 0 b 43 6 44 0 43 1 l 43 13 b 47 22 43 15 44 18 l 536 690 l 53 690 b 49 696 50 690 49 692 l 49 703 b 53 708 49 707 50 708 l 554 708 b 560 703 558 708 560 707 l 560 696 b 556 685 560 692 558 689 l 68 18 "},"Ž":{"ha":753,"x_min":0,"x_max":0,"o":"m 594 1242 b 597 1235 601 1242 601 1239 l 397 1072 b 382 1065 392 1068 386 1065 l 378 1065 b 364 1072 374 1065 369 1068 l 163 1235 b 165 1242 160 1238 161 1240 l 178 1242 b 189 1238 182 1242 185 1240 l 381 1085 l 571 1238 b 583 1242 575 1240 579 1242 m 692 986 b 697 981 696 986 697 985 l 697 975 b 694 964 697 971 696 967 l 68 21 l 711 21 b 717 15 715 21 717 19 l 717 6 b 711 0 717 1 715 0 l 49 0 b 43 6 44 0 43 1 l 43 13 b 47 26 43 18 44 22 l 671 967 l 54 967 b 49 972 50 967 49 968 l 49 981 b 54 986 49 985 50 986 "},"ž":{"ha":608,"x_min":0,"x_max":0,"o":"m 497 953 b 500 946 504 953 504 950 l 319 799 b 306 792 315 794 310 792 l 303 792 b 290 799 299 792 294 794 l 107 947 b 108 953 103 951 104 953 l 122 953 b 132 949 124 953 128 951 l 304 810 l 476 949 b 488 953 481 951 483 953 m 561 18 b 565 13 564 18 565 17 l 565 6 b 561 0 565 1 564 0 l 49 0 b 43 6 44 0 43 1 l 43 13 b 47 22 43 15 44 18 l 536 690 l 53 690 b 49 696 50 690 49 692 l 49 703 b 53 708 49 707 50 708 l 554 708 b 560 703 558 708 560 707 l 560 696 b 556 685 560 692 558 689 l 68 18 "},"ſ":{"ha":310,"x_min":0,"x_max":0,"o":"m 157 767 b 214 974 157 868 176 938 b 419 1028 251 1010 319 1028 b 425 1022 424 1028 425 1026 l 425 1014 b 419 1008 425 1010 424 1008 b 226 961 324 1008 260 993 b 176 767 193 929 176 864 l 176 6 b 171 0 176 1 175 0 l 163 0 b 157 6 158 0 157 1 l 157 690 l 15 690 b 10 696 11 690 10 692 l 10 703 b 15 708 10 707 11 708 l 157 708 "},"ƒ":{"ha":594,"x_min":0,"x_max":0,"o":"m 304 764 b 581 1028 322 940 415 1028 b 586 1022 585 1028 586 1026 l 586 1014 b 581 1008 586 1010 585 1008 b 325 761 414 1008 343 922 l 297 507 l 538 507 b 543 501 542 507 543 506 l 543 493 b 538 488 543 489 542 488 l 294 488 l 238 -39 b -40 -306 219 -217 126 -306 b -46 -300 -44 -306 -46 -304 l -46 -292 b -40 -286 -46 -287 -44 -286 b 217 -36 125 -286 199 -197 l 274 488 l 47 488 b 42 493 43 488 42 489 l 42 501 b 47 507 42 506 43 507 l 276 507 "},"Ǻ":{"ha":864,"x_min":0,"x_max":0,"o":"m 549 1319 b 561 1318 554 1322 558 1322 l 564 1313 b 563 1306 565 1310 565 1307 l 325 1197 b 317 1199 322 1196 319 1196 l 313 1204 b 318 1213 311 1206 313 1208 m 310 1071 b 435 1188 310 1139 361 1188 b 557 1071 507 1188 557 1139 b 456 965 557 1014 517 972 l 849 6 b 843 0 850 1 849 0 l 836 0 b 826 6 831 0 828 1 l 675 376 l 194 376 l 43 6 b 33 0 42 1 39 0 l 26 0 b 21 6 21 0 19 1 l 414 965 b 310 1071 351 972 310 1014 m 539 1071 b 435 1169 539 1128 496 1169 b 328 1071 372 1169 328 1128 b 435 982 328 1019 372 982 b 539 1071 496 982 539 1019 m 507 790 l 436 963 l 435 963 l 365 792 l 203 396 l 667 396 "},"ǻ":{"ha":701,"x_min":0,"x_max":0,"o":"m 456 1221 b 468 1219 460 1224 464 1224 l 472 1217 b 471 1210 475 1214 475 1211 l 238 1092 b 229 1093 233 1090 231 1092 l 224 1097 b 225 1104 221 1099 221 1101 m 258 840 b 224 932 235 863 224 893 b 258 1024 224 971 235 1001 b 354 1057 282 1046 314 1057 b 481 932 433 1057 481 1010 b 354 807 481 854 433 807 b 258 840 314 807 282 818 m 435 853 b 464 932 454 872 464 899 b 435 1011 464 965 454 992 b 354 1040 415 1031 389 1040 b 240 932 283 1040 240 999 b 354 824 240 865 283 824 b 435 853 389 824 415 833 m 83 581 b 351 728 135 679 224 728 b 561 647 453 728 526 700 b 610 464 596 594 610 540 l 610 96 b 560 17 610 47 599 33 b 351 -19 504 -7 435 -19 b 122 31 239 -19 163 -3 b 61 188 82 64 61 117 b 357 392 61 338 142 392 b 590 372 431 392 508 385 l 590 464 b 540 644 590 540 574 600 b 350 710 506 688 443 710 b 101 572 232 710 150 664 b 94 569 100 569 97 568 l 86 572 b 83 581 82 574 82 576 m 590 354 b 356 374 508 367 429 374 b 81 188 156 374 81 325 b 138 44 81 122 100 75 b 351 -1 175 14 246 -1 b 551 33 432 -1 499 10 b 590 96 585 49 590 56 "},"Ǽ":{"ha":1113,"x_min":0,"x_max":0,"o":"m 926 1238 b 939 1236 931 1240 935 1240 l 943 1232 b 942 1222 947 1228 946 1225 l 693 1064 b 683 1065 689 1063 686 1063 l 678 1071 b 679 1079 675 1074 675 1076 m 1050 19 b 1056 14 1054 19 1056 18 l 1056 6 b 1050 0 1056 1 1054 0 l 599 0 b 593 6 594 0 593 1 l 593 281 l 186 281 l 21 6 b 11 0 18 1 15 0 l 3 0 b -3 6 -3 0 -4 1 l 583 979 b 593 986 586 983 589 986 l 1029 986 b 1035 981 1033 986 1035 985 l 1035 972 b 1029 967 1035 968 1033 967 l 614 967 l 614 508 l 971 508 b 976 503 975 508 976 507 l 976 494 b 971 489 976 490 975 489 l 614 489 l 614 19 m 593 956 l 199 300 l 593 300 "},"ǽ":{"ha":1078,"x_min":0,"x_max":0,"o":"m 658 1000 b 671 999 663 1003 667 1003 l 675 994 b 674 985 679 990 678 988 l 425 826 b 415 828 421 825 418 825 l 410 833 b 411 842 407 836 407 839 m 86 582 b 318 728 138 679 214 728 b 532 561 456 728 514 667 b 764 728 560 672 638 728 b 1010 444 928 728 1010 633 l 1010 375 b 990 357 1010 363 1003 357 l 539 357 l 539 243 b 758 -1 539 81 613 -1 b 897 36 821 -1 867 11 b 985 156 926 60 956 100 b 993 158 988 160 990 160 l 1000 154 b 1001 147 1003 153 1003 151 b 910 21 972 90 942 47 b 758 -19 878 -6 826 -19 b 544 97 650 -19 579 19 b 318 -19 513 19 436 -19 b 63 183 124 -19 63 43 b 324 389 63 333 133 389 b 519 369 386 389 451 382 l 519 467 b 486 636 519 540 513 586 b 317 710 460 685 404 710 b 104 574 222 710 151 664 b 97 571 103 571 100 569 l 89 574 b 86 582 85 575 85 578 m 990 444 b 764 710 990 615 925 710 b 539 444 603 710 539 617 l 539 375 l 990 375 m 519 351 b 322 371 449 364 382 371 b 82 183 144 371 82 321 b 318 -1 82 56 139 -1 b 489 51 400 -1 460 18 b 535 126 518 85 525 99 b 519 243 525 157 519 196 "},"Ǿ":{"ha":911,"x_min":0,"x_max":0,"o":"m 585 1251 b 597 1250 589 1254 593 1254 l 601 1246 b 600 1236 606 1242 604 1239 l 351 1078 b 342 1079 347 1076 344 1076 l 336 1085 b 338 1093 333 1088 333 1090 m 822 1039 b 825 1035 826 1039 826 1038 l 740 903 b 821 669 794 844 821 767 l 821 317 b 457 -19 821 106 692 -19 b 200 57 347 -19 263 6 l 126 -58 b 117 -62 125 -61 121 -62 l 104 -62 b 101 -58 101 -62 100 -61 l 183 71 b 90 317 121 128 90 210 l 90 669 b 457 1006 90 881 219 1006 b 725 918 572 1006 663 976 l 800 1035 b 808 1039 801 1038 804 1039 m 714 900 b 457 986 654 957 568 986 b 111 668 233 986 111 868 l 111 318 b 196 89 111 219 139 143 m 211 75 b 457 0 271 25 353 0 b 800 318 678 0 800 118 l 800 668 b 729 883 800 758 776 831 "},"ǿ":{"ha":743,"x_min":0,"x_max":0,"o":"m 488 986 b 500 985 492 989 496 989 l 504 981 b 503 971 508 976 507 974 l 254 813 b 244 814 250 811 247 811 l 239 819 b 240 828 236 822 236 825 m 642 767 b 643 763 643 767 644 765 l 582 665 b 661 497 635 625 661 568 l 661 211 b 371 -19 661 68 547 -19 b 179 31 294 -19 231 -3 l 132 -44 b 124 -49 129 -47 126 -49 l 110 -49 b 108 -44 108 -49 107 -46 l 163 42 b 82 211 108 83 82 140 l 82 497 b 371 728 82 638 199 728 b 565 678 450 728 514 711 l 621 764 b 628 767 622 765 625 767 m 556 661 b 371 710 506 693 444 710 b 101 499 211 710 101 626 l 101 210 b 174 58 101 147 125 96 m 189 47 b 371 -1 238 15 297 -1 b 642 210 533 -1 642 82 l 642 499 b 571 649 642 561 618 611 "},"Ș":{"ha":858,"x_min":0,"x_max":0,"o":"m 88 740 b 424 1006 88 906 214 1006 b 788 788 606 1006 711 939 b 785 779 790 783 789 781 l 778 776 b 769 778 774 775 771 776 b 424 985 697 922 596 985 b 108 742 228 985 108 893 b 257 542 115 626 161 572 b 447 504 324 519 364 514 b 550 492 490 500 525 496 b 640 468 575 488 606 479 b 721 425 675 456 701 442 b 790 253 758 392 790 332 b 435 -19 790 71 672 -19 b 64 229 250 -19 135 57 b 67 239 63 233 63 238 l 74 242 b 82 239 78 243 81 242 b 435 1 153 74 261 1 b 769 251 658 1 769 85 b 669 432 769 349 725 397 b 526 472 636 453 565 467 b 444 483 507 475 479 479 b 244 524 357 494 315 500 b 161 568 210 536 182 550 b 88 740 121 601 88 661 m 414 -340 b 406 -347 413 -344 410 -347 l 400 -347 b 394 -340 396 -347 393 -344 l 460 -136 b 468 -131 461 -132 464 -131 l 475 -131 b 481 -137 479 -131 482 -133 "},"ș":{"ha":678,"x_min":0,"x_max":0,"o":"m 81 538 b 338 728 81 660 169 728 b 607 575 479 728 569 676 b 606 567 608 571 608 568 l 600 564 b 592 567 596 563 593 563 b 338 710 554 661 483 710 b 100 538 179 710 100 653 b 126 436 100 493 114 458 b 199 386 139 413 179 394 b 301 365 214 379 286 367 b 361 360 311 364 332 363 b 539 318 440 353 486 344 b 617 172 592 292 617 244 b 350 -19 617 44 528 -19 b 60 158 201 -19 108 31 b 63 167 58 163 58 165 l 69 169 b 76 167 72 171 75 169 b 350 -1 117 54 208 -1 b 597 172 515 -1 597 57 b 526 304 597 238 575 281 b 360 342 476 326 438 335 b 315 346 336 343 321 344 b 275 351 310 347 296 349 b 235 357 254 353 240 356 b 165 381 222 361 176 369 b 96 451 139 396 106 418 b 81 538 83 474 81 504 m 325 -299 b 317 -306 324 -303 321 -306 l 311 -306 b 306 -299 307 -306 304 -303 l 364 -83 b 371 -78 365 -79 367 -78 l 379 -78 b 385 -83 383 -78 386 -79 "},"Ț":{"ha":721,"x_min":0,"x_max":0,"o":"m 697 986 b 703 981 701 986 703 985 l 703 972 b 697 967 703 968 701 967 l 371 967 l 371 6 b 365 0 371 1 369 0 l 356 0 b 350 6 351 0 350 1 l 350 967 l 24 967 b 18 972 19 967 18 968 l 18 981 b 24 986 18 985 19 986 m 319 -328 b 311 -335 318 -332 315 -335 l 306 -335 b 300 -328 301 -335 299 -332 l 365 -124 b 374 -118 367 -119 369 -118 l 381 -118 b 386 -125 385 -118 388 -121 "},"ț":{"ha":453,"x_min":0,"x_max":0,"o":"m 193 875 b 199 869 197 875 199 874 l 199 708 l 444 708 b 450 703 449 708 450 707 l 450 696 b 444 690 450 692 449 690 l 199 690 l 199 240 b 249 47 199 143 215 79 b 442 0 282 15 346 0 b 447 -6 446 0 447 -1 l 447 -14 b 442 -19 447 -18 446 -19 b 236 35 342 -19 274 -1 b 179 240 199 69 179 139 l 179 690 l 8 690 b 3 696 4 690 3 692 l 3 703 b 8 708 3 707 4 708 l 179 708 l 179 869 b 185 875 179 874 181 875 m 249 -328 b 240 -335 247 -332 244 -335 l 235 -335 b 229 -328 231 -335 228 -332 l 294 -124 b 303 -118 296 -119 299 -118 l 310 -118 b 315 -125 314 -118 317 -121 "},"ȷ":{"ha":231,"x_min":0,"x_max":0,"o":"m 119 708 b 125 703 124 708 125 707 l 125 -14 b -132 -319 125 -221 61 -319 b -137 -314 -136 -319 -137 -318 l -137 -306 b -132 -300 -137 -301 -136 -300 b 106 -15 47 -300 106 -210 l 106 703 b 111 708 106 707 107 708 "},"ˆ":{"ha":500,"x_min":0,"x_max":0,"o":"m 257 992 b 272 985 261 992 267 989 l 474 821 b 469 815 478 817 476 815 l 458 815 b 446 819 454 815 450 817 l 256 972 l 64 819 b 53 815 60 817 57 815 l 40 815 b 36 821 33 815 32 817 l 239 985 b 253 992 244 989 249 992 "},"ˇ":{"ha":461,"x_min":0,"x_max":0,"o":"m 451 992 b 454 985 458 992 458 989 l 254 822 b 239 815 249 818 243 815 l 235 815 b 221 822 231 815 226 818 l 18 986 b 19 992 14 990 15 992 l 35 992 b 46 988 38 992 42 990 l 238 835 l 428 988 b 440 992 432 990 436 992 "},"˘":{"ha":399,"x_min":0,"x_max":0,"o":"m 399 983 b 193 824 369 872 306 824 b -12 983 81 824 17 872 b -10 990 -14 986 -12 989 l 0 993 b 7 989 4 994 6 993 b 193 843 33 888 89 843 b 379 989 297 843 353 888 b 386 993 381 993 382 994 l 396 990 b 399 983 399 989 400 986 "},"˙":{"ha":300,"x_min":0,"x_max":0,"o":"m 153 921 b 169 904 164 921 169 915 l 169 899 b 153 882 169 888 164 882 l 147 882 b 131 899 136 882 131 888 l 131 904 b 147 921 131 915 136 921 "},"˚":{"ha":333,"x_min":0,"x_max":0,"o":"m 74 783 b 39 875 50 806 39 836 b 74 967 39 914 50 944 b 169 1000 97 989 129 1000 b 296 875 249 1000 296 953 b 169 750 296 797 249 750 b 74 783 129 750 97 761 m 250 796 b 279 875 269 815 279 842 b 250 954 279 908 269 935 b 169 983 231 974 204 983 b 56 875 99 983 56 942 b 169 767 56 808 99 767 b 250 796 204 767 231 776 "},"˛":{"ha":350,"x_min":0,"x_max":0,"o":"m 278 0 b 144 -146 218 -44 174 -93 b 121 -275 115 -197 107 -240 b 194 -324 133 -307 157 -324 b 301 -275 236 -324 272 -307 b 307 -276 304 -272 306 -272 l 310 -286 b 307 -294 311 -289 310 -292 b 190 -344 272 -328 233 -344 b 101 -286 144 -344 115 -325 b 253 0 72 -208 129 -90 "},"˜":{"ha":424,"x_min":0,"x_max":0,"o":"m 421 967 b 426 961 425 967 426 965 b 328 840 426 889 393 840 b 210 894 293 840 254 858 b 97 949 164 931 126 949 b 17 846 47 949 17 907 b 11 840 17 842 15 840 l 3 840 b -3 846 -1 840 -3 842 b 97 967 -3 918 35 967 b 328 858 185 971 253 854 b 407 961 379 858 407 900 b 413 967 407 965 408 967 "},"˝":{"ha":549,"x_min":0,"x_max":0,"o":"m 247 992 b 257 996 251 996 254 997 l 268 994 b 271 988 274 993 275 992 l 108 818 b 99 815 106 814 103 814 l 90 818 b 89 825 86 819 85 821 m 496 989 b 506 993 500 993 503 994 l 517 992 b 519 985 522 990 524 989 l 351 821 b 342 818 349 817 346 817 l 333 821 b 332 828 329 822 328 824 "},"̦":{"ha":0,"x_min":0,"x_max":0,"o":"m 121 -328 b 113 -335 119 -332 117 -335 l 107 -335 b 101 -328 103 -335 100 -332 l 167 -124 b 175 -118 168 -119 171 -118 l 182 -118 b 188 -125 186 -118 189 -121 "},"π":{"ha":818,"x_min":0,"x_max":0,"o":"m 796 708 b 801 703 800 708 801 707 l 801 696 b 796 690 801 692 800 690 l 678 690 l 678 197 b 724 13 678 121 693 60 b 722 3 726 8 726 6 l 715 -1 b 707 1 713 -3 710 -3 b 658 197 675 50 658 115 l 658 690 l 233 690 l 233 6 b 228 0 233 1 232 0 l 219 0 b 214 6 215 0 214 1 l 214 690 b 32 638 149 689 89 672 b 22 638 28 635 24 635 l 18 644 b 21 653 17 649 17 651 b 231 708 79 690 149 708 "},"Ё":{"ha":786,"x_min":0,"x_max":0,"o":"m 289 1150 b 304 1135 299 1150 304 1144 l 304 1126 b 289 1111 304 1114 301 1111 l 281 1111 b 265 1126 271 1111 265 1117 l 265 1135 b 281 1150 265 1144 271 1150 m 549 1150 b 565 1135 560 1150 565 1144 l 565 1126 b 549 1111 565 1117 560 1111 l 542 1111 b 525 1126 529 1111 525 1114 l 525 1135 b 542 1150 525 1144 531 1150 m 700 986 b 706 981 704 986 706 985 l 706 972 b 700 967 706 968 704 967 l 142 967 l 142 510 l 642 510 b 647 504 646 510 647 508 l 647 496 b 642 490 647 492 646 490 l 142 490 l 142 19 l 721 19 b 726 14 725 19 726 18 l 726 6 b 721 0 726 1 725 0 l 126 0 b 121 6 122 0 121 1 l 121 981 b 126 986 121 985 122 986 "},"А":{"ha":864,"x_min":0,"x_max":0,"o":"m 849 6 b 843 0 850 1 849 0 l 836 0 b 826 6 831 0 828 1 l 681 363 l 189 363 l 43 6 b 33 0 42 1 39 0 l 26 0 b 21 6 21 0 19 1 l 421 988 b 431 994 422 992 426 994 l 439 994 b 449 988 443 994 447 992 m 440 953 b 435 969 440 957 435 963 l 433 969 l 429 953 l 196 382 l 674 382 "},"Б":{"ha":863,"x_min":0,"x_max":0,"o":"m 732 986 b 738 981 736 986 738 985 l 738 972 b 732 967 738 968 736 967 l 142 967 l 142 533 l 539 533 b 810 267 710 533 810 438 b 539 0 810 96 710 0 l 126 0 b 121 6 122 0 121 1 l 121 981 b 126 986 121 985 122 986 m 724 83 b 789 267 767 126 789 188 b 724 450 789 346 767 407 b 538 514 679 493 617 514 l 142 514 l 142 19 l 538 19 b 724 83 617 19 679 40 "},"В":{"ha":883,"x_min":0,"x_max":0,"o":"m 525 986 b 776 742 686 986 776 901 b 618 507 776 615 724 538 l 618 506 b 810 258 742 483 810 397 b 547 0 810 93 714 0 l 126 0 b 121 6 122 0 121 1 l 121 981 b 126 986 121 985 122 986 m 696 572 b 756 742 736 611 756 668 b 696 910 756 815 736 872 b 524 967 656 947 599 967 l 142 967 l 142 514 l 524 514 b 696 572 599 514 656 533 m 726 82 b 789 258 768 122 789 182 b 726 435 789 335 768 394 b 546 494 683 475 624 494 l 142 494 l 142 19 l 546 19 b 726 82 624 19 683 40 "},"Г":{"ha":700,"x_min":0,"x_max":0,"o":"m 669 986 b 675 981 674 986 675 985 l 675 972 b 669 967 675 968 674 967 l 142 967 l 142 6 b 136 0 142 1 140 0 l 126 0 b 121 6 122 0 121 1 l 121 981 b 126 986 121 985 122 986 "},"Д":{"ha":949,"x_min":0,"x_max":0,"o":"m 801 986 b 807 981 806 986 807 985 l 807 19 l 911 19 b 917 14 915 19 917 18 l 917 -207 b 911 -212 917 -211 915 -212 l 901 -212 b 896 -207 897 -212 896 -211 l 896 0 l 36 0 l 36 -207 b 31 -212 36 -211 35 -212 l 21 -212 b 15 -207 17 -212 15 -211 l 15 14 b 21 19 15 18 17 19 l 89 19 b 144 71 111 35 129 53 b 194 168 160 89 176 122 b 251 703 232 261 251 442 l 251 981 b 257 986 251 985 253 986 m 271 967 l 271 703 b 219 182 271 454 253 276 b 121 19 186 86 161 51 l 786 19 l 786 967 "},"Е":{"ha":786,"x_min":0,"x_max":0,"o":"m 700 986 b 706 981 704 986 706 985 l 706 972 b 700 967 706 968 704 967 l 142 967 l 142 510 l 642 510 b 647 504 646 510 647 508 l 647 496 b 642 490 647 492 646 490 l 142 490 l 142 19 l 721 19 b 726 14 725 19 726 18 l 726 6 b 721 0 726 1 725 0 l 126 0 b 121 6 122 0 121 1 l 121 981 b 126 986 121 985 122 986 "},"Ж":{"ha":1238,"x_min":0,"x_max":0,"o":"m 1192 986 b 1196 979 1197 986 1199 983 l 872 500 b 1035 356 949 482 994 438 l 1210 7 b 1206 0 1213 3 1211 0 l 1199 0 b 1188 6 1194 0 1190 1 l 1017 344 b 782 490 965 446 903 490 l 633 490 l 633 6 b 628 0 633 1 632 0 l 618 0 b 613 6 614 0 613 1 l 613 490 l 464 490 b 229 344 343 490 281 446 l 58 6 b 47 0 56 1 51 0 l 40 0 b 36 7 35 0 33 3 l 211 356 b 374 500 251 438 297 482 l 50 979 b 54 986 47 983 49 986 l 63 986 b 75 981 68 986 72 985 l 397 506 b 464 510 417 508 439 510 l 613 510 l 613 981 b 618 986 613 985 614 986 l 628 986 b 633 981 632 986 633 985 l 633 510 l 782 510 b 849 506 807 510 829 508 l 1171 981 b 1183 986 1174 985 1178 986 "},"З":{"ha":839,"x_min":0,"x_max":0,"o":"m 739 735 b 597 508 739 629 693 538 b 768 263 708 479 768 390 b 429 -19 768 85 656 -19 b 63 233 211 -19 108 63 b 67 242 61 238 63 240 l 74 244 b 82 240 78 246 81 244 b 429 0 131 75 224 0 b 749 263 642 0 749 96 b 518 497 749 406 664 497 l 231 497 b 225 503 226 497 225 499 l 225 511 b 231 517 225 515 226 517 l 518 517 b 721 735 656 517 721 613 b 431 986 721 896 619 986 b 90 754 231 986 136 917 b 82 751 89 750 86 750 l 75 753 b 71 761 71 754 69 757 b 431 1006 117 928 218 1006 b 739 735 632 1006 739 907 "},"И":{"ha":954,"x_min":0,"x_max":0,"o":"m 828 986 b 833 981 832 986 833 985 l 833 6 b 828 0 833 1 832 0 l 818 0 b 813 6 814 0 813 1 l 813 703 b 814 826 813 731 813 772 l 814 949 l 813 949 l 654 725 l 144 6 b 135 0 142 1 139 0 l 126 0 b 121 6 122 0 121 1 l 121 981 b 126 986 121 985 122 986 l 136 986 b 142 981 140 986 142 985 l 142 308 l 142 38 l 143 38 l 315 283 l 811 982 b 819 986 813 985 815 986 "},"Й":{"ha":954,"x_min":0,"x_max":0,"o":"m 694 1228 b 482 1075 665 1121 600 1075 b 271 1228 365 1075 300 1121 b 274 1233 269 1229 271 1232 l 283 1236 b 290 1232 288 1238 289 1236 b 482 1093 318 1136 376 1093 b 674 1232 588 1093 647 1136 b 681 1236 675 1236 676 1238 l 692 1233 b 694 1228 694 1232 696 1229 m 828 986 b 833 981 832 986 833 985 l 833 6 b 828 0 833 1 832 0 l 818 0 b 813 6 814 0 813 1 l 813 703 b 814 826 813 731 813 772 l 814 949 l 813 949 l 654 725 l 144 6 b 135 0 142 1 139 0 l 126 0 b 121 6 122 0 121 1 l 121 981 b 126 986 121 985 122 986 l 136 986 b 142 981 140 986 142 985 l 142 308 l 142 38 l 143 38 l 315 283 l 811 982 b 819 986 813 985 815 986 "},"К":{"ha":818,"x_min":0,"x_max":0,"o":"m 788 7 b 783 0 790 3 789 0 l 776 0 b 765 6 772 0 768 1 l 594 344 b 360 490 543 446 481 490 l 142 490 l 142 6 b 136 0 142 1 140 0 l 126 0 b 121 6 122 0 121 1 l 121 981 b 126 986 121 985 122 986 l 136 986 b 142 981 140 986 142 985 l 142 510 l 360 510 b 401 508 379 510 393 510 l 749 981 b 761 986 751 985 756 986 l 769 986 b 774 979 775 986 776 983 l 425 506 b 613 356 515 490 568 444 "},"Л":{"ha":882,"x_min":0,"x_max":0,"o":"m 760 986 b 765 981 764 986 765 985 l 765 6 b 760 0 765 1 764 0 l 750 0 b 744 6 746 0 744 1 l 744 967 l 231 967 l 231 647 b 176 129 235 371 206 213 b 89 18 158 74 113 35 b 33 -12 76 10 58 0 b 22 -18 29 -15 25 -17 b 14 -17 18 -19 15 -19 l 10 -8 b 13 0 7 -4 8 -1 b 106 60 58 24 71 29 b 171 182 139 90 149 119 b 210 647 200 269 210 411 l 210 981 b 215 986 210 985 211 986 "},"М":{"ha":1096,"x_min":0,"x_max":0,"o":"m 969 986 b 975 981 974 986 975 985 l 975 6 b 969 0 975 1 974 0 l 960 0 b 954 6 956 0 954 1 l 956 728 l 956 942 l 954 942 l 856 767 l 564 249 b 554 242 563 244 558 242 l 546 242 b 535 249 542 242 538 244 l 239 774 l 143 943 l 142 943 l 142 728 l 142 6 b 136 0 142 1 140 0 l 126 0 b 121 6 122 0 121 1 l 121 981 b 126 986 121 985 122 986 l 135 986 b 144 979 139 986 142 983 l 550 267 l 950 978 b 961 986 953 983 957 986 "},"Н":{"ha":939,"x_min":0,"x_max":0,"o":"m 813 986 b 818 981 817 986 818 985 l 818 6 b 813 0 818 1 817 0 l 803 0 b 797 6 799 0 797 1 l 797 490 l 142 490 l 142 6 b 136 0 142 1 140 0 l 126 0 b 121 6 122 0 121 1 l 121 981 b 126 986 121 985 122 986 l 136 986 b 142 981 140 986 142 985 l 142 510 l 797 510 l 797 981 b 803 986 797 985 799 986 "},"О":{"ha":911,"x_min":0,"x_max":0,"o":"m 90 669 b 457 1006 90 881 219 1006 b 821 669 692 1006 821 881 l 821 317 b 457 -19 821 106 692 -19 b 90 317 219 -19 90 106 m 800 668 b 457 986 800 868 678 986 b 111 668 233 986 111 868 l 111 318 b 457 0 111 118 233 0 b 800 318 678 0 800 118 "},"П":{"ha":929,"x_min":0,"x_max":0,"o":"m 803 986 b 808 981 807 986 808 985 l 808 6 b 803 0 808 1 807 0 l 793 0 b 788 6 789 0 788 1 l 788 967 l 142 967 l 142 6 b 136 0 142 1 140 0 l 126 0 b 121 6 122 0 121 1 l 121 981 b 126 986 121 985 122 986 "},"Р":{"ha":850,"x_min":0,"x_max":0,"o":"m 503 986 b 801 692 688 986 801 875 b 503 400 801 510 688 400 l 142 400 l 142 6 b 136 0 142 1 140 0 l 126 0 b 121 6 122 0 121 1 l 121 981 b 126 986 121 985 122 986 m 501 419 b 781 692 675 419 781 521 b 501 967 781 864 675 967 l 142 967 l 142 419 "},"С":{"ha":878,"x_min":0,"x_max":0,"o":"m 90 671 b 456 1006 90 882 218 1006 b 815 760 668 1006 769 926 b 811 751 817 756 815 753 l 804 750 b 796 753 800 749 797 749 b 456 986 750 915 656 986 b 113 672 232 986 113 868 l 113 315 b 456 0 113 119 235 0 b 800 242 660 0 751 75 b 808 246 801 246 804 247 l 815 243 b 819 235 819 242 821 239 b 456 -19 774 64 674 -19 b 90 317 222 -19 90 106 "},"Т":{"ha":721,"x_min":0,"x_max":0,"o":"m 697 986 b 703 981 701 986 703 985 l 703 972 b 697 967 703 968 701 967 l 371 967 l 371 6 b 365 0 371 1 369 0 l 356 0 b 350 6 351 0 350 1 l 350 967 l 24 967 b 18 972 19 967 18 968 l 18 981 b 24 986 18 985 19 986 "},"У":{"ha":792,"x_min":0,"x_max":0,"o":"m 776 986 b 781 981 781 986 782 985 l 274 6 b 263 0 271 1 267 0 l 254 0 b 250 6 249 0 247 1 l 390 275 l 13 981 b 17 986 11 985 13 986 l 26 986 b 36 981 31 986 33 985 l 401 296 l 757 981 b 767 986 760 985 763 986 "},"Ф":{"ha":1138,"x_min":0,"x_max":0,"o":"m 574 1021 b 579 1015 578 1021 579 1019 l 579 903 l 683 903 b 1058 550 926 903 1058 772 l 1058 443 b 683 90 1058 221 926 90 l 579 90 l 579 -22 b 574 -28 579 -26 578 -28 l 564 -28 b 558 -22 560 -28 558 -26 l 558 90 l 454 90 b 79 443 211 90 79 221 l 79 550 b 454 903 79 772 211 903 l 558 903 l 558 1015 b 564 1021 558 1019 560 1021 m 454 883 b 100 550 225 883 100 760 l 100 443 b 454 110 100 233 225 110 l 558 110 l 558 883 m 1038 550 b 683 883 1038 760 913 883 l 579 883 l 579 110 l 683 110 b 1038 443 913 110 1038 233 "},"Х":{"ha":825,"x_min":0,"x_max":0,"o":"m 808 10 b 807 0 813 3 813 0 l 794 0 b 785 6 790 0 788 1 l 419 485 l 54 6 b 44 0 51 1 49 0 l 32 0 b 31 10 26 0 26 3 l 406 500 l 39 981 b 43 986 38 985 39 986 l 56 986 b 65 981 60 986 63 985 l 419 517 l 774 981 b 783 986 776 985 779 986 l 796 986 b 800 981 800 986 801 985 l 433 500 "},"Ц":{"ha":946,"x_min":0,"x_max":0,"o":"m 908 19 b 914 14 913 19 914 18 l 914 -207 b 908 -212 914 -211 913 -212 l 899 -212 b 893 -207 894 -212 893 -211 l 893 0 l 126 0 b 121 6 122 0 121 1 l 121 981 b 126 986 121 985 122 986 l 136 986 b 142 981 140 986 142 985 l 142 19 l 783 19 l 783 981 b 789 986 783 985 785 986 l 799 986 b 804 981 803 986 804 985 l 804 19 "},"Ч":{"ha":854,"x_min":0,"x_max":0,"o":"m 728 986 b 733 981 732 986 733 985 l 733 6 b 728 0 733 1 732 0 l 718 0 b 713 6 714 0 713 1 l 713 421 b 401 385 622 397 519 385 b 61 725 157 385 61 499 l 61 981 b 67 986 61 985 63 986 l 76 986 b 82 981 81 986 82 985 l 82 725 b 401 404 82 507 167 404 b 713 440 519 404 622 417 l 713 981 b 718 986 713 985 714 986 "},"Ш":{"ha":1243,"x_min":0,"x_max":0,"o":"m 1117 986 b 1122 981 1121 986 1122 985 l 1122 6 b 1117 0 1122 1 1121 0 l 126 0 b 121 6 122 0 121 1 l 121 981 b 126 986 121 985 122 986 l 136 986 b 142 981 140 986 142 985 l 142 19 l 611 19 l 611 981 b 617 986 611 985 613 986 l 626 986 b 632 981 631 986 632 985 l 632 19 l 1101 19 l 1101 981 b 1107 986 1101 985 1103 986 "},"Щ":{"ha":1264,"x_min":0,"x_max":0,"o":"m 1229 19 b 1235 14 1233 19 1235 18 l 1235 -207 b 1229 -212 1235 -211 1233 -212 l 1219 -212 b 1214 -207 1215 -212 1214 -211 l 1214 0 l 126 0 b 121 6 122 0 121 1 l 121 981 b 126 986 121 985 122 986 l 136 986 b 142 981 140 986 142 985 l 142 19 l 611 19 l 611 981 b 617 986 611 985 613 986 l 626 986 b 632 981 631 986 632 985 l 632 19 l 1101 19 l 1101 981 b 1107 986 1101 985 1103 986 l 1117 986 b 1122 981 1121 986 1122 985 l 1122 19 "},"Ъ":{"ha":990,"x_min":0,"x_max":0,"o":"m 643 586 b 942 294 828 586 942 476 b 643 0 942 111 828 0 l 267 0 b 261 6 263 0 261 1 l 261 967 l 22 967 b 17 972 18 967 17 968 l 17 981 b 22 986 17 985 18 986 l 276 986 b 282 981 281 986 282 985 l 282 586 m 642 19 b 921 294 815 19 921 122 b 642 567 921 465 815 567 l 282 567 l 282 19 "},"Ы":{"ha":1133,"x_min":0,"x_max":0,"o":"m 126 0 b 121 6 122 0 121 1 l 121 981 b 126 986 121 985 122 986 l 136 986 b 142 981 140 986 142 985 l 142 586 l 503 586 b 801 294 688 586 801 476 b 503 0 801 111 688 0 m 992 981 b 997 986 992 985 993 986 l 1007 986 b 1013 981 1011 986 1013 985 l 1013 6 b 1007 0 1013 1 1011 0 l 997 0 b 992 6 993 0 992 1 m 142 567 l 142 19 l 501 19 b 781 294 675 19 781 122 b 501 567 781 465 675 567 "},"Ь":{"ha":850,"x_min":0,"x_max":0,"o":"m 126 0 b 121 6 122 0 121 1 l 121 981 b 126 986 121 985 122 986 l 136 986 b 142 981 140 986 142 985 l 142 586 l 503 586 b 801 294 688 586 801 476 b 503 0 801 111 688 0 m 142 567 l 142 19 l 501 19 b 781 294 675 19 781 122 b 501 567 781 465 675 567 "},"Э":{"ha":883,"x_min":0,"x_max":0,"o":"m 69 761 b 429 1006 115 928 217 1006 b 794 672 668 1006 794 883 l 794 315 b 429 -19 794 104 663 -19 b 65 233 211 -19 111 63 b 69 242 64 238 65 240 l 76 244 b 85 240 81 246 83 244 b 429 0 133 74 224 0 b 772 314 650 0 772 119 l 772 489 l 271 489 b 265 494 267 489 265 490 l 265 503 b 271 508 265 507 267 508 l 772 508 l 772 674 b 429 986 772 869 656 986 b 89 754 229 986 135 917 b 81 751 88 750 85 750 l 74 753 b 69 761 69 754 68 757 "},"Ю":{"ha":1253,"x_min":0,"x_max":0,"o":"m 438 672 b 801 1006 438 882 567 1006 b 1163 672 1035 1006 1163 882 l 1163 314 b 801 -19 1163 104 1035 -19 b 438 314 567 -19 438 104 l 438 490 l 142 490 l 142 6 b 136 0 142 1 140 0 l 126 0 b 121 6 122 0 121 1 l 121 981 b 126 986 121 985 122 986 l 136 986 b 142 981 140 986 142 985 l 142 510 l 438 510 m 1142 671 b 801 986 1142 869 1022 986 b 458 671 579 986 458 869 l 458 315 b 801 0 458 117 579 0 b 1142 315 1022 0 1142 117 "},"Я":{"ha":882,"x_min":0,"x_max":0,"o":"m 85 719 b 356 986 85 890 185 986 l 760 986 b 765 981 764 986 765 985 l 765 6 b 760 0 765 1 764 0 l 750 0 b 744 6 746 0 744 1 l 744 456 l 461 456 b 228 310 339 456 276 414 l 82 6 b 71 0 79 1 75 0 l 64 0 b 60 7 58 0 57 3 l 210 321 b 339 456 242 392 285 436 b 85 719 178 463 85 557 m 357 967 b 106 719 197 967 106 876 b 357 475 106 564 200 475 l 744 475 l 744 967 "},"а":{"ha":701,"x_min":0,"x_max":0,"o":"m 83 581 b 351 728 135 679 224 728 b 561 647 453 728 526 700 b 610 464 596 594 610 540 l 610 96 b 560 17 610 47 599 33 b 351 -19 504 -7 435 -19 b 122 31 239 -19 163 -3 b 61 188 82 64 61 117 b 357 392 61 338 142 392 b 590 372 431 392 508 385 l 590 464 b 540 644 590 540 574 600 b 350 710 506 688 443 710 b 101 572 232 710 150 664 b 94 569 100 569 97 568 l 86 572 b 83 581 82 574 82 576 m 590 354 b 356 374 508 367 429 374 b 81 188 156 374 81 325 b 138 44 81 122 100 75 b 351 -1 175 14 246 -1 b 551 33 432 -1 499 10 b 590 96 585 49 590 56 "},"б":{"ha":764,"x_min":0,"x_max":0,"o":"m 525 1019 b 643 1040 581 1019 619 1026 b 651 1038 647 1043 650 1042 l 656 1029 b 651 1022 657 1028 656 1025 b 525 1000 626 1007 585 1000 l 471 1000 b 193 913 336 1000 243 971 b 118 600 143 854 118 750 l 118 561 b 392 700 179 654 271 700 b 686 440 585 700 686 606 l 686 240 b 392 -19 686 75 585 -19 b 99 240 201 -19 99 78 l 99 600 b 178 928 99 757 125 867 b 471 1019 231 989 328 1019 m 667 440 b 392 682 667 592 571 682 b 192 614 308 682 235 654 b 118 528 147 574 131 551 l 118 240 b 392 -1 118 89 214 -1 b 667 240 571 -1 667 89 "},"в":{"ha":736,"x_min":0,"x_max":0,"o":"m 643 535 b 540 371 643 453 608 397 b 667 189 625 344 667 285 b 478 0 667 68 599 0 l 113 0 b 106 7 108 0 106 3 l 106 701 b 113 708 106 706 108 708 l 460 708 b 643 535 576 708 643 647 m 468 378 b 624 535 563 378 624 433 b 458 690 624 639 568 690 l 125 690 l 125 378 m 478 18 b 647 189 585 18 647 79 b 474 360 647 299 585 360 l 125 360 l 125 18 "},"г":{"ha":586,"x_min":0,"x_max":0,"o":"m 556 708 b 561 703 560 708 561 707 l 561 696 b 556 690 561 692 560 690 l 125 690 l 125 6 b 119 0 125 1 124 0 l 111 0 b 106 6 107 0 106 1 l 106 703 b 111 708 106 707 107 708 "},"д":{"ha":788,"x_min":0,"x_max":0,"o":"m 751 18 b 757 13 756 18 757 17 l 757 -187 b 751 -193 757 -192 756 -193 l 743 -193 b 738 -187 739 -193 738 -192 l 738 0 l 33 0 l 33 -187 b 28 -193 33 -192 32 -193 l 19 -193 b 14 -187 15 -193 14 -192 l 14 13 b 19 18 14 17 15 18 l 75 18 b 131 82 99 38 117 58 b 168 215 143 104 156 149 b 186 472 181 281 186 367 l 186 703 b 192 708 186 707 188 708 l 654 708 b 660 703 658 708 660 707 l 660 18 m 206 472 b 179 163 206 332 197 228 b 103 18 161 97 136 49 l 640 18 l 640 690 l 206 690 "},"е":{"ha":726,"x_min":0,"x_max":0,"o":"m 76 442 b 368 728 76 619 179 728 b 660 442 557 728 660 619 l 660 375 b 640 357 660 363 653 357 l 96 357 l 96 246 b 357 -1 96 92 185 -1 b 635 158 488 -1 581 51 b 643 161 638 163 640 163 l 650 157 b 651 150 653 156 653 154 b 357 -19 594 38 497 -19 b 76 246 174 -19 76 79 m 640 442 b 368 710 640 608 546 710 b 96 442 190 710 96 608 l 96 375 l 640 375 "},"ж":{"ha":1025,"x_min":0,"x_max":0,"o":"m 519 708 b 525 703 524 708 525 707 l 525 375 l 681 375 b 717 374 697 375 710 375 l 957 703 b 969 708 960 707 964 708 l 976 708 b 981 701 982 708 983 706 l 739 369 b 861 264 790 358 832 324 l 990 6 b 988 0 992 1 992 0 l 978 0 b 969 4 974 0 971 1 l 843 256 b 681 357 808 328 764 357 l 525 357 l 525 6 b 519 0 525 1 524 0 l 511 0 b 506 6 507 0 506 1 l 506 357 l 350 357 b 188 256 267 357 222 328 l 61 4 b 53 0 60 1 57 0 l 43 0 b 40 6 39 0 39 1 l 169 264 b 292 369 199 324 240 358 l 50 701 b 54 708 47 706 49 708 l 61 708 b 74 703 67 708 71 707 l 314 374 b 350 375 321 375 333 375 l 506 375 l 506 703 b 511 708 506 707 507 708 "},"з":{"ha":708,"x_min":0,"x_max":0,"o":"m 65 544 b 99 608 67 554 69 565 b 149 664 113 629 129 649 b 358 728 188 696 265 728 b 626 535 532 728 626 646 b 508 368 626 450 588 394 l 508 367 b 640 185 596 346 640 286 b 364 -19 640 61 546 -19 b 143 50 268 -19 186 11 b 63 158 100 89 72 132 l 56 179 b 60 186 54 183 56 185 l 68 189 b 75 185 72 190 74 189 b 108 121 76 175 79 164 b 158 65 122 100 139 81 b 364 0 196 32 274 0 b 619 185 532 0 619 74 b 422 356 619 301 560 356 l 253 356 b 247 363 249 356 247 358 l 247 368 b 253 375 247 372 249 375 l 422 375 b 606 535 543 375 606 435 b 358 708 606 635 519 708 b 163 649 274 708 200 682 b 90 556 125 615 100 579 l 85 539 b 76 533 83 533 81 532 l 69 536 b 65 544 65 538 64 540 "},"и":{"ha":781,"x_min":0,"x_max":0,"o":"m 119 708 b 125 703 124 708 125 707 l 125 150 l 125 33 l 126 33 l 192 119 l 656 706 b 661 708 657 707 660 708 l 669 708 b 675 703 674 708 675 707 l 675 6 b 669 0 675 1 674 0 l 661 0 b 656 6 657 0 656 1 l 656 543 l 656 674 l 654 674 l 582 581 l 126 4 b 119 0 124 1 121 0 l 111 0 b 106 6 107 0 106 1 l 106 703 b 111 708 106 707 107 708 "},"й":{"ha":781,"x_min":0,"x_max":0,"o":"m 596 983 b 390 824 567 872 503 824 b 185 983 278 824 214 872 b 188 990 183 986 185 989 l 197 993 b 204 989 201 994 203 993 b 390 843 231 888 286 843 b 576 989 494 843 550 888 b 583 993 578 993 579 994 l 593 990 b 596 983 596 989 597 986 m 119 708 b 125 703 124 708 125 707 l 125 150 l 125 33 l 126 33 l 192 119 l 656 706 b 661 708 657 707 660 708 l 669 708 b 675 703 674 708 675 707 l 675 6 b 669 0 675 1 674 0 l 661 0 b 656 6 657 0 656 1 l 656 543 l 656 674 l 654 674 l 582 581 l 126 4 b 119 0 124 1 121 0 l 111 0 b 106 6 107 0 106 1 l 106 703 b 111 708 106 707 107 708 "},"к":{"ha":708,"x_min":0,"x_max":0,"o":"m 674 6 b 671 0 675 1 675 0 l 661 0 b 653 4 657 0 654 1 l 526 256 b 364 357 492 328 447 357 l 125 357 l 125 6 b 119 0 125 1 124 0 l 111 0 b 106 6 107 0 106 1 l 106 703 b 111 708 106 707 107 708 l 119 708 b 125 703 124 708 125 707 l 125 375 l 364 375 l 379 375 l 640 703 b 653 708 643 707 647 708 l 660 708 b 664 701 665 708 667 706 l 401 372 b 544 264 472 365 511 331 "},"л":{"ha":738,"x_min":0,"x_max":0,"o":"m 628 708 b 633 703 632 708 633 707 l 633 6 b 628 0 633 1 632 0 l 619 0 b 614 6 615 0 614 1 l 614 689 l 188 689 l 188 451 b 136 94 188 278 171 160 b 15 -19 101 28 71 4 b 10 -18 13 -21 11 -19 l 6 -8 b 7 -3 4 -6 6 -4 b 96 65 46 15 63 24 b 135 140 113 86 125 111 b 168 451 151 199 168 307 l 168 703 b 174 708 168 707 169 708 "},"м":{"ha":881,"x_min":0,"x_max":0,"o":"m 768 708 b 775 701 772 708 775 706 l 775 7 b 768 0 775 3 772 0 l 764 0 b 756 7 758 0 756 3 l 756 525 b 757 667 756 551 757 640 l 756 667 l 689 547 l 457 133 b 446 126 454 129 450 126 l 442 126 b 431 133 436 126 432 129 l 200 538 l 126 668 l 125 668 l 125 511 l 125 7 b 121 0 125 3 124 0 l 113 0 b 106 7 108 0 106 3 l 106 701 b 113 708 106 706 108 708 l 118 708 b 128 701 122 708 126 706 l 444 149 l 754 701 b 761 708 757 706 760 708 "},"н":{"ha":774,"x_min":0,"x_max":0,"o":"m 663 708 b 668 703 667 708 668 707 l 668 6 b 663 0 668 1 667 0 l 654 0 b 649 6 650 0 649 1 l 649 357 l 125 357 l 125 6 b 119 0 125 1 124 0 l 111 0 b 106 6 107 0 106 1 l 106 703 b 111 708 106 707 107 708 l 119 708 b 125 703 124 708 125 707 l 125 375 l 649 375 l 649 703 b 654 708 649 707 650 708 "},"о":{"ha":743,"x_min":0,"x_max":0,"o":"m 82 497 b 371 728 82 638 199 728 b 661 497 547 728 661 640 l 661 211 b 371 -19 661 68 547 -19 b 82 211 199 -19 82 71 m 642 499 b 371 710 642 626 533 710 b 101 499 211 710 101 626 l 101 210 b 371 -1 101 82 211 -1 b 642 210 533 -1 642 82 "},"п":{"ha":767,"x_min":0,"x_max":0,"o":"m 656 708 b 661 703 660 708 661 707 l 661 6 b 656 0 661 1 660 0 l 647 0 b 642 6 643 0 642 1 l 642 690 l 125 690 l 125 6 b 119 0 125 1 124 0 l 111 0 b 106 6 107 0 106 1 l 106 703 b 111 708 106 707 107 708 "},"р":{"ha":738,"x_min":0,"x_max":0,"o":"m 157 689 b 374 728 219 715 292 728 b 657 453 563 728 657 636 l 657 243 b 399 -19 657 68 571 -19 b 121 54 297 -19 206 6 l 121 -300 b 115 -306 121 -304 119 -306 l 107 -306 b 101 -300 103 -306 101 -304 l 101 613 b 157 689 101 657 113 671 m 638 453 b 374 710 638 624 550 710 b 164 671 296 710 226 697 b 121 613 125 654 121 647 l 121 76 b 399 -1 204 25 297 -1 b 638 243 558 -1 638 81 "},"с":{"ha":711,"x_min":0,"x_max":0,"o":"m 79 465 b 367 728 79 631 179 728 b 649 535 533 728 611 664 b 646 526 650 531 649 528 l 638 524 b 631 526 635 522 632 524 b 365 708 593 656 522 708 b 99 465 192 708 99 617 l 99 244 b 365 0 99 93 194 0 b 635 193 517 0 597 60 b 642 197 636 197 638 199 l 651 194 b 654 188 654 193 656 190 b 367 -19 615 49 528 -19 b 79 244 182 -19 79 79 "},"т":{"ha":600,"x_min":0,"x_max":0,"o":"m 574 708 b 579 703 578 708 579 707 l 579 696 b 574 690 579 692 578 690 l 311 690 l 311 6 b 306 0 311 1 310 0 l 297 0 b 292 6 293 0 292 1 l 292 690 l 26 690 b 21 696 22 690 21 692 l 21 703 b 26 708 21 707 22 708 "},"у":{"ha":760,"x_min":0,"x_max":0,"o":"m 649 708 b 654 703 653 708 654 707 l 654 -62 b 371 -361 654 -261 560 -361 b 107 -194 247 -361 158 -306 b 110 -186 104 -190 106 -187 l 115 -183 b 124 -186 119 -182 122 -182 b 371 -342 172 -290 256 -342 b 635 -62 547 -342 635 -249 l 635 38 b 360 -19 539 0 447 -19 b 99 244 186 -19 99 68 l 99 703 b 104 708 99 707 100 708 l 113 708 b 118 703 117 708 118 707 l 118 246 b 360 -1 118 81 199 -1 b 635 57 450 -1 542 18 l 635 703 b 640 708 635 707 636 708 "},"ф":{"ha":1024,"x_min":0,"x_max":0,"o":"m 522 718 b 654 728 563 722 607 726 b 944 458 847 728 944 638 l 944 250 b 654 -19 944 71 847 -19 b 522 -10 607 -18 563 -14 l 522 -300 b 517 -306 522 -304 521 -306 l 508 -306 b 503 -300 504 -306 503 -304 l 503 -10 b 368 -19 463 -14 417 -18 b 78 250 175 -19 78 71 l 78 444 b 368 728 78 683 247 728 b 503 718 417 726 463 722 l 503 1022 b 508 1028 503 1026 504 1028 l 517 1028 b 522 1022 521 1028 522 1026 m 99 250 b 367 0 99 83 188 0 b 503 8 410 0 456 3 l 503 700 b 367 708 456 706 410 708 b 197 664 307 708 257 697 b 99 444 138 629 99 551 m 924 458 b 656 708 924 625 835 708 b 522 700 613 708 568 706 l 522 8 b 656 0 568 3 613 0 b 924 250 835 0 924 83 "},"х":{"ha":646,"x_min":0,"x_max":0,"o":"m 606 708 b 608 704 610 708 611 707 l 339 363 l 625 4 b 622 0 626 1 626 0 l 607 0 b 600 4 606 0 603 1 l 326 350 l 51 4 b 43 0 49 1 46 0 l 31 0 b 28 4 26 0 26 1 l 314 365 l 42 704 b 46 708 40 707 42 708 l 58 708 b 67 704 63 708 65 707 l 326 378 l 585 704 b 593 708 588 707 590 708 "},"ц":{"ha":778,"x_min":0,"x_max":0,"o":"m 742 18 b 747 13 746 18 747 17 l 747 -187 b 742 -193 747 -192 746 -193 l 733 -193 b 728 -187 729 -193 728 -192 l 728 0 l 111 0 b 106 6 107 0 106 1 l 106 703 b 111 708 106 707 107 708 l 119 708 b 125 703 124 708 125 707 l 125 18 l 631 18 l 631 703 b 636 708 631 707 632 708 l 644 708 b 650 703 649 708 650 707 l 650 18 "},"ч":{"ha":694,"x_min":0,"x_max":0,"o":"m 56 703 b 61 708 56 707 57 708 l 69 708 b 75 703 74 708 75 707 l 75 514 b 329 297 75 360 150 297 b 569 339 399 297 479 311 l 569 703 b 575 708 569 707 571 708 l 583 708 b 589 703 588 708 589 707 l 589 6 b 583 0 589 1 588 0 l 575 0 b 569 6 571 0 569 1 l 569 319 b 329 279 482 293 403 279 b 56 514 139 279 56 351 "},"ш":{"ha":1047,"x_min":0,"x_max":0,"o":"m 936 708 b 942 703 940 708 942 707 l 942 6 b 936 0 942 1 940 0 l 111 0 b 106 6 107 0 106 1 l 106 703 b 111 708 106 707 107 708 l 119 708 b 125 703 124 708 125 707 l 125 18 l 514 18 l 514 703 b 519 708 514 707 515 708 l 528 708 b 533 703 532 708 533 707 l 533 18 l 922 18 l 922 703 b 928 708 922 707 924 708 "},"щ":{"ha":1068,"x_min":0,"x_max":0,"o":"m 1031 18 b 1036 13 1035 18 1036 17 l 1036 -187 b 1031 -193 1036 -192 1035 -193 l 1022 -193 b 1017 -187 1018 -193 1017 -192 l 1017 0 l 111 0 b 106 6 107 0 106 1 l 106 703 b 111 708 106 707 107 708 l 119 708 b 125 703 124 708 125 707 l 125 18 l 514 18 l 514 703 b 519 708 514 707 515 708 l 528 708 b 533 703 532 708 533 707 l 533 18 l 922 18 l 922 703 b 928 708 922 707 924 708 l 936 708 b 942 703 940 708 942 707 l 942 18 "},"ъ":{"ha":846,"x_min":0,"x_max":0,"o":"m 563 460 b 797 232 713 460 797 381 b 563 0 797 82 713 0 l 246 0 b 240 6 242 0 240 1 l 240 690 l 25 690 b 19 696 21 690 19 692 l 19 703 b 25 708 19 707 21 708 l 254 708 b 260 703 258 708 260 707 l 260 460 m 561 18 b 778 232 700 18 778 93 b 561 442 778 369 701 442 l 260 442 l 260 18 "},"ы":{"ha":950,"x_min":0,"x_max":0,"o":"m 428 460 b 663 232 578 460 663 381 b 428 0 663 82 578 0 l 111 0 b 106 6 107 0 106 1 l 106 703 b 111 708 106 707 107 708 l 119 708 b 125 703 124 708 125 707 l 125 460 m 839 708 b 844 703 843 708 844 707 l 844 6 b 839 0 844 1 843 0 l 831 0 b 825 6 826 0 825 1 l 825 703 b 831 708 825 707 826 708 m 426 18 b 643 232 565 18 643 93 b 426 442 643 369 567 442 l 125 442 l 125 18 "},"ь":{"ha":711,"x_min":0,"x_max":0,"o":"m 428 460 b 663 232 578 460 663 381 b 428 0 663 82 578 0 l 111 0 b 106 6 107 0 106 1 l 106 703 b 111 708 106 707 107 708 l 119 708 b 125 703 124 708 125 707 l 125 460 m 426 18 b 643 232 565 18 643 93 b 426 442 643 369 567 442 l 125 442 l 125 18 "},"э":{"ha":710,"x_min":0,"x_max":0,"o":"m 63 535 b 344 728 100 664 178 728 b 632 465 532 728 632 631 l 632 244 b 344 -19 632 79 529 -19 b 57 188 183 -19 96 49 b 60 194 56 190 57 193 l 69 197 b 76 193 74 199 75 197 b 346 0 114 60 194 0 b 613 244 517 0 613 93 l 613 354 l 249 354 b 243 360 244 354 243 356 l 243 368 b 249 374 243 372 244 374 l 613 374 l 613 465 b 346 708 613 617 519 708 b 81 526 189 708 118 656 b 74 524 79 524 76 522 l 65 526 b 63 535 63 528 61 531 "},"ю":{"ha":1021,"x_min":0,"x_max":0,"o":"m 368 501 b 651 728 368 642 481 728 b 936 501 824 728 936 642 l 936 207 b 651 -19 936 67 824 -19 b 368 207 481 -19 368 67 l 368 350 l 125 350 l 125 6 b 119 0 125 1 124 0 l 111 0 b 106 6 107 0 106 1 l 106 703 b 111 708 106 707 107 708 l 119 708 b 125 703 124 708 125 707 l 125 368 l 368 368 m 917 503 b 651 710 917 629 811 710 b 388 503 494 710 388 629 l 388 206 b 651 -1 388 79 494 -1 b 917 206 811 -1 917 79 "},"я":{"ha":725,"x_min":0,"x_max":0,"o":"m 618 708 b 625 701 622 708 625 706 l 625 6 b 619 0 625 1 624 0 l 611 0 b 606 6 607 0 606 1 l 606 283 l 289 283 l 92 6 b 81 0 89 1 85 0 l 72 0 b 68 7 67 0 65 3 l 265 285 b 72 494 144 294 72 372 b 289 708 72 628 156 708 m 289 690 b 92 494 167 690 92 617 b 289 301 92 374 167 301 l 606 301 l 606 690 "},"ё":{"ha":726,"x_min":0,"x_max":0,"o":"m 242 922 b 257 907 251 922 257 917 l 257 899 b 242 883 257 886 254 883 l 233 883 b 218 899 224 883 218 889 l 218 907 b 233 922 218 917 224 922 m 501 922 b 518 907 513 922 518 917 l 518 899 b 501 883 518 889 513 883 l 494 883 b 478 899 482 883 478 886 l 478 907 b 494 922 478 917 483 922 m 76 442 b 368 728 76 619 179 728 b 660 442 557 728 660 619 l 660 375 b 640 357 660 363 653 357 l 96 357 l 96 246 b 357 -1 96 92 185 -1 b 635 158 488 -1 581 51 b 643 161 638 163 640 163 l 650 157 b 651 150 653 156 653 154 b 357 -19 594 38 497 -19 b 76 246 174 -19 76 79 m 640 442 b 368 710 640 608 546 710 b 96 442 190 710 96 608 l 96 375 l 640 375 "},"Ẁ":{"ha":1192,"x_min":0,"x_max":0,"o":"m 465 1224 b 478 1225 469 1228 474 1228 l 731 1075 b 732 1067 735 1072 735 1069 l 726 1061 b 717 1060 724 1058 721 1058 l 463 1210 b 461 1219 458 1213 457 1215 m 1154 986 b 1158 981 1158 986 1160 985 l 889 7 b 879 0 888 3 885 0 l 871 0 b 861 7 865 0 863 3 l 631 810 b 599 924 625 831 604 904 l 597 924 l 564 810 l 333 7 b 324 0 332 3 329 0 l 315 0 b 306 7 310 0 307 3 l 36 981 b 40 986 35 985 36 986 l 50 986 b 58 981 54 986 57 985 l 290 143 l 319 33 l 321 33 l 351 142 l 585 953 b 593 958 586 957 589 958 l 603 958 b 611 953 607 958 610 957 l 844 139 l 875 33 l 876 33 b 903 138 882 57 897 115 l 1136 981 b 1144 986 1138 985 1140 986 "},"ẁ":{"ha":1010,"x_min":0,"x_max":0,"o":"m 378 985 b 390 986 382 989 386 989 l 638 828 b 639 819 642 825 642 822 l 633 814 b 624 813 631 811 628 811 l 375 971 b 374 981 371 974 369 976 m 972 708 b 976 701 976 708 978 706 l 750 -1 b 743 -8 749 -6 746 -8 l 733 -8 b 725 -1 729 -8 726 -6 l 538 558 b 507 649 528 585 517 615 l 506 649 b 475 558 496 615 485 585 l 289 -1 b 281 -8 288 -6 285 -8 l 271 -8 b 264 -1 268 -8 265 -6 l 39 701 b 43 708 38 706 39 708 l 51 708 b 60 701 56 708 58 706 l 239 140 l 276 25 l 278 25 l 317 143 l 494 675 b 503 681 496 679 499 681 l 511 681 b 518 675 515 681 517 679 l 694 150 l 736 25 l 738 25 l 776 147 l 956 703 b 964 708 957 707 960 708 "}}}
